G04 #@! TF.GenerationSoftware,KiCad,Pcbnew,7.0.7*
G04 #@! TF.CreationDate,2023-09-12T18:14:11+01:00*
G04 #@! TF.ProjectId,corne_dark,636f726e-655f-4646-9172-6b2e6b696361,1.0*
G04 #@! TF.SameCoordinates,Original*
G04 #@! TF.FileFunction,Soldermask,Top*
G04 #@! TF.FilePolarity,Negative*
%FSLAX46Y46*%
G04 Gerber Fmt 4.6, Leading zero omitted, Abs format (unit mm)*
G04 Created by KiCad (PCBNEW 7.0.7) date 2023-09-12 18:14:11*
%MOMM*%
%LPD*%
G01*
G04 APERTURE LIST*
G04 Aperture macros list*
%AMRoundRect*
0 Rectangle with rounded corners*
0 $1 Rounding radius*
0 $2 $3 $4 $5 $6 $7 $8 $9 X,Y pos of 4 corners*
0 Add a 4 corners polygon primitive as box body*
4,1,4,$2,$3,$4,$5,$6,$7,$8,$9,$2,$3,0*
0 Add four circle primitives for the rounded corners*
1,1,$1+$1,$2,$3*
1,1,$1+$1,$4,$5*
1,1,$1+$1,$6,$7*
1,1,$1+$1,$8,$9*
0 Add four rect primitives between the rounded corners*
20,1,$1+$1,$2,$3,$4,$5,0*
20,1,$1+$1,$4,$5,$6,$7,0*
20,1,$1+$1,$6,$7,$8,$9,0*
20,1,$1+$1,$8,$9,$2,$3,0*%
G04 Aperture macros list end*
%ADD10RoundRect,0.200000X-0.475000X0.650000X-0.475000X-0.650000X0.475000X-0.650000X0.475000X0.650000X0*%
%ADD11RoundRect,0.200000X-0.800000X-0.500000X0.800000X-0.500000X0.800000X0.500000X-0.800000X0.500000X0*%
%ADD12RoundRect,0.200000X-0.902150X-0.275908X0.643331X-0.690018X0.902150X0.275908X-0.643331X0.690018X0*%
%ADD13RoundRect,0.200000X-0.033013X0.942820X-0.833013X-0.442820X0.033013X-0.942820X0.833013X0.442820X0*%
%ADD14C,2.200000*%
%ADD15C,1.400000*%
%ADD16C,3.400000*%
%ADD17C,3.800000*%
%ADD18RoundRect,0.200000X0.800000X1.100000X-0.800000X1.100000X-0.800000X-1.100000X0.800000X-1.100000X0*%
%ADD19RoundRect,0.200000X1.057442X0.855463X-0.488040X1.269574X-1.057442X-0.855463X0.488040X-1.269574X0*%
%ADD20RoundRect,0.200000X-0.571500X0.317500X-0.571500X-0.317500X0.571500X-0.317500X0.571500X0.317500X0*%
%ADD21C,1.924000*%
%ADD22C,4.400000*%
%ADD23C,5.400000*%
%ADD24RoundRect,0.200000X0.762000X0.762000X-0.762000X0.762000X-0.762000X-0.762000X0.762000X-0.762000X0*%
%ADD25RoundRect,0.200000X-0.200000X-0.200000X0.200000X-0.200000X0.200000X0.200000X-0.200000X0.200000X0*%
%ADD26RoundRect,0.200000X-0.300000X-0.571500X0.300000X-0.571500X0.300000X0.571500X-0.300000X0.571500X0*%
%ADD27C,1.797000*%
%ADD28C,1.600000*%
%ADD29O,2.900000X2.100000*%
%ADD30C,2.400000*%
%ADD31RoundRect,0.200000X-1.000000X-0.500000X1.000000X-0.500000X1.000000X0.500000X-1.000000X0.500000X0*%
%ADD32RoundRect,0.200000X1.000000X0.500000X-1.000000X0.500000X-1.000000X-0.500000X1.000000X-0.500000X0*%
%ADD33RoundRect,0.200000X-0.552628X1.242820X-1.352628X-0.142820X0.552628X-1.242820X1.352628X0.142820X0*%
G04 APERTURE END LIST*
D10*
X62000000Y-73350000D03*
X62000000Y-76900000D03*
X97000000Y-73350000D03*
X97000000Y-76900000D03*
X116000000Y-68600000D03*
X116000000Y-72150000D03*
X135000000Y-66225000D03*
X135000000Y-69775000D03*
X154000000Y-68600000D03*
X154000000Y-72150000D03*
X157000000Y-68600000D03*
X157000000Y-72150000D03*
X62000000Y-92350000D03*
X62000000Y-95900000D03*
X97000000Y-92350000D03*
X97000000Y-95900000D03*
X116000000Y-87600000D03*
X116000000Y-91150000D03*
X135000000Y-85225000D03*
X135000000Y-88775000D03*
X154000000Y-87600000D03*
X154000000Y-91150000D03*
X157000000Y-87600000D03*
X157000000Y-91150000D03*
X62000000Y-111350000D03*
X62000000Y-114900000D03*
X97000000Y-111350000D03*
X97000000Y-114900000D03*
X116000000Y-106600000D03*
X116000000Y-110150000D03*
X135000000Y-104225000D03*
X135000000Y-107775000D03*
X154000000Y-106600000D03*
X154000000Y-110150000D03*
X157000000Y-106600000D03*
X157000000Y-110150000D03*
X128500000Y-126225000D03*
X128500000Y-129775000D03*
X144500000Y-125975000D03*
X144500000Y-129525000D03*
X147500000Y-125975000D03*
X147500000Y-129525000D03*
D11*
X67600000Y-72500000D03*
X67600000Y-70750000D03*
X72400000Y-70750000D03*
X72400000Y-72500000D03*
X86600000Y-72500000D03*
X86600000Y-70750000D03*
X91400000Y-70750000D03*
X91400000Y-72500000D03*
X105600000Y-67750000D03*
X105600000Y-66000000D03*
X110400000Y-66000000D03*
X110400000Y-67750000D03*
X124600000Y-65375000D03*
X124600000Y-63625000D03*
X129400000Y-63625000D03*
X129400000Y-65375000D03*
X143600000Y-67750000D03*
X143600000Y-66000000D03*
X148400000Y-66000000D03*
X148400000Y-67750000D03*
X162600000Y-70125000D03*
X162600000Y-68375000D03*
X167400000Y-68375000D03*
X167400000Y-70125000D03*
X67600000Y-91500000D03*
X67600000Y-89750000D03*
X72400000Y-89750000D03*
X72400000Y-91500000D03*
X86600000Y-91500000D03*
X86600000Y-89750000D03*
X91400000Y-89750000D03*
X91400000Y-91500000D03*
X105600000Y-86750000D03*
X105600000Y-85000000D03*
X110400000Y-85000000D03*
X110400000Y-86750000D03*
X124600000Y-84375000D03*
X124600000Y-82625000D03*
X129400000Y-82625000D03*
X129400000Y-84375000D03*
X143600000Y-86750000D03*
X143600000Y-85000000D03*
X148400000Y-85000000D03*
X148400000Y-86750000D03*
X162600000Y-89125000D03*
X162600000Y-87375000D03*
X167400000Y-87375000D03*
X167400000Y-89125000D03*
X67600000Y-110500000D03*
X67600000Y-108750000D03*
X72400000Y-108750000D03*
X72400000Y-110500000D03*
X86600000Y-110500000D03*
X86600000Y-108750000D03*
X91400000Y-108750000D03*
X91400000Y-110500000D03*
X105600000Y-105750000D03*
X105600000Y-104000000D03*
X110400000Y-104000000D03*
X110400000Y-105750000D03*
X124600000Y-103375000D03*
X124600000Y-101625000D03*
X129400000Y-101625000D03*
X129400000Y-103375000D03*
X143600000Y-105750000D03*
X143600000Y-104000000D03*
X148400000Y-104000000D03*
X148400000Y-105750000D03*
X162600000Y-108125000D03*
X162600000Y-106375000D03*
X167400000Y-106375000D03*
X167400000Y-108125000D03*
X134100000Y-125375000D03*
X134100000Y-123625000D03*
X138900000Y-123625000D03*
X138900000Y-125375000D03*
D12*
X156455311Y-127724019D03*
X156908245Y-126033649D03*
X161544689Y-127275981D03*
X161091755Y-128966351D03*
D13*
X175442228Y-131234039D03*
X176957772Y-132109039D03*
X174557772Y-136265961D03*
X173042228Y-135390961D03*
D14*
X75500000Y-77125000D03*
D15*
X75220000Y-72925000D03*
D16*
X75000000Y-80825000D03*
X70000000Y-83025000D03*
D17*
X70000000Y-77125000D03*
D16*
X65000000Y-80825000D03*
D15*
X64780000Y-72925000D03*
D14*
X64500000Y-77125000D03*
D18*
X77900000Y-80825000D03*
X67200000Y-83025000D03*
D14*
X94500000Y-77125000D03*
D15*
X94220000Y-72925000D03*
D16*
X94000000Y-80825000D03*
X89000000Y-83025000D03*
D17*
X89000000Y-77125000D03*
D16*
X84000000Y-80825000D03*
D15*
X83780000Y-72925000D03*
D14*
X83500000Y-77125000D03*
D18*
X96900000Y-80825000D03*
X86200000Y-83025000D03*
D14*
X113500000Y-72375000D03*
D15*
X113220000Y-68175000D03*
D16*
X113000000Y-76075000D03*
X108000000Y-78275000D03*
D17*
X108000000Y-72375000D03*
D16*
X103000000Y-76075000D03*
D15*
X102780000Y-68175000D03*
D14*
X102500000Y-72375000D03*
D18*
X115900000Y-76075000D03*
X105200000Y-78275000D03*
D14*
X132500000Y-70000000D03*
D15*
X132220000Y-65800000D03*
D16*
X132000000Y-73700000D03*
X127000000Y-75900000D03*
D17*
X127000000Y-70000000D03*
D16*
X122000000Y-73700000D03*
D15*
X121780000Y-65800000D03*
D14*
X121500000Y-70000000D03*
D18*
X134900000Y-73700000D03*
X124200000Y-75900000D03*
D14*
X151500000Y-72375000D03*
D15*
X151220000Y-68175000D03*
D16*
X151000000Y-76075000D03*
X146000000Y-78275000D03*
D17*
X146000000Y-72375000D03*
D16*
X141000000Y-76075000D03*
D15*
X140780000Y-68175000D03*
D14*
X140500000Y-72375000D03*
D18*
X153900000Y-76075000D03*
X143200000Y-78275000D03*
D14*
X170500000Y-74750000D03*
D15*
X170220000Y-70550000D03*
D16*
X170000000Y-78450000D03*
X165000000Y-80650000D03*
D17*
X165000000Y-74750000D03*
D16*
X160000000Y-78450000D03*
D15*
X159780000Y-70550000D03*
D14*
X159500000Y-74750000D03*
D18*
X172900000Y-78450000D03*
X162200000Y-80650000D03*
D14*
X75500000Y-96125000D03*
D15*
X75220000Y-91925000D03*
D16*
X75000000Y-99825000D03*
X70000000Y-102025000D03*
D17*
X70000000Y-96125000D03*
D16*
X65000000Y-99825000D03*
D15*
X64780000Y-91925000D03*
D14*
X64500000Y-96125000D03*
D18*
X77900000Y-99825000D03*
X67200000Y-102025000D03*
D14*
X94500000Y-96125000D03*
D15*
X94220000Y-91925000D03*
D16*
X94000000Y-99825000D03*
X89000000Y-102025000D03*
D17*
X89000000Y-96125000D03*
D16*
X84000000Y-99825000D03*
D15*
X83780000Y-91925000D03*
D14*
X83500000Y-96125000D03*
D18*
X96900000Y-99825000D03*
X86200000Y-102025000D03*
D14*
X113500000Y-91375000D03*
D15*
X113220000Y-87175000D03*
D16*
X113000000Y-95075000D03*
X108000000Y-97275000D03*
D17*
X108000000Y-91375000D03*
D16*
X103000000Y-95075000D03*
D15*
X102780000Y-87175000D03*
D14*
X102500000Y-91375000D03*
D18*
X115900000Y-95075000D03*
X105200000Y-97275000D03*
D14*
X132500000Y-89000000D03*
D15*
X132220000Y-84800000D03*
D16*
X132000000Y-92700000D03*
X127000000Y-94900000D03*
D17*
X127000000Y-89000000D03*
D16*
X122000000Y-92700000D03*
D15*
X121780000Y-84800000D03*
D14*
X121500000Y-89000000D03*
D18*
X134900000Y-92700000D03*
X124200000Y-94900000D03*
D14*
X151500000Y-91375000D03*
D15*
X151220000Y-87175000D03*
D16*
X151000000Y-95075000D03*
X146000000Y-97275000D03*
D17*
X146000000Y-91375000D03*
D16*
X141000000Y-95075000D03*
D15*
X140780000Y-87175000D03*
D14*
X140500000Y-91375000D03*
D18*
X153900000Y-95075000D03*
X143200000Y-97275000D03*
D14*
X170500000Y-93750000D03*
D15*
X170220000Y-89550000D03*
D16*
X170000000Y-97450000D03*
X165000000Y-99650000D03*
D17*
X165000000Y-93750000D03*
D16*
X160000000Y-97450000D03*
D15*
X159780000Y-89550000D03*
D14*
X159500000Y-93750000D03*
D18*
X172900000Y-97450000D03*
X162200000Y-99650000D03*
D14*
X75500000Y-115125000D03*
D15*
X75220000Y-110925000D03*
D16*
X75000000Y-118825000D03*
X70000000Y-121025000D03*
D17*
X70000000Y-115125000D03*
D16*
X65000000Y-118825000D03*
D15*
X64780000Y-110925000D03*
D14*
X64500000Y-115125000D03*
D18*
X77900000Y-118825000D03*
X67200000Y-121025000D03*
D14*
X94500000Y-115125000D03*
D15*
X94220000Y-110925000D03*
D16*
X94000000Y-118825000D03*
X89000000Y-121025000D03*
D17*
X89000000Y-115125000D03*
D16*
X84000000Y-118825000D03*
D15*
X83780000Y-110925000D03*
D14*
X83500000Y-115125000D03*
D18*
X96900000Y-118825000D03*
X86200000Y-121025000D03*
D14*
X113500000Y-110375000D03*
D15*
X113220000Y-106175000D03*
D16*
X113000000Y-114075000D03*
X108000000Y-116275000D03*
D17*
X108000000Y-110375000D03*
D16*
X103000000Y-114075000D03*
D15*
X102780000Y-106175000D03*
D14*
X102500000Y-110375000D03*
D18*
X115900000Y-114075000D03*
X105200000Y-116275000D03*
D14*
X132500000Y-108000000D03*
D15*
X132220000Y-103800000D03*
D16*
X132000000Y-111700000D03*
X127000000Y-113900000D03*
D17*
X127000000Y-108000000D03*
D16*
X122000000Y-111700000D03*
D15*
X121780000Y-103800000D03*
D14*
X121500000Y-108000000D03*
D18*
X134900000Y-111700000D03*
X124200000Y-113900000D03*
D14*
X151500000Y-110375000D03*
D15*
X151220000Y-106175000D03*
D16*
X151000000Y-114075000D03*
X146000000Y-116275000D03*
D17*
X146000000Y-110375000D03*
D16*
X141000000Y-114075000D03*
D15*
X140780000Y-106175000D03*
D14*
X140500000Y-110375000D03*
D18*
X153900000Y-114075000D03*
X143200000Y-116275000D03*
D14*
X170500000Y-112750000D03*
D15*
X170220000Y-108550000D03*
D16*
X170000000Y-116450000D03*
X165000000Y-118650000D03*
D17*
X165000000Y-112750000D03*
D16*
X160000000Y-116450000D03*
D15*
X159780000Y-108550000D03*
D14*
X159500000Y-112750000D03*
D18*
X172900000Y-116450000D03*
X162200000Y-118650000D03*
D14*
X142000000Y-130000000D03*
D15*
X141720000Y-125800000D03*
D16*
X141500000Y-133700000D03*
X136500000Y-135900000D03*
D17*
X136500000Y-130000000D03*
D16*
X131500000Y-133700000D03*
D15*
X131280000Y-125800000D03*
D14*
X131000000Y-130000000D03*
D18*
X144400000Y-133700000D03*
X133700000Y-135900000D03*
D14*
X162812592Y-134173505D03*
D15*
X163629173Y-130044147D03*
D16*
X161371999Y-137618021D03*
X155972968Y-138448962D03*
D17*
X157500000Y-132750000D03*
D16*
X151712740Y-135029830D03*
D15*
X153544907Y-127342076D03*
D14*
X152187408Y-131326495D03*
D19*
X164173184Y-138368596D03*
X153268375Y-137724269D03*
D20*
X188875000Y-100749620D03*
X188875000Y-101750380D03*
X186375000Y-100749620D03*
X186375000Y-101750380D03*
X183875000Y-100749620D03*
X183875000Y-101750380D03*
X181375000Y-100749620D03*
X181375000Y-101750380D03*
D21*
X176860000Y-73042000D03*
X193406400Y-71772000D03*
X176860000Y-75582000D03*
X193406400Y-74312000D03*
X176860000Y-78122000D03*
X193406400Y-76852000D03*
X176860000Y-80662000D03*
X193406400Y-79392000D03*
X176860000Y-83202000D03*
X193406400Y-81932000D03*
X176860000Y-85742000D03*
X193406400Y-84472000D03*
X176860000Y-88282000D03*
X193406400Y-87012000D03*
X176860000Y-90822000D03*
X193406400Y-89552000D03*
X176860000Y-93362000D03*
X193406400Y-92092000D03*
X176860000Y-95902000D03*
X193406400Y-94632000D03*
X176860000Y-98442000D03*
X193406400Y-97172000D03*
X176860000Y-100982000D03*
X193406400Y-99712000D03*
X178186400Y-99712000D03*
X192100000Y-100982000D03*
X178186400Y-97172000D03*
X192100000Y-98442000D03*
X178186400Y-94632000D03*
X192100000Y-95902000D03*
X178186400Y-92092000D03*
X192100000Y-93362000D03*
X178186400Y-89552000D03*
X192100000Y-90822000D03*
X178186400Y-87012000D03*
X192100000Y-88282000D03*
X178186400Y-84472000D03*
X192100000Y-85742000D03*
X178186400Y-81932000D03*
X192100000Y-83202000D03*
X178186400Y-79392000D03*
X192100000Y-80662000D03*
X178186400Y-76852000D03*
X192100000Y-78122000D03*
X178186400Y-74312000D03*
X192100000Y-75582000D03*
X178186400Y-71772000D03*
X192100000Y-73042000D03*
D22*
X177750000Y-115750000D03*
X192250000Y-124250000D03*
D23*
X79500000Y-86750000D03*
X79500000Y-105500000D03*
X98500000Y-86750000D03*
X98500000Y-105750000D03*
X155500000Y-83000000D03*
X122750000Y-122750000D03*
X169250000Y-130500000D03*
D24*
X174000000Y-107900000D03*
X174000000Y-105360000D03*
X174000000Y-102820000D03*
D25*
X181100000Y-112800000D03*
D26*
X180600000Y-112800000D03*
X181600000Y-112800000D03*
D27*
X181300000Y-105300000D03*
X183840000Y-105300000D03*
X186380000Y-105300000D03*
X188920000Y-105300000D03*
D28*
X193200000Y-114950000D03*
X186200000Y-114950000D03*
X193200000Y-116700000D03*
X186200000Y-116700000D03*
D29*
X182900000Y-114600000D03*
X182900000Y-117050000D03*
X191400000Y-112850000D03*
X191400000Y-118800000D03*
X188400000Y-112850000D03*
X188400000Y-118800000D03*
X184400000Y-112850000D03*
X184400000Y-118800000D03*
D30*
X192900000Y-103750000D03*
X192900000Y-110250000D03*
D31*
X124820000Y-79285000D03*
X124820000Y-81035000D03*
X129220000Y-81035000D03*
X129220000Y-79285000D03*
X162770000Y-84005000D03*
X162770000Y-85755000D03*
X167170000Y-85755000D03*
X167170000Y-84005000D03*
D32*
X129190000Y-119045000D03*
X129190000Y-117295000D03*
X124790000Y-117295000D03*
X124790000Y-119045000D03*
X167210000Y-123795000D03*
X167210000Y-122045000D03*
X162810000Y-122045000D03*
X162810000Y-123795000D03*
D14*
X182500000Y-131736860D03*
D15*
X178722693Y-129879347D03*
D16*
X185454294Y-134019873D03*
X184859550Y-139450000D03*
D17*
X179750000Y-136500000D03*
D16*
X180454294Y-142680127D03*
D15*
X173502693Y-138920653D03*
D14*
X177000000Y-141263140D03*
D33*
X186854294Y-131595002D03*
X183459550Y-141874871D03*
D27*
X189540000Y-110300000D03*
X184460000Y-110300000D03*
X189540000Y-108000000D03*
X184460000Y-108000000D03*
X181000000Y-108000000D03*
X181000000Y-110300000D03*
D31*
X86800000Y-86375000D03*
X86800000Y-88125000D03*
X91200000Y-88125000D03*
X91200000Y-86375000D03*
D32*
X91200000Y-107115000D03*
X91200000Y-105365000D03*
X86800000Y-105365000D03*
X86800000Y-107115000D03*
M02*
