M48
; DRILL file {KiCad 7.0.7} date Tue 12 Sep 2023 18:13:55 BST
; FORMAT={-:-/ absolute / inch / decimal}
; #@! TF.CreationDate,2023-09-12T18:13:55+01:00
; #@! TF.GenerationSoftware,Kicad,Pcbnew,7.0.7
; #@! TF.FileFunction,Plated,1,2,PTH
FMAT,2
INCH
; #@! TA.AperFunction,Plated,PTH,ViaDrill
T1C0.0157
; #@! TA.AperFunction,Plated,PTH,ComponentDrill
T2C0.0320
; #@! TA.AperFunction,Plated,PTH,ComponentDrill
T3C0.0394
; #@! TA.AperFunction,Plated,PTH,ComponentDrill
T4C0.0512
; #@! TA.AperFunction,Plated,PTH,ComponentDrill
T5C0.0866
; #@! TA.AperFunction,Plated,PTH,ComponentDrill
T6C0.1614
%
G90
G05
T1
X2.4409Y-2.9449
X2.4409Y-2.9783
X2.4409Y-3.6929
X2.4409Y-3.7264
X2.4409Y-4.439
X2.4409Y-4.4744
X2.4531Y-4.5898
X2.4852Y-4.0248
X2.5142Y-4.1118
X2.5157Y-3.6437
X2.5157Y-4.3917
X2.622Y-2.8976
X2.626Y-3.6457
X2.6299Y-4.3976
X2.6535Y-2.9055
X2.6575Y-3.6535
X2.6606Y-4.2264
X2.661Y-2.7303
X2.661Y-3.4791
X2.6654Y-4.3976
X2.6728Y-4.6717
X2.6768Y-3.1819
X2.7016Y-3.8976
X2.8425Y-3.7126
X2.8583Y-2.7244
X2.8583Y-3.4843
X2.8583Y-4.2283
X2.9094Y-3.4331
X2.9094Y-3.5512
X2.9134Y-4.2835
X2.9173Y-2.8071
X2.9173Y-4.1772
X3.0276Y-2.9685
X3.0394Y-3.0886
X3.0587Y-4.0098
X3.0598Y-4.7618
X3.1768Y-3.8268
X3.1929Y-4.5551
X3.226Y-3.8197
X3.2638Y-3.7244
X3.2795Y-4.4646
X3.3024Y-3.4409
X3.3055Y-3.5016
X3.3181Y-4.1073
X3.3402Y-3.4154
X3.3543Y-4.3504
X3.3583Y-4.315
X3.3626Y-4.1073
X3.3701Y-3.6457
X3.378Y-2.8976
X3.4016Y-3.6496
X3.4091Y-2.7374
X3.4173Y-2.9016
X3.4866Y-3.4343
X3.4902Y-4.1815
X3.5217Y-4.1811
X3.522Y-3.4343
X3.5416Y-4.6584
X3.5618Y-3.9272
X3.5748Y-3.1736
X3.6063Y-2.7362
X3.6592Y-4.1704
X3.6602Y-3.5055
X3.6617Y-3.5374
X3.6654Y-2.7992
X3.6689Y-4.2374
X3.6705Y-4.2768
X3.6913Y-3.342
X3.6917Y-3.5051
X3.7029Y-4.1306
X3.748Y-4.2402
X3.7651Y-3.0715
X3.7677Y-2.9331
X3.7717Y-3.7087
X3.7846Y-3.0976
X3.785Y-3.8437
X3.8067Y-4.7579
X3.8169Y-3.689
X3.8189Y-2.9429
X3.8189Y-4.437
X3.8583Y-3.8307
X3.8583Y-4.5768
X3.8594Y-3.072
X3.8642Y-3.2398
X3.8685Y-3.9665
X3.8732Y-3.0087
X3.8858Y-4.3583
X3.8929Y-3.0724
X3.8969Y-3.6823
X3.9055Y-2.878
X3.9055Y-4.3268
X3.9125Y-4.3894
X3.9409Y-2.8366
X3.9457Y-4.3941
X4.0213Y-3.5335
X4.1024Y-4.1339
X4.1024Y-4.2756
X4.1028Y-2.5531
X4.1063Y-3.3819
X4.1181Y-2.7126
X4.126Y-4.3071
X4.1496Y-2.7165
X4.1496Y-3.4646
X4.1496Y-4.4917
X4.15Y-3.7461
X4.1516Y-2.9949
X4.1575Y-4.2087
X4.1579Y-3.3008
X4.1579Y-4.0508
X4.3543Y-2.5512
X4.3583Y-3.2992
X4.3622Y-4.0512
X4.3976Y-2.5591
X4.4094Y-3.3583
X4.4094Y-4.0906
X4.4409Y-3.9606
X4.4449Y-3.2165
X4.4843Y-2.5512
X4.5098Y-4.3953
X4.5157Y-2.7559
X4.5197Y-3.5079
X4.5266Y-3.9892
X4.5535Y-3.8299
X4.5571Y-2.7539
X4.5571Y-4.5819
X4.5602Y-3.0799
X4.5669Y-3.5059
X4.5669Y-4.252
X4.6134Y-2.8941
X4.6244Y-3.6465
X4.6417Y-4.185
X4.685Y-3.437
X4.685Y-4.185
X4.6969Y-3.878
X4.7598Y-3.878
X4.7618Y-3.0453
X4.7638Y-3.437
X4.7638Y-4.185
X4.7795Y-2.5433
X4.7913Y-3.1059
X4.8346Y-4.6512
X4.8386Y-4.0709
X4.8425Y-3.2126
X4.8465Y-4.0354
X4.8504Y-2.5433
X4.8504Y-3.2835
X4.8937Y-2.622
X4.8957Y-3.6524
X4.8976Y-3.3661
X4.8976Y-4.3972
X4.9Y-2.9039
X4.9291Y-3.8937
X4.9807Y-4.6524
X4.9878Y-3.1531
X5.0106Y-5.0213
X5.0193Y-3.1523
X5.0205Y-4.6508
X5.026Y-5.1819
X5.1063Y-2.4606
X5.1063Y-5.0813
X5.1116Y-5.0194
X5.1488Y-3.2311
X5.1496Y-4.0354
X5.1535Y-3.2795
X5.1575Y-2.5039
X5.1579Y-4.6516
X5.1772Y-4.8071
X5.185Y-4.0
X5.1988Y-4.637
X5.2126Y-4.9055
X5.2165Y-3.0909
X5.2197Y-3.1453
X5.2283Y-4.7598
X5.2465Y-4.6811
X5.2638Y-2.6535
X5.2638Y-3.4094
X5.2638Y-4.1535
X5.2717Y-4.7087
X5.2878Y-5.2331
X5.3004Y-3.7299
X5.3031Y-4.6811
X5.3039Y-4.4953
X5.3067Y-2.9807
X5.315Y-2.6614
X5.315Y-3.4094
X5.315Y-4.1575
X5.3563Y-2.8004
X5.3654Y-4.2917
X5.3681Y-3.5465
X5.4094Y-4.7598
X5.4291Y-4.2677
X5.4409Y-3.5236
X5.4449Y-3.9173
X5.4449Y-3.9606
X5.4803Y-4.815
X5.5Y-3.9606
X5.5039Y-3.9213
X5.5079Y-3.5236
X5.5118Y-4.2677
X5.5276Y-4.8701
X5.5953Y-2.5531
X5.5984Y-3.3858
X5.6024Y-2.6378
X5.6024Y-4.1299
X5.6024Y-4.8307
X5.6417Y-3.4646
X5.6445Y-2.9992
X5.6453Y-3.7488
X5.6457Y-2.7165
X5.6457Y-4.2126
X5.6457Y-4.4957
X5.6528Y-3.2992
X5.6531Y-4.0492
X5.6724Y-5.3413
X5.6886Y-5.1535
X5.689Y-5.0138
X5.8063Y-5.1559
X5.8071Y-5.0138
X5.8504Y-2.5551
X5.8504Y-3.2992
X5.8504Y-4.0433
X5.9016Y-2.6102
X5.9016Y-3.3543
X5.9016Y-5.0354
X5.9055Y-4.0906
X5.9253Y-3.9843
X5.9299Y-3.202
X5.935Y-5.4657
X5.9646Y-2.6299
X5.9646Y-5.0354
X6.0118Y-2.7362
X6.0157Y-3.5039
X6.0157Y-4.248
X6.0268Y-3.0787
X6.0409Y-4.4012
X6.0417Y-4.5831
X6.0437Y-3.6461
X6.0441Y-3.8276
X6.0465Y-2.8972
X6.0512Y-4.937
X6.063Y-2.7559
X6.063Y-3.5276
X6.063Y-4.2756
X6.0945Y-3.9646
X6.0945Y-4.0039
X6.0945Y-4.0394
X6.1024Y-4.8228
X6.1024Y-4.937
X6.1496Y-4.063
X6.1575Y-4.0236
X6.1689Y-3.9906
X6.1772Y-4.3949
X6.1776Y-2.8969
X6.1791Y-3.6449
X6.1811Y-2.7559
X6.1811Y-3.5276
X6.1811Y-4.2756
X6.1929Y-4.7598
X6.1972Y-4.4949
X6.235Y-3.7524
X6.2378Y-4.2728
X6.2843Y-4.7382
X6.2906Y-3.3146
X6.3Y-3.2449
X6.3071Y-2.6929
X6.3094Y-4.7618
X6.3272Y-3.1811
X6.3375Y-3.4008
X6.3457Y-4.8232
X6.3465Y-3.4764
X6.3504Y-2.7362
X6.3504Y-4.2244
X6.3509Y-3.3401
X6.3898Y-2.811
X6.3898Y-3.5551
X6.3921Y-3.0925
X6.3972Y-4.5854
X6.4016Y-4.3031
X6.4209Y-5.3465
X6.4291Y-4.0748
X6.4319Y-4.9728
X6.4331Y-5.0118
X6.4398Y-3.0925
X6.4471Y-3.8121
X6.4752Y-3.3437
X6.4791Y-4.8382
X6.5197Y-4.8398
X6.5217Y-3.3429
X6.5224Y-4.8949
X6.5236Y-4.9583
X6.5984Y-4.1378
X6.6457Y-2.6575
X6.6457Y-2.7047
X6.6495Y-3.4514
X6.652Y-4.837
X6.6528Y-3.4201
X6.6535Y-4.1969
X6.689Y-3.315
X6.689Y-3.6122
X6.6969Y-5.3543
X6.7087Y-2.7047
X6.7126Y-3.4606
X6.7165Y-4.1969
X6.7283Y-2.8384
X6.7319Y-4.928
X6.7323Y-4.3386
X6.7417Y-3.2146
X6.7559Y-3.6535
X6.7567Y-3.3134
X6.7638Y-3.5414
X6.7748Y-4.4319
X6.7874Y-4.8071
X6.7874Y-5.4016
X6.7878Y-4.7252
X6.7996Y-3.7575
X6.8056Y-2.9838
X6.8118Y-4.6563
X6.8169Y-2.8541
X6.8227Y-3.2152
X6.8228Y-4.374
X6.8268Y-4.7362
X6.8282Y-3.6142
X6.8307Y-4.3189
X6.8492Y-2.8409
X6.8492Y-3.0181
X6.8541Y-2.957
X6.8577Y-3.5669
X6.8602Y-5.1339
X6.8622Y-4.9921
X6.8748Y-3.2118
X6.8749Y-3.0618
X6.876Y-3.989
X6.8819Y-3.0315
X6.8938Y-4.4032
X6.9173Y-4.148
X6.9272Y-5.0591
X6.9492Y-4.6534
X6.9606Y-5.1299
X7.063Y-4.4016
X7.0669Y-2.8757
X7.089Y-2.9772
X7.1614Y-4.2008
X7.1732Y-4.3898
X7.1843Y-3.9055
X7.1976Y-5.4303
X7.252Y-3.2323
X7.265Y-2.8917
X7.2717Y-3.9331
X7.2736Y-5.1453
X7.2795Y-3.374
X7.2799Y-3.0079
X7.2835Y-3.2795
X7.2874Y-3.9646
X7.311Y-3.2244
X7.311Y-3.9071
X7.315Y-2.8228
X7.3685Y-2.922
X7.378Y-3.4252
X7.4134Y-3.7913
X7.4157Y-2.9772
X7.4213Y-3.4921
X7.4291Y-3.6929
X7.437Y-3.2953
X7.4394Y-3.6008
X7.4488Y-3.6575
X7.4488Y-3.7638
X7.4488Y-3.8583
X7.4528Y-3.3583
X7.4528Y-3.4606
X7.4528Y-3.563
X7.4787Y-3.1248
X7.4941Y-3.078
X7.4961Y-2.7913
X7.5079Y-3.8976
X7.5079Y-3.9528
T2
X6.963Y-2.8757
X6.963Y-2.9757
X6.963Y-3.0757
X6.963Y-3.1757
X6.963Y-3.2757
X6.963Y-3.3757
X6.963Y-3.4757
X6.963Y-3.5757
X6.963Y-3.6757
X6.963Y-3.7757
X6.963Y-3.8757
X6.963Y-3.9757
X7.0152Y-2.8257
X7.0152Y-2.9257
X7.0152Y-3.0257
X7.0152Y-3.1257
X7.0152Y-3.2257
X7.0152Y-3.3257
X7.0152Y-3.4257
X7.0152Y-3.5257
X7.0152Y-3.6257
X7.0152Y-3.7257
X7.0152Y-3.8257
X7.0152Y-3.9257
X7.126Y-4.252
X7.126Y-4.3425
X7.1378Y-4.1457
X7.2378Y-4.1457
X7.2622Y-4.252
X7.2622Y-4.3425
X7.3378Y-4.1457
X7.4378Y-4.1457
X7.4622Y-4.252
X7.4622Y-4.3425
X7.563Y-2.8757
X7.563Y-2.9757
X7.563Y-3.0757
X7.563Y-3.1757
X7.563Y-3.2757
X7.563Y-3.3757
X7.563Y-3.4757
X7.563Y-3.5757
X7.563Y-3.6757
X7.563Y-3.7757
X7.563Y-3.8757
X7.563Y-3.9757
X7.6144Y-2.8257
X7.6144Y-2.9257
X7.6144Y-3.0257
X7.6144Y-3.1257
X7.6144Y-3.2257
X7.6144Y-3.3257
X7.6144Y-3.4257
X7.6144Y-3.5257
X7.6144Y-3.6257
X7.6144Y-3.7257
X7.6144Y-3.8257
X7.6144Y-3.9257
T4
X7.5945Y-4.0846
X7.5945Y-4.3406
T5
X6.998Y-4.5571
X7.5689Y-4.8917
T6
X3.1299Y-3.4154
X3.1299Y-4.1535
X3.878Y-3.4154
X3.878Y-4.1634
X4.8327Y-4.8327
X6.122Y-3.2677
X6.6634Y-5.1378
T3
G00X7.2106Y-4.5118
M15
G01X7.1909Y-4.5118
M16
G05
G00X7.2106Y-4.6083
M15
G01X7.1909Y-4.6083
M16
G05
G00X7.2697Y-4.4429
M15
G01X7.25Y-4.4429
M16
G05
G00X7.2697Y-4.6772
M15
G01X7.25Y-4.6772
M16
G05
G00X7.4272Y-4.4429
M15
G01X7.4075Y-4.4429
M16
G05
G00X7.4272Y-4.6772
M15
G01X7.4075Y-4.6772
M16
G05
G00X7.5453Y-4.4429
M15
G01X7.5256Y-4.4429
M16
G05
G00X7.5453Y-4.6772
M15
G01X7.5256Y-4.6772
M16
G05
T0
M30
