M48
; DRILL file {KiCad 7.0.7} date Tue 12 Sep 2023 18:13:55 BST
; FORMAT={-:-/ absolute / inch / decimal}
; #@! TF.CreationDate,2023-09-12T18:13:55+01:00
; #@! TF.GenerationSoftware,Kicad,Pcbnew,7.0.7
; #@! TF.FileFunction,NonPlated,1,2,NPTH
FMAT,2
INCH
; #@! TA.AperFunction,NonPlated,NPTH,ComponentDrill
T1C0.0394
; #@! TA.AperFunction,NonPlated,NPTH,ComponentDrill
T2C0.0472
; #@! TA.AperFunction,NonPlated,NPTH,ComponentDrill
T3C0.0709
; #@! TA.AperFunction,NonPlated,NPTH,ComponentDrill
T4C0.1181
; #@! TA.AperFunction,NonPlated,NPTH,ComponentDrill
T5C0.1339
%
G90
G05
T1
X2.5504Y-2.8711
X2.5504Y-3.6191
X2.5504Y-4.3671
X2.9614Y-2.8711
X2.9614Y-3.6191
X2.9614Y-4.3671
X3.2984Y-2.8711
X3.2984Y-3.6191
X3.2984Y-4.3671
X3.7094Y-2.8711
X3.7094Y-3.6191
X3.7094Y-4.3671
X4.0465Y-2.6841
X4.0465Y-3.4321
X4.0465Y-4.1801
X4.4575Y-2.6841
X4.4575Y-3.4321
X4.4575Y-4.1801
X4.7945Y-2.5906
X4.7945Y-3.3386
X4.7945Y-4.0866
X5.1685Y-4.9528
X5.2055Y-2.5906
X5.2055Y-3.3386
X5.2055Y-4.0866
X5.5425Y-2.6841
X5.5425Y-3.4321
X5.5425Y-4.1801
X5.5795Y-4.9528
X5.9535Y-2.6841
X5.9535Y-3.4321
X5.9535Y-4.1801
X6.0451Y-5.0135
X6.2906Y-2.7776
X6.2906Y-3.5256
X6.2906Y-4.2736
X6.4421Y-5.1198
X6.7016Y-2.7776
X6.7016Y-3.5256
X6.7016Y-4.2736
X6.8308Y-5.4693
X7.0363Y-5.1134
T2
X7.3307Y-4.5256
X7.3307Y-4.5945
X7.6063Y-4.5256
X7.6063Y-4.5945
T3
X2.5394Y-3.0364
X2.5394Y-3.7844
X2.5394Y-4.5325
X2.9724Y-3.0364
X2.9724Y-3.7844
X2.9724Y-4.5325
X3.2874Y-3.0364
X3.2874Y-3.7844
X3.2874Y-4.5325
X3.7205Y-3.0364
X3.7205Y-3.7844
X3.7205Y-4.5325
X4.0354Y-2.8494
X4.0354Y-3.5974
X4.0354Y-4.3455
X4.4685Y-2.8494
X4.4685Y-3.5974
X4.4685Y-4.3455
X4.7835Y-2.7559
X4.7835Y-3.5039
X4.7835Y-4.252
X5.1575Y-5.1181
X5.2165Y-2.7559
X5.2165Y-3.5039
X5.2165Y-4.252
X5.5315Y-2.8494
X5.5315Y-3.5974
X5.5315Y-4.3455
X5.5906Y-5.1181
X5.9646Y-2.8494
X5.9646Y-3.5974
X5.9646Y-4.3455
X5.9916Y-5.1703
X6.2795Y-2.9429
X6.2795Y-3.6909
X6.2795Y-4.439
X6.4099Y-5.2824
X6.7126Y-2.9429
X6.7126Y-3.6909
X6.7126Y-4.439
X6.9685Y-5.5615
X7.185Y-5.1865
T4
X2.5591Y-3.1821
X2.5591Y-3.9301
X2.5591Y-4.6781
X2.7559Y-3.2687
X2.7559Y-4.0167
X2.7559Y-4.7648
X2.9528Y-3.1821
X2.9528Y-3.9301
X2.9528Y-4.6781
X3.3071Y-3.1821
X3.3071Y-3.9301
X3.3071Y-4.6781
X3.5039Y-3.2687
X3.5039Y-4.0167
X3.5039Y-4.7648
X3.7008Y-3.1821
X3.7008Y-3.9301
X3.7008Y-4.6781
X4.0551Y-2.9951
X4.0551Y-3.7431
X4.0551Y-4.4911
X4.252Y-3.0817
X4.252Y-3.8297
X4.252Y-4.5778
X4.4488Y-2.9951
X4.4488Y-3.7431
X4.4488Y-4.4911
X4.8031Y-2.9016
X4.8031Y-3.6496
X4.8031Y-4.3976
X5.0Y-2.9882
X5.0Y-3.7362
X5.0Y-4.4843
X5.1772Y-5.2638
X5.1969Y-2.9016
X5.1969Y-3.6496
X5.1969Y-4.3976
X5.374Y-5.3504
X5.5512Y-2.9951
X5.5512Y-3.7431
X5.5512Y-4.4911
X5.5709Y-5.2638
X5.748Y-3.0817
X5.748Y-3.8297
X5.748Y-4.5778
X5.9449Y-2.9951
X5.9449Y-3.7431
X5.9449Y-4.4911
X5.9729Y-5.3161
X6.1407Y-5.4507
X6.2992Y-3.0886
X6.2992Y-3.8366
X6.2992Y-4.5846
X6.3532Y-5.418
X6.4961Y-3.1752
X6.4961Y-3.9232
X6.4961Y-4.6713
X6.6929Y-3.0886
X6.6929Y-3.8366
X6.6929Y-4.5846
X7.1045Y-5.6173
X7.2779Y-5.4902
X7.3014Y-5.2764
T5
X2.7559Y-3.0364
X2.7559Y-3.7844
X2.7559Y-4.5325
X3.5039Y-3.0364
X3.5039Y-3.7844
X3.5039Y-4.5325
X4.252Y-2.8494
X4.252Y-3.5974
X4.252Y-4.3455
X5.0Y-2.7559
X5.0Y-3.5039
X5.0Y-4.252
X5.374Y-5.1181
X5.748Y-2.8494
X5.748Y-3.5974
X5.748Y-4.3455
X6.2008Y-5.2264
X6.4961Y-2.9429
X6.4961Y-3.6909
X6.4961Y-4.439
X7.0768Y-5.374
T0
M30
