G04 #@! TF.GenerationSoftware,KiCad,Pcbnew,7.0.7*
G04 #@! TF.CreationDate,2023-09-12T18:14:10+01:00*
G04 #@! TF.ProjectId,corne_dark,636f726e-655f-4646-9172-6b2e6b696361,1.0*
G04 #@! TF.SameCoordinates,Original*
G04 #@! TF.FileFunction,Legend,Top*
G04 #@! TF.FilePolarity,Positive*
%FSLAX46Y46*%
G04 Gerber Fmt 4.6, Leading zero omitted, Abs format (unit mm)*
G04 Created by KiCad (PCBNEW 7.0.7) date 2023-09-12 18:14:10*
%MOMM*%
%LPD*%
G01*
G04 APERTURE LIST*
%ADD10C,0.125000*%
%ADD11C,0.150000*%
%ADD12C,0.152400*%
%ADD13C,0.300000*%
%ADD14C,1.524000*%
%ADD15C,1.397000*%
%ADD16C,1.200000*%
%ADD17O,2.500000X1.700000*%
%ADD18C,2.000000*%
G04 APERTURE END LIST*
D10*
X171450000Y-106317333D02*
X171116666Y-106317333D01*
X171116666Y-106317333D02*
X171116666Y-105617333D01*
X171683333Y-105950666D02*
X171916667Y-105950666D01*
X172016667Y-106317333D02*
X171683333Y-106317333D01*
X171683333Y-106317333D02*
X171683333Y-105617333D01*
X171683333Y-105617333D02*
X172016667Y-105617333D01*
X172316666Y-106317333D02*
X172316666Y-105617333D01*
X172316666Y-105617333D02*
X172483333Y-105617333D01*
X172483333Y-105617333D02*
X172583333Y-105650666D01*
X172583333Y-105650666D02*
X172650000Y-105717333D01*
X172650000Y-105717333D02*
X172683333Y-105784000D01*
X172683333Y-105784000D02*
X172716666Y-105917333D01*
X172716666Y-105917333D02*
X172716666Y-106017333D01*
X172716666Y-106017333D02*
X172683333Y-106150666D01*
X172683333Y-106150666D02*
X172650000Y-106217333D01*
X172650000Y-106217333D02*
X172583333Y-106284000D01*
X172583333Y-106284000D02*
X172483333Y-106317333D01*
X172483333Y-106317333D02*
X172316666Y-106317333D01*
X171466667Y-108150666D02*
X171400000Y-108117333D01*
X171400000Y-108117333D02*
X171300000Y-108117333D01*
X171300000Y-108117333D02*
X171200000Y-108150666D01*
X171200000Y-108150666D02*
X171133334Y-108217333D01*
X171133334Y-108217333D02*
X171100000Y-108284000D01*
X171100000Y-108284000D02*
X171066667Y-108417333D01*
X171066667Y-108417333D02*
X171066667Y-108517333D01*
X171066667Y-108517333D02*
X171100000Y-108650666D01*
X171100000Y-108650666D02*
X171133334Y-108717333D01*
X171133334Y-108717333D02*
X171200000Y-108784000D01*
X171200000Y-108784000D02*
X171300000Y-108817333D01*
X171300000Y-108817333D02*
X171366667Y-108817333D01*
X171366667Y-108817333D02*
X171466667Y-108784000D01*
X171466667Y-108784000D02*
X171500000Y-108750666D01*
X171500000Y-108750666D02*
X171500000Y-108517333D01*
X171500000Y-108517333D02*
X171366667Y-108517333D01*
X171800000Y-108817333D02*
X171800000Y-108117333D01*
X171800000Y-108117333D02*
X172200000Y-108817333D01*
X172200000Y-108817333D02*
X172200000Y-108117333D01*
X172533333Y-108817333D02*
X172533333Y-108117333D01*
X172533333Y-108117333D02*
X172700000Y-108117333D01*
X172700000Y-108117333D02*
X172800000Y-108150666D01*
X172800000Y-108150666D02*
X172866667Y-108217333D01*
X172866667Y-108217333D02*
X172900000Y-108284000D01*
X172900000Y-108284000D02*
X172933333Y-108417333D01*
X172933333Y-108417333D02*
X172933333Y-108517333D01*
X172933333Y-108517333D02*
X172900000Y-108650666D01*
X172900000Y-108650666D02*
X172866667Y-108717333D01*
X172866667Y-108717333D02*
X172800000Y-108784000D01*
X172800000Y-108784000D02*
X172700000Y-108817333D01*
X172700000Y-108817333D02*
X172533333Y-108817333D01*
X170966666Y-102917333D02*
X171200000Y-103617333D01*
X171200000Y-103617333D02*
X171433333Y-102917333D01*
X172066666Y-103550666D02*
X172033333Y-103584000D01*
X172033333Y-103584000D02*
X171933333Y-103617333D01*
X171933333Y-103617333D02*
X171866666Y-103617333D01*
X171866666Y-103617333D02*
X171766666Y-103584000D01*
X171766666Y-103584000D02*
X171700000Y-103517333D01*
X171700000Y-103517333D02*
X171666666Y-103450666D01*
X171666666Y-103450666D02*
X171633333Y-103317333D01*
X171633333Y-103317333D02*
X171633333Y-103217333D01*
X171633333Y-103217333D02*
X171666666Y-103084000D01*
X171666666Y-103084000D02*
X171700000Y-103017333D01*
X171700000Y-103017333D02*
X171766666Y-102950666D01*
X171766666Y-102950666D02*
X171866666Y-102917333D01*
X171866666Y-102917333D02*
X171933333Y-102917333D01*
X171933333Y-102917333D02*
X172033333Y-102950666D01*
X172033333Y-102950666D02*
X172066666Y-102984000D01*
X172766666Y-103550666D02*
X172733333Y-103584000D01*
X172733333Y-103584000D02*
X172633333Y-103617333D01*
X172633333Y-103617333D02*
X172566666Y-103617333D01*
X172566666Y-103617333D02*
X172466666Y-103584000D01*
X172466666Y-103584000D02*
X172400000Y-103517333D01*
X172400000Y-103517333D02*
X172366666Y-103450666D01*
X172366666Y-103450666D02*
X172333333Y-103317333D01*
X172333333Y-103317333D02*
X172333333Y-103217333D01*
X172333333Y-103217333D02*
X172366666Y-103084000D01*
X172366666Y-103084000D02*
X172400000Y-103017333D01*
X172400000Y-103017333D02*
X172466666Y-102950666D01*
X172466666Y-102950666D02*
X172566666Y-102917333D01*
X172566666Y-102917333D02*
X172633333Y-102917333D01*
X172633333Y-102917333D02*
X172733333Y-102950666D01*
X172733333Y-102950666D02*
X172766666Y-102984000D01*
D11*
D10*
X175302380Y-82219035D02*
X175278571Y-82254750D01*
X175278571Y-82254750D02*
X175207142Y-82290464D01*
X175207142Y-82290464D02*
X175159523Y-82290464D01*
X175159523Y-82290464D02*
X175088095Y-82254750D01*
X175088095Y-82254750D02*
X175040476Y-82183321D01*
X175040476Y-82183321D02*
X175016666Y-82111892D01*
X175016666Y-82111892D02*
X174992857Y-81969035D01*
X174992857Y-81969035D02*
X174992857Y-81861892D01*
X174992857Y-81861892D02*
X175016666Y-81719035D01*
X175016666Y-81719035D02*
X175040476Y-81647607D01*
X175040476Y-81647607D02*
X175088095Y-81576178D01*
X175088095Y-81576178D02*
X175159523Y-81540464D01*
X175159523Y-81540464D02*
X175207142Y-81540464D01*
X175207142Y-81540464D02*
X175278571Y-81576178D01*
X175278571Y-81576178D02*
X175302380Y-81611892D01*
X175611904Y-81540464D02*
X175707142Y-81540464D01*
X175707142Y-81540464D02*
X175754761Y-81576178D01*
X175754761Y-81576178D02*
X175802380Y-81647607D01*
X175802380Y-81647607D02*
X175826190Y-81790464D01*
X175826190Y-81790464D02*
X175826190Y-82040464D01*
X175826190Y-82040464D02*
X175802380Y-82183321D01*
X175802380Y-82183321D02*
X175754761Y-82254750D01*
X175754761Y-82254750D02*
X175707142Y-82290464D01*
X175707142Y-82290464D02*
X175611904Y-82290464D01*
X175611904Y-82290464D02*
X175564285Y-82254750D01*
X175564285Y-82254750D02*
X175516666Y-82183321D01*
X175516666Y-82183321D02*
X175492857Y-82040464D01*
X175492857Y-82040464D02*
X175492857Y-81790464D01*
X175492857Y-81790464D02*
X175516666Y-81647607D01*
X175516666Y-81647607D02*
X175564285Y-81576178D01*
X175564285Y-81576178D02*
X175611904Y-81540464D01*
X176278571Y-82290464D02*
X176040476Y-82290464D01*
X176040476Y-82290464D02*
X176040476Y-81540464D01*
X176540476Y-81540464D02*
X176588095Y-81540464D01*
X176588095Y-81540464D02*
X176635714Y-81576178D01*
X176635714Y-81576178D02*
X176659524Y-81611892D01*
X176659524Y-81611892D02*
X176683333Y-81683321D01*
X176683333Y-81683321D02*
X176707143Y-81826178D01*
X176707143Y-81826178D02*
X176707143Y-82004750D01*
X176707143Y-82004750D02*
X176683333Y-82147607D01*
X176683333Y-82147607D02*
X176659524Y-82219035D01*
X176659524Y-82219035D02*
X176635714Y-82254750D01*
X176635714Y-82254750D02*
X176588095Y-82290464D01*
X176588095Y-82290464D02*
X176540476Y-82290464D01*
X176540476Y-82290464D02*
X176492857Y-82254750D01*
X176492857Y-82254750D02*
X176469048Y-82219035D01*
X176469048Y-82219035D02*
X176445238Y-82147607D01*
X176445238Y-82147607D02*
X176421429Y-82004750D01*
X176421429Y-82004750D02*
X176421429Y-81826178D01*
X176421429Y-81826178D02*
X176445238Y-81683321D01*
X176445238Y-81683321D02*
X176469048Y-81611892D01*
X176469048Y-81611892D02*
X176492857Y-81576178D01*
X176492857Y-81576178D02*
X176540476Y-81540464D01*
X190319047Y-87390464D02*
X190152381Y-87033321D01*
X190033333Y-87390464D02*
X190033333Y-86640464D01*
X190033333Y-86640464D02*
X190223809Y-86640464D01*
X190223809Y-86640464D02*
X190271428Y-86676178D01*
X190271428Y-86676178D02*
X190295238Y-86711892D01*
X190295238Y-86711892D02*
X190319047Y-86783321D01*
X190319047Y-86783321D02*
X190319047Y-86890464D01*
X190319047Y-86890464D02*
X190295238Y-86961892D01*
X190295238Y-86961892D02*
X190271428Y-86997607D01*
X190271428Y-86997607D02*
X190223809Y-87033321D01*
X190223809Y-87033321D02*
X190033333Y-87033321D01*
X190628571Y-86640464D02*
X190723809Y-86640464D01*
X190723809Y-86640464D02*
X190771428Y-86676178D01*
X190771428Y-86676178D02*
X190819047Y-86747607D01*
X190819047Y-86747607D02*
X190842857Y-86890464D01*
X190842857Y-86890464D02*
X190842857Y-87140464D01*
X190842857Y-87140464D02*
X190819047Y-87283321D01*
X190819047Y-87283321D02*
X190771428Y-87354750D01*
X190771428Y-87354750D02*
X190723809Y-87390464D01*
X190723809Y-87390464D02*
X190628571Y-87390464D01*
X190628571Y-87390464D02*
X190580952Y-87354750D01*
X190580952Y-87354750D02*
X190533333Y-87283321D01*
X190533333Y-87283321D02*
X190509524Y-87140464D01*
X190509524Y-87140464D02*
X190509524Y-86890464D01*
X190509524Y-86890464D02*
X190533333Y-86747607D01*
X190533333Y-86747607D02*
X190580952Y-86676178D01*
X190580952Y-86676178D02*
X190628571Y-86640464D01*
X191009524Y-86640464D02*
X191128572Y-87390464D01*
X191128572Y-87390464D02*
X191223810Y-86854750D01*
X191223810Y-86854750D02*
X191319048Y-87390464D01*
X191319048Y-87390464D02*
X191438096Y-86640464D01*
X191723810Y-86640464D02*
X191771429Y-86640464D01*
X191771429Y-86640464D02*
X191819048Y-86676178D01*
X191819048Y-86676178D02*
X191842858Y-86711892D01*
X191842858Y-86711892D02*
X191866667Y-86783321D01*
X191866667Y-86783321D02*
X191890477Y-86926178D01*
X191890477Y-86926178D02*
X191890477Y-87104750D01*
X191890477Y-87104750D02*
X191866667Y-87247607D01*
X191866667Y-87247607D02*
X191842858Y-87319035D01*
X191842858Y-87319035D02*
X191819048Y-87354750D01*
X191819048Y-87354750D02*
X191771429Y-87390464D01*
X191771429Y-87390464D02*
X191723810Y-87390464D01*
X191723810Y-87390464D02*
X191676191Y-87354750D01*
X191676191Y-87354750D02*
X191652382Y-87319035D01*
X191652382Y-87319035D02*
X191628572Y-87247607D01*
X191628572Y-87247607D02*
X191604763Y-87104750D01*
X191604763Y-87104750D02*
X191604763Y-86926178D01*
X191604763Y-86926178D02*
X191628572Y-86783321D01*
X191628572Y-86783321D02*
X191652382Y-86711892D01*
X191652382Y-86711892D02*
X191676191Y-86676178D01*
X191676191Y-86676178D02*
X191723810Y-86640464D01*
X175689261Y-72112464D02*
X175522595Y-71755321D01*
X175403547Y-72112464D02*
X175403547Y-71362464D01*
X175403547Y-71362464D02*
X175594023Y-71362464D01*
X175594023Y-71362464D02*
X175641642Y-71398178D01*
X175641642Y-71398178D02*
X175665452Y-71433892D01*
X175665452Y-71433892D02*
X175689261Y-71505321D01*
X175689261Y-71505321D02*
X175689261Y-71612464D01*
X175689261Y-71612464D02*
X175665452Y-71683892D01*
X175665452Y-71683892D02*
X175641642Y-71719607D01*
X175641642Y-71719607D02*
X175594023Y-71755321D01*
X175594023Y-71755321D02*
X175403547Y-71755321D01*
X175879738Y-71898178D02*
X176117833Y-71898178D01*
X175832119Y-72112464D02*
X175998785Y-71362464D01*
X175998785Y-71362464D02*
X176165452Y-72112464D01*
X176284499Y-71362464D02*
X176403547Y-72112464D01*
X176403547Y-72112464D02*
X176498785Y-71576750D01*
X176498785Y-71576750D02*
X176594023Y-72112464D01*
X176594023Y-72112464D02*
X176713071Y-71362464D01*
X175302380Y-87281035D02*
X175278571Y-87316750D01*
X175278571Y-87316750D02*
X175207142Y-87352464D01*
X175207142Y-87352464D02*
X175159523Y-87352464D01*
X175159523Y-87352464D02*
X175088095Y-87316750D01*
X175088095Y-87316750D02*
X175040476Y-87245321D01*
X175040476Y-87245321D02*
X175016666Y-87173892D01*
X175016666Y-87173892D02*
X174992857Y-87031035D01*
X174992857Y-87031035D02*
X174992857Y-86923892D01*
X174992857Y-86923892D02*
X175016666Y-86781035D01*
X175016666Y-86781035D02*
X175040476Y-86709607D01*
X175040476Y-86709607D02*
X175088095Y-86638178D01*
X175088095Y-86638178D02*
X175159523Y-86602464D01*
X175159523Y-86602464D02*
X175207142Y-86602464D01*
X175207142Y-86602464D02*
X175278571Y-86638178D01*
X175278571Y-86638178D02*
X175302380Y-86673892D01*
X175611904Y-86602464D02*
X175707142Y-86602464D01*
X175707142Y-86602464D02*
X175754761Y-86638178D01*
X175754761Y-86638178D02*
X175802380Y-86709607D01*
X175802380Y-86709607D02*
X175826190Y-86852464D01*
X175826190Y-86852464D02*
X175826190Y-87102464D01*
X175826190Y-87102464D02*
X175802380Y-87245321D01*
X175802380Y-87245321D02*
X175754761Y-87316750D01*
X175754761Y-87316750D02*
X175707142Y-87352464D01*
X175707142Y-87352464D02*
X175611904Y-87352464D01*
X175611904Y-87352464D02*
X175564285Y-87316750D01*
X175564285Y-87316750D02*
X175516666Y-87245321D01*
X175516666Y-87245321D02*
X175492857Y-87102464D01*
X175492857Y-87102464D02*
X175492857Y-86852464D01*
X175492857Y-86852464D02*
X175516666Y-86709607D01*
X175516666Y-86709607D02*
X175564285Y-86638178D01*
X175564285Y-86638178D02*
X175611904Y-86602464D01*
X176278571Y-87352464D02*
X176040476Y-87352464D01*
X176040476Y-87352464D02*
X176040476Y-86602464D01*
X176421429Y-86673892D02*
X176445238Y-86638178D01*
X176445238Y-86638178D02*
X176492857Y-86602464D01*
X176492857Y-86602464D02*
X176611905Y-86602464D01*
X176611905Y-86602464D02*
X176659524Y-86638178D01*
X176659524Y-86638178D02*
X176683333Y-86673892D01*
X176683333Y-86673892D02*
X176707143Y-86745321D01*
X176707143Y-86745321D02*
X176707143Y-86816750D01*
X176707143Y-86816750D02*
X176683333Y-86923892D01*
X176683333Y-86923892D02*
X176397619Y-87352464D01*
X176397619Y-87352464D02*
X176707143Y-87352464D01*
X190319047Y-92440464D02*
X190152381Y-92083321D01*
X190033333Y-92440464D02*
X190033333Y-91690464D01*
X190033333Y-91690464D02*
X190223809Y-91690464D01*
X190223809Y-91690464D02*
X190271428Y-91726178D01*
X190271428Y-91726178D02*
X190295238Y-91761892D01*
X190295238Y-91761892D02*
X190319047Y-91833321D01*
X190319047Y-91833321D02*
X190319047Y-91940464D01*
X190319047Y-91940464D02*
X190295238Y-92011892D01*
X190295238Y-92011892D02*
X190271428Y-92047607D01*
X190271428Y-92047607D02*
X190223809Y-92083321D01*
X190223809Y-92083321D02*
X190033333Y-92083321D01*
X190628571Y-91690464D02*
X190723809Y-91690464D01*
X190723809Y-91690464D02*
X190771428Y-91726178D01*
X190771428Y-91726178D02*
X190819047Y-91797607D01*
X190819047Y-91797607D02*
X190842857Y-91940464D01*
X190842857Y-91940464D02*
X190842857Y-92190464D01*
X190842857Y-92190464D02*
X190819047Y-92333321D01*
X190819047Y-92333321D02*
X190771428Y-92404750D01*
X190771428Y-92404750D02*
X190723809Y-92440464D01*
X190723809Y-92440464D02*
X190628571Y-92440464D01*
X190628571Y-92440464D02*
X190580952Y-92404750D01*
X190580952Y-92404750D02*
X190533333Y-92333321D01*
X190533333Y-92333321D02*
X190509524Y-92190464D01*
X190509524Y-92190464D02*
X190509524Y-91940464D01*
X190509524Y-91940464D02*
X190533333Y-91797607D01*
X190533333Y-91797607D02*
X190580952Y-91726178D01*
X190580952Y-91726178D02*
X190628571Y-91690464D01*
X191009524Y-91690464D02*
X191128572Y-92440464D01*
X191128572Y-92440464D02*
X191223810Y-91904750D01*
X191223810Y-91904750D02*
X191319048Y-92440464D01*
X191319048Y-92440464D02*
X191438096Y-91690464D01*
X191604763Y-91761892D02*
X191628572Y-91726178D01*
X191628572Y-91726178D02*
X191676191Y-91690464D01*
X191676191Y-91690464D02*
X191795239Y-91690464D01*
X191795239Y-91690464D02*
X191842858Y-91726178D01*
X191842858Y-91726178D02*
X191866667Y-91761892D01*
X191866667Y-91761892D02*
X191890477Y-91833321D01*
X191890477Y-91833321D02*
X191890477Y-91904750D01*
X191890477Y-91904750D02*
X191866667Y-92011892D01*
X191866667Y-92011892D02*
X191580953Y-92440464D01*
X191580953Y-92440464D02*
X191890477Y-92440464D01*
X175252380Y-92369035D02*
X175228571Y-92404750D01*
X175228571Y-92404750D02*
X175157142Y-92440464D01*
X175157142Y-92440464D02*
X175109523Y-92440464D01*
X175109523Y-92440464D02*
X175038095Y-92404750D01*
X175038095Y-92404750D02*
X174990476Y-92333321D01*
X174990476Y-92333321D02*
X174966666Y-92261892D01*
X174966666Y-92261892D02*
X174942857Y-92119035D01*
X174942857Y-92119035D02*
X174942857Y-92011892D01*
X174942857Y-92011892D02*
X174966666Y-91869035D01*
X174966666Y-91869035D02*
X174990476Y-91797607D01*
X174990476Y-91797607D02*
X175038095Y-91726178D01*
X175038095Y-91726178D02*
X175109523Y-91690464D01*
X175109523Y-91690464D02*
X175157142Y-91690464D01*
X175157142Y-91690464D02*
X175228571Y-91726178D01*
X175228571Y-91726178D02*
X175252380Y-91761892D01*
X175561904Y-91690464D02*
X175657142Y-91690464D01*
X175657142Y-91690464D02*
X175704761Y-91726178D01*
X175704761Y-91726178D02*
X175752380Y-91797607D01*
X175752380Y-91797607D02*
X175776190Y-91940464D01*
X175776190Y-91940464D02*
X175776190Y-92190464D01*
X175776190Y-92190464D02*
X175752380Y-92333321D01*
X175752380Y-92333321D02*
X175704761Y-92404750D01*
X175704761Y-92404750D02*
X175657142Y-92440464D01*
X175657142Y-92440464D02*
X175561904Y-92440464D01*
X175561904Y-92440464D02*
X175514285Y-92404750D01*
X175514285Y-92404750D02*
X175466666Y-92333321D01*
X175466666Y-92333321D02*
X175442857Y-92190464D01*
X175442857Y-92190464D02*
X175442857Y-91940464D01*
X175442857Y-91940464D02*
X175466666Y-91797607D01*
X175466666Y-91797607D02*
X175514285Y-91726178D01*
X175514285Y-91726178D02*
X175561904Y-91690464D01*
X176228571Y-92440464D02*
X175990476Y-92440464D01*
X175990476Y-92440464D02*
X175990476Y-91690464D01*
X176609524Y-91940464D02*
X176609524Y-92440464D01*
X176490476Y-91654750D02*
X176371429Y-92190464D01*
X176371429Y-92190464D02*
X176680952Y-92190464D01*
X190893547Y-76541678D02*
X190845928Y-76505964D01*
X190845928Y-76505964D02*
X190774499Y-76505964D01*
X190774499Y-76505964D02*
X190703071Y-76541678D01*
X190703071Y-76541678D02*
X190655452Y-76613107D01*
X190655452Y-76613107D02*
X190631642Y-76684535D01*
X190631642Y-76684535D02*
X190607833Y-76827392D01*
X190607833Y-76827392D02*
X190607833Y-76934535D01*
X190607833Y-76934535D02*
X190631642Y-77077392D01*
X190631642Y-77077392D02*
X190655452Y-77148821D01*
X190655452Y-77148821D02*
X190703071Y-77220250D01*
X190703071Y-77220250D02*
X190774499Y-77255964D01*
X190774499Y-77255964D02*
X190822118Y-77255964D01*
X190822118Y-77255964D02*
X190893547Y-77220250D01*
X190893547Y-77220250D02*
X190917356Y-77184535D01*
X190917356Y-77184535D02*
X190917356Y-76934535D01*
X190917356Y-76934535D02*
X190822118Y-76934535D01*
X191131642Y-77255964D02*
X191131642Y-76505964D01*
X191131642Y-76505964D02*
X191417356Y-77255964D01*
X191417356Y-77255964D02*
X191417356Y-76505964D01*
X191655452Y-77255964D02*
X191655452Y-76505964D01*
X191655452Y-76505964D02*
X191774500Y-76505964D01*
X191774500Y-76505964D02*
X191845928Y-76541678D01*
X191845928Y-76541678D02*
X191893547Y-76613107D01*
X191893547Y-76613107D02*
X191917357Y-76684535D01*
X191917357Y-76684535D02*
X191941166Y-76827392D01*
X191941166Y-76827392D02*
X191941166Y-76934535D01*
X191941166Y-76934535D02*
X191917357Y-77077392D01*
X191917357Y-77077392D02*
X191893547Y-77148821D01*
X191893547Y-77148821D02*
X191845928Y-77220250D01*
X191845928Y-77220250D02*
X191774500Y-77255964D01*
X191774500Y-77255964D02*
X191655452Y-77255964D01*
X190747619Y-99723107D02*
X190819047Y-99758821D01*
X190819047Y-99758821D02*
X190842857Y-99794535D01*
X190842857Y-99794535D02*
X190866666Y-99865964D01*
X190866666Y-99865964D02*
X190866666Y-99973107D01*
X190866666Y-99973107D02*
X190842857Y-100044535D01*
X190842857Y-100044535D02*
X190819047Y-100080250D01*
X190819047Y-100080250D02*
X190771428Y-100115964D01*
X190771428Y-100115964D02*
X190580952Y-100115964D01*
X190580952Y-100115964D02*
X190580952Y-99365964D01*
X190580952Y-99365964D02*
X190747619Y-99365964D01*
X190747619Y-99365964D02*
X190795238Y-99401678D01*
X190795238Y-99401678D02*
X190819047Y-99437392D01*
X190819047Y-99437392D02*
X190842857Y-99508821D01*
X190842857Y-99508821D02*
X190842857Y-99580250D01*
X190842857Y-99580250D02*
X190819047Y-99651678D01*
X190819047Y-99651678D02*
X190795238Y-99687392D01*
X190795238Y-99687392D02*
X190747619Y-99723107D01*
X190747619Y-99723107D02*
X190580952Y-99723107D01*
X191319047Y-99365964D02*
X191080952Y-99365964D01*
X191080952Y-99365964D02*
X191057143Y-99723107D01*
X191057143Y-99723107D02*
X191080952Y-99687392D01*
X191080952Y-99687392D02*
X191128571Y-99651678D01*
X191128571Y-99651678D02*
X191247619Y-99651678D01*
X191247619Y-99651678D02*
X191295238Y-99687392D01*
X191295238Y-99687392D02*
X191319047Y-99723107D01*
X191319047Y-99723107D02*
X191342857Y-99794535D01*
X191342857Y-99794535D02*
X191342857Y-99973107D01*
X191342857Y-99973107D02*
X191319047Y-100044535D01*
X191319047Y-100044535D02*
X191295238Y-100080250D01*
X191295238Y-100080250D02*
X191247619Y-100115964D01*
X191247619Y-100115964D02*
X191128571Y-100115964D01*
X191128571Y-100115964D02*
X191080952Y-100080250D01*
X191080952Y-100080250D02*
X191057143Y-100044535D01*
X175497619Y-99697607D02*
X175569047Y-99733321D01*
X175569047Y-99733321D02*
X175592857Y-99769035D01*
X175592857Y-99769035D02*
X175616666Y-99840464D01*
X175616666Y-99840464D02*
X175616666Y-99947607D01*
X175616666Y-99947607D02*
X175592857Y-100019035D01*
X175592857Y-100019035D02*
X175569047Y-100054750D01*
X175569047Y-100054750D02*
X175521428Y-100090464D01*
X175521428Y-100090464D02*
X175330952Y-100090464D01*
X175330952Y-100090464D02*
X175330952Y-99340464D01*
X175330952Y-99340464D02*
X175497619Y-99340464D01*
X175497619Y-99340464D02*
X175545238Y-99376178D01*
X175545238Y-99376178D02*
X175569047Y-99411892D01*
X175569047Y-99411892D02*
X175592857Y-99483321D01*
X175592857Y-99483321D02*
X175592857Y-99554750D01*
X175592857Y-99554750D02*
X175569047Y-99626178D01*
X175569047Y-99626178D02*
X175545238Y-99661892D01*
X175545238Y-99661892D02*
X175497619Y-99697607D01*
X175497619Y-99697607D02*
X175330952Y-99697607D01*
X176045238Y-99340464D02*
X175950000Y-99340464D01*
X175950000Y-99340464D02*
X175902381Y-99376178D01*
X175902381Y-99376178D02*
X175878571Y-99411892D01*
X175878571Y-99411892D02*
X175830952Y-99519035D01*
X175830952Y-99519035D02*
X175807143Y-99661892D01*
X175807143Y-99661892D02*
X175807143Y-99947607D01*
X175807143Y-99947607D02*
X175830952Y-100019035D01*
X175830952Y-100019035D02*
X175854762Y-100054750D01*
X175854762Y-100054750D02*
X175902381Y-100090464D01*
X175902381Y-100090464D02*
X175997619Y-100090464D01*
X175997619Y-100090464D02*
X176045238Y-100054750D01*
X176045238Y-100054750D02*
X176069047Y-100019035D01*
X176069047Y-100019035D02*
X176092857Y-99947607D01*
X176092857Y-99947607D02*
X176092857Y-99769035D01*
X176092857Y-99769035D02*
X176069047Y-99697607D01*
X176069047Y-99697607D02*
X176045238Y-99661892D01*
X176045238Y-99661892D02*
X175997619Y-99626178D01*
X175997619Y-99626178D02*
X175902381Y-99626178D01*
X175902381Y-99626178D02*
X175854762Y-99661892D01*
X175854762Y-99661892D02*
X175830952Y-99697607D01*
X175830952Y-99697607D02*
X175807143Y-99769035D01*
X190747619Y-97119607D02*
X190819047Y-97155321D01*
X190819047Y-97155321D02*
X190842857Y-97191035D01*
X190842857Y-97191035D02*
X190866666Y-97262464D01*
X190866666Y-97262464D02*
X190866666Y-97369607D01*
X190866666Y-97369607D02*
X190842857Y-97441035D01*
X190842857Y-97441035D02*
X190819047Y-97476750D01*
X190819047Y-97476750D02*
X190771428Y-97512464D01*
X190771428Y-97512464D02*
X190580952Y-97512464D01*
X190580952Y-97512464D02*
X190580952Y-96762464D01*
X190580952Y-96762464D02*
X190747619Y-96762464D01*
X190747619Y-96762464D02*
X190795238Y-96798178D01*
X190795238Y-96798178D02*
X190819047Y-96833892D01*
X190819047Y-96833892D02*
X190842857Y-96905321D01*
X190842857Y-96905321D02*
X190842857Y-96976750D01*
X190842857Y-96976750D02*
X190819047Y-97048178D01*
X190819047Y-97048178D02*
X190795238Y-97083892D01*
X190795238Y-97083892D02*
X190747619Y-97119607D01*
X190747619Y-97119607D02*
X190580952Y-97119607D01*
X191295238Y-97012464D02*
X191295238Y-97512464D01*
X191176190Y-96726750D02*
X191057143Y-97262464D01*
X191057143Y-97262464D02*
X191366666Y-97262464D01*
X175597619Y-97147607D02*
X175669047Y-97183321D01*
X175669047Y-97183321D02*
X175692857Y-97219035D01*
X175692857Y-97219035D02*
X175716666Y-97290464D01*
X175716666Y-97290464D02*
X175716666Y-97397607D01*
X175716666Y-97397607D02*
X175692857Y-97469035D01*
X175692857Y-97469035D02*
X175669047Y-97504750D01*
X175669047Y-97504750D02*
X175621428Y-97540464D01*
X175621428Y-97540464D02*
X175430952Y-97540464D01*
X175430952Y-97540464D02*
X175430952Y-96790464D01*
X175430952Y-96790464D02*
X175597619Y-96790464D01*
X175597619Y-96790464D02*
X175645238Y-96826178D01*
X175645238Y-96826178D02*
X175669047Y-96861892D01*
X175669047Y-96861892D02*
X175692857Y-96933321D01*
X175692857Y-96933321D02*
X175692857Y-97004750D01*
X175692857Y-97004750D02*
X175669047Y-97076178D01*
X175669047Y-97076178D02*
X175645238Y-97111892D01*
X175645238Y-97111892D02*
X175597619Y-97147607D01*
X175597619Y-97147607D02*
X175430952Y-97147607D01*
X175907143Y-96861892D02*
X175930952Y-96826178D01*
X175930952Y-96826178D02*
X175978571Y-96790464D01*
X175978571Y-96790464D02*
X176097619Y-96790464D01*
X176097619Y-96790464D02*
X176145238Y-96826178D01*
X176145238Y-96826178D02*
X176169047Y-96861892D01*
X176169047Y-96861892D02*
X176192857Y-96933321D01*
X176192857Y-96933321D02*
X176192857Y-97004750D01*
X176192857Y-97004750D02*
X176169047Y-97111892D01*
X176169047Y-97111892D02*
X175883333Y-97540464D01*
X175883333Y-97540464D02*
X176192857Y-97540464D01*
X190615762Y-84776750D02*
X190687190Y-84812464D01*
X190687190Y-84812464D02*
X190806238Y-84812464D01*
X190806238Y-84812464D02*
X190853857Y-84776750D01*
X190853857Y-84776750D02*
X190877666Y-84741035D01*
X190877666Y-84741035D02*
X190901476Y-84669607D01*
X190901476Y-84669607D02*
X190901476Y-84598178D01*
X190901476Y-84598178D02*
X190877666Y-84526750D01*
X190877666Y-84526750D02*
X190853857Y-84491035D01*
X190853857Y-84491035D02*
X190806238Y-84455321D01*
X190806238Y-84455321D02*
X190711000Y-84419607D01*
X190711000Y-84419607D02*
X190663381Y-84383892D01*
X190663381Y-84383892D02*
X190639571Y-84348178D01*
X190639571Y-84348178D02*
X190615762Y-84276750D01*
X190615762Y-84276750D02*
X190615762Y-84205321D01*
X190615762Y-84205321D02*
X190639571Y-84133892D01*
X190639571Y-84133892D02*
X190663381Y-84098178D01*
X190663381Y-84098178D02*
X190711000Y-84062464D01*
X190711000Y-84062464D02*
X190830047Y-84062464D01*
X190830047Y-84062464D02*
X190901476Y-84098178D01*
X191401475Y-84741035D02*
X191377666Y-84776750D01*
X191377666Y-84776750D02*
X191306237Y-84812464D01*
X191306237Y-84812464D02*
X191258618Y-84812464D01*
X191258618Y-84812464D02*
X191187190Y-84776750D01*
X191187190Y-84776750D02*
X191139571Y-84705321D01*
X191139571Y-84705321D02*
X191115761Y-84633892D01*
X191115761Y-84633892D02*
X191091952Y-84491035D01*
X191091952Y-84491035D02*
X191091952Y-84383892D01*
X191091952Y-84383892D02*
X191115761Y-84241035D01*
X191115761Y-84241035D02*
X191139571Y-84169607D01*
X191139571Y-84169607D02*
X191187190Y-84098178D01*
X191187190Y-84098178D02*
X191258618Y-84062464D01*
X191258618Y-84062464D02*
X191306237Y-84062464D01*
X191306237Y-84062464D02*
X191377666Y-84098178D01*
X191377666Y-84098178D02*
X191401475Y-84133892D01*
X191853856Y-84812464D02*
X191615761Y-84812464D01*
X191615761Y-84812464D02*
X191615761Y-84062464D01*
X190928571Y-72112464D02*
X190690476Y-72112464D01*
X190690476Y-72112464D02*
X190690476Y-71362464D01*
X191095238Y-71719607D02*
X191261905Y-71719607D01*
X191333333Y-72112464D02*
X191095238Y-72112464D01*
X191095238Y-72112464D02*
X191095238Y-71362464D01*
X191095238Y-71362464D02*
X191333333Y-71362464D01*
X191547619Y-72112464D02*
X191547619Y-71362464D01*
X191547619Y-71362464D02*
X191666667Y-71362464D01*
X191666667Y-71362464D02*
X191738095Y-71398178D01*
X191738095Y-71398178D02*
X191785714Y-71469607D01*
X191785714Y-71469607D02*
X191809524Y-71541035D01*
X191809524Y-71541035D02*
X191833333Y-71683892D01*
X191833333Y-71683892D02*
X191833333Y-71791035D01*
X191833333Y-71791035D02*
X191809524Y-71933892D01*
X191809524Y-71933892D02*
X191785714Y-72005321D01*
X191785714Y-72005321D02*
X191738095Y-72076750D01*
X191738095Y-72076750D02*
X191666667Y-72112464D01*
X191666667Y-72112464D02*
X191547619Y-72112464D01*
X175367834Y-78982464D02*
X175534500Y-79732464D01*
X175534500Y-79732464D02*
X175701167Y-78982464D01*
X176153547Y-79661035D02*
X176129738Y-79696750D01*
X176129738Y-79696750D02*
X176058309Y-79732464D01*
X176058309Y-79732464D02*
X176010690Y-79732464D01*
X176010690Y-79732464D02*
X175939262Y-79696750D01*
X175939262Y-79696750D02*
X175891643Y-79625321D01*
X175891643Y-79625321D02*
X175867833Y-79553892D01*
X175867833Y-79553892D02*
X175844024Y-79411035D01*
X175844024Y-79411035D02*
X175844024Y-79303892D01*
X175844024Y-79303892D02*
X175867833Y-79161035D01*
X175867833Y-79161035D02*
X175891643Y-79089607D01*
X175891643Y-79089607D02*
X175939262Y-79018178D01*
X175939262Y-79018178D02*
X176010690Y-78982464D01*
X176010690Y-78982464D02*
X176058309Y-78982464D01*
X176058309Y-78982464D02*
X176129738Y-79018178D01*
X176129738Y-79018178D02*
X176153547Y-79053892D01*
X176653547Y-79661035D02*
X176629738Y-79696750D01*
X176629738Y-79696750D02*
X176558309Y-79732464D01*
X176558309Y-79732464D02*
X176510690Y-79732464D01*
X176510690Y-79732464D02*
X176439262Y-79696750D01*
X176439262Y-79696750D02*
X176391643Y-79625321D01*
X176391643Y-79625321D02*
X176367833Y-79553892D01*
X176367833Y-79553892D02*
X176344024Y-79411035D01*
X176344024Y-79411035D02*
X176344024Y-79303892D01*
X176344024Y-79303892D02*
X176367833Y-79161035D01*
X176367833Y-79161035D02*
X176391643Y-79089607D01*
X176391643Y-79089607D02*
X176439262Y-79018178D01*
X176439262Y-79018178D02*
X176510690Y-78982464D01*
X176510690Y-78982464D02*
X176558309Y-78982464D01*
X176558309Y-78982464D02*
X176629738Y-79018178D01*
X176629738Y-79018178D02*
X176653547Y-79053892D01*
X190319047Y-95035964D02*
X190152381Y-94678821D01*
X190033333Y-95035964D02*
X190033333Y-94285964D01*
X190033333Y-94285964D02*
X190223809Y-94285964D01*
X190223809Y-94285964D02*
X190271428Y-94321678D01*
X190271428Y-94321678D02*
X190295238Y-94357392D01*
X190295238Y-94357392D02*
X190319047Y-94428821D01*
X190319047Y-94428821D02*
X190319047Y-94535964D01*
X190319047Y-94535964D02*
X190295238Y-94607392D01*
X190295238Y-94607392D02*
X190271428Y-94643107D01*
X190271428Y-94643107D02*
X190223809Y-94678821D01*
X190223809Y-94678821D02*
X190033333Y-94678821D01*
X190628571Y-94285964D02*
X190723809Y-94285964D01*
X190723809Y-94285964D02*
X190771428Y-94321678D01*
X190771428Y-94321678D02*
X190819047Y-94393107D01*
X190819047Y-94393107D02*
X190842857Y-94535964D01*
X190842857Y-94535964D02*
X190842857Y-94785964D01*
X190842857Y-94785964D02*
X190819047Y-94928821D01*
X190819047Y-94928821D02*
X190771428Y-95000250D01*
X190771428Y-95000250D02*
X190723809Y-95035964D01*
X190723809Y-95035964D02*
X190628571Y-95035964D01*
X190628571Y-95035964D02*
X190580952Y-95000250D01*
X190580952Y-95000250D02*
X190533333Y-94928821D01*
X190533333Y-94928821D02*
X190509524Y-94785964D01*
X190509524Y-94785964D02*
X190509524Y-94535964D01*
X190509524Y-94535964D02*
X190533333Y-94393107D01*
X190533333Y-94393107D02*
X190580952Y-94321678D01*
X190580952Y-94321678D02*
X190628571Y-94285964D01*
X191009524Y-94285964D02*
X191128572Y-95035964D01*
X191128572Y-95035964D02*
X191223810Y-94500250D01*
X191223810Y-94500250D02*
X191319048Y-95035964D01*
X191319048Y-95035964D02*
X191438096Y-94285964D01*
X191580953Y-94285964D02*
X191890477Y-94285964D01*
X191890477Y-94285964D02*
X191723810Y-94571678D01*
X191723810Y-94571678D02*
X191795239Y-94571678D01*
X191795239Y-94571678D02*
X191842858Y-94607392D01*
X191842858Y-94607392D02*
X191866667Y-94643107D01*
X191866667Y-94643107D02*
X191890477Y-94714535D01*
X191890477Y-94714535D02*
X191890477Y-94893107D01*
X191890477Y-94893107D02*
X191866667Y-94964535D01*
X191866667Y-94964535D02*
X191842858Y-95000250D01*
X191842858Y-95000250D02*
X191795239Y-95035964D01*
X191795239Y-95035964D02*
X191652382Y-95035964D01*
X191652382Y-95035964D02*
X191604763Y-95000250D01*
X191604763Y-95000250D02*
X191580953Y-94964535D01*
X190603858Y-82236750D02*
X190675286Y-82272464D01*
X190675286Y-82272464D02*
X190794334Y-82272464D01*
X190794334Y-82272464D02*
X190841953Y-82236750D01*
X190841953Y-82236750D02*
X190865762Y-82201035D01*
X190865762Y-82201035D02*
X190889572Y-82129607D01*
X190889572Y-82129607D02*
X190889572Y-82058178D01*
X190889572Y-82058178D02*
X190865762Y-81986750D01*
X190865762Y-81986750D02*
X190841953Y-81951035D01*
X190841953Y-81951035D02*
X190794334Y-81915321D01*
X190794334Y-81915321D02*
X190699096Y-81879607D01*
X190699096Y-81879607D02*
X190651477Y-81843892D01*
X190651477Y-81843892D02*
X190627667Y-81808178D01*
X190627667Y-81808178D02*
X190603858Y-81736750D01*
X190603858Y-81736750D02*
X190603858Y-81665321D01*
X190603858Y-81665321D02*
X190627667Y-81593892D01*
X190627667Y-81593892D02*
X190651477Y-81558178D01*
X190651477Y-81558178D02*
X190699096Y-81522464D01*
X190699096Y-81522464D02*
X190818143Y-81522464D01*
X190818143Y-81522464D02*
X190889572Y-81558178D01*
X191103857Y-82272464D02*
X191103857Y-81522464D01*
X191103857Y-81522464D02*
X191222905Y-81522464D01*
X191222905Y-81522464D02*
X191294333Y-81558178D01*
X191294333Y-81558178D02*
X191341952Y-81629607D01*
X191341952Y-81629607D02*
X191365762Y-81701035D01*
X191365762Y-81701035D02*
X191389571Y-81843892D01*
X191389571Y-81843892D02*
X191389571Y-81951035D01*
X191389571Y-81951035D02*
X191365762Y-82093892D01*
X191365762Y-82093892D02*
X191341952Y-82165321D01*
X191341952Y-82165321D02*
X191294333Y-82236750D01*
X191294333Y-82236750D02*
X191222905Y-82272464D01*
X191222905Y-82272464D02*
X191103857Y-82272464D01*
X191580048Y-82058178D02*
X191818143Y-82058178D01*
X191532429Y-82272464D02*
X191699095Y-81522464D01*
X191699095Y-81522464D02*
X191865762Y-82272464D01*
X175202380Y-89869035D02*
X175178571Y-89904750D01*
X175178571Y-89904750D02*
X175107142Y-89940464D01*
X175107142Y-89940464D02*
X175059523Y-89940464D01*
X175059523Y-89940464D02*
X174988095Y-89904750D01*
X174988095Y-89904750D02*
X174940476Y-89833321D01*
X174940476Y-89833321D02*
X174916666Y-89761892D01*
X174916666Y-89761892D02*
X174892857Y-89619035D01*
X174892857Y-89619035D02*
X174892857Y-89511892D01*
X174892857Y-89511892D02*
X174916666Y-89369035D01*
X174916666Y-89369035D02*
X174940476Y-89297607D01*
X174940476Y-89297607D02*
X174988095Y-89226178D01*
X174988095Y-89226178D02*
X175059523Y-89190464D01*
X175059523Y-89190464D02*
X175107142Y-89190464D01*
X175107142Y-89190464D02*
X175178571Y-89226178D01*
X175178571Y-89226178D02*
X175202380Y-89261892D01*
X175511904Y-89190464D02*
X175607142Y-89190464D01*
X175607142Y-89190464D02*
X175654761Y-89226178D01*
X175654761Y-89226178D02*
X175702380Y-89297607D01*
X175702380Y-89297607D02*
X175726190Y-89440464D01*
X175726190Y-89440464D02*
X175726190Y-89690464D01*
X175726190Y-89690464D02*
X175702380Y-89833321D01*
X175702380Y-89833321D02*
X175654761Y-89904750D01*
X175654761Y-89904750D02*
X175607142Y-89940464D01*
X175607142Y-89940464D02*
X175511904Y-89940464D01*
X175511904Y-89940464D02*
X175464285Y-89904750D01*
X175464285Y-89904750D02*
X175416666Y-89833321D01*
X175416666Y-89833321D02*
X175392857Y-89690464D01*
X175392857Y-89690464D02*
X175392857Y-89440464D01*
X175392857Y-89440464D02*
X175416666Y-89297607D01*
X175416666Y-89297607D02*
X175464285Y-89226178D01*
X175464285Y-89226178D02*
X175511904Y-89190464D01*
X176178571Y-89940464D02*
X175940476Y-89940464D01*
X175940476Y-89940464D02*
X175940476Y-89190464D01*
X176297619Y-89190464D02*
X176607143Y-89190464D01*
X176607143Y-89190464D02*
X176440476Y-89476178D01*
X176440476Y-89476178D02*
X176511905Y-89476178D01*
X176511905Y-89476178D02*
X176559524Y-89511892D01*
X176559524Y-89511892D02*
X176583333Y-89547607D01*
X176583333Y-89547607D02*
X176607143Y-89619035D01*
X176607143Y-89619035D02*
X176607143Y-89797607D01*
X176607143Y-89797607D02*
X176583333Y-89869035D01*
X176583333Y-89869035D02*
X176559524Y-89904750D01*
X176559524Y-89904750D02*
X176511905Y-89940464D01*
X176511905Y-89940464D02*
X176369048Y-89940464D01*
X176369048Y-89940464D02*
X176321429Y-89904750D01*
X176321429Y-89904750D02*
X176297619Y-89869035D01*
X175352380Y-84741035D02*
X175328571Y-84776750D01*
X175328571Y-84776750D02*
X175257142Y-84812464D01*
X175257142Y-84812464D02*
X175209523Y-84812464D01*
X175209523Y-84812464D02*
X175138095Y-84776750D01*
X175138095Y-84776750D02*
X175090476Y-84705321D01*
X175090476Y-84705321D02*
X175066666Y-84633892D01*
X175066666Y-84633892D02*
X175042857Y-84491035D01*
X175042857Y-84491035D02*
X175042857Y-84383892D01*
X175042857Y-84383892D02*
X175066666Y-84241035D01*
X175066666Y-84241035D02*
X175090476Y-84169607D01*
X175090476Y-84169607D02*
X175138095Y-84098178D01*
X175138095Y-84098178D02*
X175209523Y-84062464D01*
X175209523Y-84062464D02*
X175257142Y-84062464D01*
X175257142Y-84062464D02*
X175328571Y-84098178D01*
X175328571Y-84098178D02*
X175352380Y-84133892D01*
X175661904Y-84062464D02*
X175757142Y-84062464D01*
X175757142Y-84062464D02*
X175804761Y-84098178D01*
X175804761Y-84098178D02*
X175852380Y-84169607D01*
X175852380Y-84169607D02*
X175876190Y-84312464D01*
X175876190Y-84312464D02*
X175876190Y-84562464D01*
X175876190Y-84562464D02*
X175852380Y-84705321D01*
X175852380Y-84705321D02*
X175804761Y-84776750D01*
X175804761Y-84776750D02*
X175757142Y-84812464D01*
X175757142Y-84812464D02*
X175661904Y-84812464D01*
X175661904Y-84812464D02*
X175614285Y-84776750D01*
X175614285Y-84776750D02*
X175566666Y-84705321D01*
X175566666Y-84705321D02*
X175542857Y-84562464D01*
X175542857Y-84562464D02*
X175542857Y-84312464D01*
X175542857Y-84312464D02*
X175566666Y-84169607D01*
X175566666Y-84169607D02*
X175614285Y-84098178D01*
X175614285Y-84098178D02*
X175661904Y-84062464D01*
X176328571Y-84812464D02*
X176090476Y-84812464D01*
X176090476Y-84812464D02*
X176090476Y-84062464D01*
X176757143Y-84812464D02*
X176471429Y-84812464D01*
X176614286Y-84812464D02*
X176614286Y-84062464D01*
X176614286Y-84062464D02*
X176566667Y-84169607D01*
X176566667Y-84169607D02*
X176519048Y-84241035D01*
X176519048Y-84241035D02*
X176471429Y-84276750D01*
X175653547Y-73938178D02*
X175605928Y-73902464D01*
X175605928Y-73902464D02*
X175534499Y-73902464D01*
X175534499Y-73902464D02*
X175463071Y-73938178D01*
X175463071Y-73938178D02*
X175415452Y-74009607D01*
X175415452Y-74009607D02*
X175391642Y-74081035D01*
X175391642Y-74081035D02*
X175367833Y-74223892D01*
X175367833Y-74223892D02*
X175367833Y-74331035D01*
X175367833Y-74331035D02*
X175391642Y-74473892D01*
X175391642Y-74473892D02*
X175415452Y-74545321D01*
X175415452Y-74545321D02*
X175463071Y-74616750D01*
X175463071Y-74616750D02*
X175534499Y-74652464D01*
X175534499Y-74652464D02*
X175582118Y-74652464D01*
X175582118Y-74652464D02*
X175653547Y-74616750D01*
X175653547Y-74616750D02*
X175677356Y-74581035D01*
X175677356Y-74581035D02*
X175677356Y-74331035D01*
X175677356Y-74331035D02*
X175582118Y-74331035D01*
X175891642Y-74652464D02*
X175891642Y-73902464D01*
X175891642Y-73902464D02*
X176177356Y-74652464D01*
X176177356Y-74652464D02*
X176177356Y-73902464D01*
X176415452Y-74652464D02*
X176415452Y-73902464D01*
X176415452Y-73902464D02*
X176534500Y-73902464D01*
X176534500Y-73902464D02*
X176605928Y-73938178D01*
X176605928Y-73938178D02*
X176653547Y-74009607D01*
X176653547Y-74009607D02*
X176677357Y-74081035D01*
X176677357Y-74081035D02*
X176701166Y-74223892D01*
X176701166Y-74223892D02*
X176701166Y-74331035D01*
X176701166Y-74331035D02*
X176677357Y-74473892D01*
X176677357Y-74473892D02*
X176653547Y-74545321D01*
X176653547Y-74545321D02*
X176605928Y-74616750D01*
X176605928Y-74616750D02*
X176534500Y-74652464D01*
X176534500Y-74652464D02*
X176415452Y-74652464D01*
X175252380Y-94964535D02*
X175228571Y-95000250D01*
X175228571Y-95000250D02*
X175157142Y-95035964D01*
X175157142Y-95035964D02*
X175109523Y-95035964D01*
X175109523Y-95035964D02*
X175038095Y-95000250D01*
X175038095Y-95000250D02*
X174990476Y-94928821D01*
X174990476Y-94928821D02*
X174966666Y-94857392D01*
X174966666Y-94857392D02*
X174942857Y-94714535D01*
X174942857Y-94714535D02*
X174942857Y-94607392D01*
X174942857Y-94607392D02*
X174966666Y-94464535D01*
X174966666Y-94464535D02*
X174990476Y-94393107D01*
X174990476Y-94393107D02*
X175038095Y-94321678D01*
X175038095Y-94321678D02*
X175109523Y-94285964D01*
X175109523Y-94285964D02*
X175157142Y-94285964D01*
X175157142Y-94285964D02*
X175228571Y-94321678D01*
X175228571Y-94321678D02*
X175252380Y-94357392D01*
X175561904Y-94285964D02*
X175657142Y-94285964D01*
X175657142Y-94285964D02*
X175704761Y-94321678D01*
X175704761Y-94321678D02*
X175752380Y-94393107D01*
X175752380Y-94393107D02*
X175776190Y-94535964D01*
X175776190Y-94535964D02*
X175776190Y-94785964D01*
X175776190Y-94785964D02*
X175752380Y-94928821D01*
X175752380Y-94928821D02*
X175704761Y-95000250D01*
X175704761Y-95000250D02*
X175657142Y-95035964D01*
X175657142Y-95035964D02*
X175561904Y-95035964D01*
X175561904Y-95035964D02*
X175514285Y-95000250D01*
X175514285Y-95000250D02*
X175466666Y-94928821D01*
X175466666Y-94928821D02*
X175442857Y-94785964D01*
X175442857Y-94785964D02*
X175442857Y-94535964D01*
X175442857Y-94535964D02*
X175466666Y-94393107D01*
X175466666Y-94393107D02*
X175514285Y-94321678D01*
X175514285Y-94321678D02*
X175561904Y-94285964D01*
X176228571Y-95035964D02*
X175990476Y-95035964D01*
X175990476Y-95035964D02*
X175990476Y-94285964D01*
X176633333Y-94285964D02*
X176395238Y-94285964D01*
X176395238Y-94285964D02*
X176371429Y-94643107D01*
X176371429Y-94643107D02*
X176395238Y-94607392D01*
X176395238Y-94607392D02*
X176442857Y-94571678D01*
X176442857Y-94571678D02*
X176561905Y-94571678D01*
X176561905Y-94571678D02*
X176609524Y-94607392D01*
X176609524Y-94607392D02*
X176633333Y-94643107D01*
X176633333Y-94643107D02*
X176657143Y-94714535D01*
X176657143Y-94714535D02*
X176657143Y-94893107D01*
X176657143Y-94893107D02*
X176633333Y-94964535D01*
X176633333Y-94964535D02*
X176609524Y-95000250D01*
X176609524Y-95000250D02*
X176561905Y-95035964D01*
X176561905Y-95035964D02*
X176442857Y-95035964D01*
X176442857Y-95035964D02*
X176395238Y-95000250D01*
X176395238Y-95000250D02*
X176371429Y-94964535D01*
X190369047Y-89892464D02*
X190202381Y-89535321D01*
X190083333Y-89892464D02*
X190083333Y-89142464D01*
X190083333Y-89142464D02*
X190273809Y-89142464D01*
X190273809Y-89142464D02*
X190321428Y-89178178D01*
X190321428Y-89178178D02*
X190345238Y-89213892D01*
X190345238Y-89213892D02*
X190369047Y-89285321D01*
X190369047Y-89285321D02*
X190369047Y-89392464D01*
X190369047Y-89392464D02*
X190345238Y-89463892D01*
X190345238Y-89463892D02*
X190321428Y-89499607D01*
X190321428Y-89499607D02*
X190273809Y-89535321D01*
X190273809Y-89535321D02*
X190083333Y-89535321D01*
X190678571Y-89142464D02*
X190773809Y-89142464D01*
X190773809Y-89142464D02*
X190821428Y-89178178D01*
X190821428Y-89178178D02*
X190869047Y-89249607D01*
X190869047Y-89249607D02*
X190892857Y-89392464D01*
X190892857Y-89392464D02*
X190892857Y-89642464D01*
X190892857Y-89642464D02*
X190869047Y-89785321D01*
X190869047Y-89785321D02*
X190821428Y-89856750D01*
X190821428Y-89856750D02*
X190773809Y-89892464D01*
X190773809Y-89892464D02*
X190678571Y-89892464D01*
X190678571Y-89892464D02*
X190630952Y-89856750D01*
X190630952Y-89856750D02*
X190583333Y-89785321D01*
X190583333Y-89785321D02*
X190559524Y-89642464D01*
X190559524Y-89642464D02*
X190559524Y-89392464D01*
X190559524Y-89392464D02*
X190583333Y-89249607D01*
X190583333Y-89249607D02*
X190630952Y-89178178D01*
X190630952Y-89178178D02*
X190678571Y-89142464D01*
X191059524Y-89142464D02*
X191178572Y-89892464D01*
X191178572Y-89892464D02*
X191273810Y-89356750D01*
X191273810Y-89356750D02*
X191369048Y-89892464D01*
X191369048Y-89892464D02*
X191488096Y-89142464D01*
X191940477Y-89892464D02*
X191654763Y-89892464D01*
X191797620Y-89892464D02*
X191797620Y-89142464D01*
X191797620Y-89142464D02*
X191750001Y-89249607D01*
X191750001Y-89249607D02*
X191702382Y-89321035D01*
X191702382Y-89321035D02*
X191654763Y-89356750D01*
X190350000Y-74640464D02*
X190350000Y-73890464D01*
X190350000Y-73890464D02*
X190469048Y-73890464D01*
X190469048Y-73890464D02*
X190540476Y-73926178D01*
X190540476Y-73926178D02*
X190588095Y-73997607D01*
X190588095Y-73997607D02*
X190611905Y-74069035D01*
X190611905Y-74069035D02*
X190635714Y-74211892D01*
X190635714Y-74211892D02*
X190635714Y-74319035D01*
X190635714Y-74319035D02*
X190611905Y-74461892D01*
X190611905Y-74461892D02*
X190588095Y-74533321D01*
X190588095Y-74533321D02*
X190540476Y-74604750D01*
X190540476Y-74604750D02*
X190469048Y-74640464D01*
X190469048Y-74640464D02*
X190350000Y-74640464D01*
X190826191Y-74426178D02*
X191064286Y-74426178D01*
X190778572Y-74640464D02*
X190945238Y-73890464D01*
X190945238Y-73890464D02*
X191111905Y-74640464D01*
X191207143Y-73890464D02*
X191492857Y-73890464D01*
X191350000Y-74640464D02*
X191350000Y-73890464D01*
X191635714Y-74426178D02*
X191873809Y-74426178D01*
X191588095Y-74640464D02*
X191754761Y-73890464D01*
X191754761Y-73890464D02*
X191921428Y-74640464D01*
X190830047Y-79081678D02*
X190782428Y-79045964D01*
X190782428Y-79045964D02*
X190710999Y-79045964D01*
X190710999Y-79045964D02*
X190639571Y-79081678D01*
X190639571Y-79081678D02*
X190591952Y-79153107D01*
X190591952Y-79153107D02*
X190568142Y-79224535D01*
X190568142Y-79224535D02*
X190544333Y-79367392D01*
X190544333Y-79367392D02*
X190544333Y-79474535D01*
X190544333Y-79474535D02*
X190568142Y-79617392D01*
X190568142Y-79617392D02*
X190591952Y-79688821D01*
X190591952Y-79688821D02*
X190639571Y-79760250D01*
X190639571Y-79760250D02*
X190710999Y-79795964D01*
X190710999Y-79795964D02*
X190758618Y-79795964D01*
X190758618Y-79795964D02*
X190830047Y-79760250D01*
X190830047Y-79760250D02*
X190853856Y-79724535D01*
X190853856Y-79724535D02*
X190853856Y-79474535D01*
X190853856Y-79474535D02*
X190758618Y-79474535D01*
X191068142Y-79795964D02*
X191068142Y-79045964D01*
X191068142Y-79045964D02*
X191353856Y-79795964D01*
X191353856Y-79795964D02*
X191353856Y-79045964D01*
X191591952Y-79795964D02*
X191591952Y-79045964D01*
X191591952Y-79045964D02*
X191711000Y-79045964D01*
X191711000Y-79045964D02*
X191782428Y-79081678D01*
X191782428Y-79081678D02*
X191830047Y-79153107D01*
X191830047Y-79153107D02*
X191853857Y-79224535D01*
X191853857Y-79224535D02*
X191877666Y-79367392D01*
X191877666Y-79367392D02*
X191877666Y-79474535D01*
X191877666Y-79474535D02*
X191853857Y-79617392D01*
X191853857Y-79617392D02*
X191830047Y-79688821D01*
X191830047Y-79688821D02*
X191782428Y-79760250D01*
X191782428Y-79760250D02*
X191711000Y-79795964D01*
X191711000Y-79795964D02*
X191591952Y-79795964D01*
X175760690Y-77255964D02*
X175594024Y-76898821D01*
X175474976Y-77255964D02*
X175474976Y-76505964D01*
X175474976Y-76505964D02*
X175665452Y-76505964D01*
X175665452Y-76505964D02*
X175713071Y-76541678D01*
X175713071Y-76541678D02*
X175736881Y-76577392D01*
X175736881Y-76577392D02*
X175760690Y-76648821D01*
X175760690Y-76648821D02*
X175760690Y-76755964D01*
X175760690Y-76755964D02*
X175736881Y-76827392D01*
X175736881Y-76827392D02*
X175713071Y-76863107D01*
X175713071Y-76863107D02*
X175665452Y-76898821D01*
X175665452Y-76898821D02*
X175474976Y-76898821D01*
X175951167Y-77220250D02*
X176022595Y-77255964D01*
X176022595Y-77255964D02*
X176141643Y-77255964D01*
X176141643Y-77255964D02*
X176189262Y-77220250D01*
X176189262Y-77220250D02*
X176213071Y-77184535D01*
X176213071Y-77184535D02*
X176236881Y-77113107D01*
X176236881Y-77113107D02*
X176236881Y-77041678D01*
X176236881Y-77041678D02*
X176213071Y-76970250D01*
X176213071Y-76970250D02*
X176189262Y-76934535D01*
X176189262Y-76934535D02*
X176141643Y-76898821D01*
X176141643Y-76898821D02*
X176046405Y-76863107D01*
X176046405Y-76863107D02*
X175998786Y-76827392D01*
X175998786Y-76827392D02*
X175974976Y-76791678D01*
X175974976Y-76791678D02*
X175951167Y-76720250D01*
X175951167Y-76720250D02*
X175951167Y-76648821D01*
X175951167Y-76648821D02*
X175974976Y-76577392D01*
X175974976Y-76577392D02*
X175998786Y-76541678D01*
X175998786Y-76541678D02*
X176046405Y-76505964D01*
X176046405Y-76505964D02*
X176165452Y-76505964D01*
X176165452Y-76505964D02*
X176236881Y-76541678D01*
X176379738Y-76505964D02*
X176665452Y-76505964D01*
X176522595Y-77255964D02*
X176522595Y-76505964D01*
D12*
X181368091Y-115893446D02*
X180555291Y-115893446D01*
X181329387Y-115893446D02*
X181368091Y-115970855D01*
X181368091Y-115970855D02*
X181368091Y-116125674D01*
X181368091Y-116125674D02*
X181329387Y-116203084D01*
X181329387Y-116203084D02*
X181290682Y-116241789D01*
X181290682Y-116241789D02*
X181213272Y-116280493D01*
X181213272Y-116280493D02*
X180981044Y-116280493D01*
X180981044Y-116280493D02*
X180903634Y-116241789D01*
X180903634Y-116241789D02*
X180864929Y-116203084D01*
X180864929Y-116203084D02*
X180826225Y-116125674D01*
X180826225Y-116125674D02*
X180826225Y-115970855D01*
X180826225Y-115970855D02*
X180864929Y-115893446D01*
X181368091Y-115158056D02*
X180942339Y-115158056D01*
X180942339Y-115158056D02*
X180864929Y-115196761D01*
X180864929Y-115196761D02*
X180826225Y-115274170D01*
X180826225Y-115274170D02*
X180826225Y-115428989D01*
X180826225Y-115428989D02*
X180864929Y-115506399D01*
X181329387Y-115158056D02*
X181368091Y-115235465D01*
X181368091Y-115235465D02*
X181368091Y-115428989D01*
X181368091Y-115428989D02*
X181329387Y-115506399D01*
X181329387Y-115506399D02*
X181251977Y-115545103D01*
X181251977Y-115545103D02*
X181174567Y-115545103D01*
X181174567Y-115545103D02*
X181097158Y-115506399D01*
X181097158Y-115506399D02*
X181058453Y-115428989D01*
X181058453Y-115428989D02*
X181058453Y-115235465D01*
X181058453Y-115235465D02*
X181019748Y-115158056D01*
X180826225Y-114887123D02*
X180826225Y-114577485D01*
X180555291Y-114771009D02*
X181251977Y-114771009D01*
X181251977Y-114771009D02*
X181329387Y-114732304D01*
X181329387Y-114732304D02*
X181368091Y-114654894D01*
X181368091Y-114654894D02*
X181368091Y-114577485D01*
X181368091Y-113958209D02*
X180942339Y-113958209D01*
X180942339Y-113958209D02*
X180864929Y-113996914D01*
X180864929Y-113996914D02*
X180826225Y-114074323D01*
X180826225Y-114074323D02*
X180826225Y-114229142D01*
X180826225Y-114229142D02*
X180864929Y-114306552D01*
X181329387Y-113958209D02*
X181368091Y-114035618D01*
X181368091Y-114035618D02*
X181368091Y-114229142D01*
X181368091Y-114229142D02*
X181329387Y-114306552D01*
X181329387Y-114306552D02*
X181251977Y-114345256D01*
X181251977Y-114345256D02*
X181174567Y-114345256D01*
X181174567Y-114345256D02*
X181097158Y-114306552D01*
X181097158Y-114306552D02*
X181058453Y-114229142D01*
X181058453Y-114229142D02*
X181058453Y-114035618D01*
X181058453Y-114035618D02*
X181019748Y-113958209D01*
D11*
X183819504Y-102855416D02*
X183974323Y-102855416D01*
X183974323Y-102855416D02*
X184051733Y-102894121D01*
X184051733Y-102894121D02*
X184129142Y-102971531D01*
X184129142Y-102971531D02*
X184167847Y-103126350D01*
X184167847Y-103126350D02*
X184167847Y-103397283D01*
X184167847Y-103397283D02*
X184129142Y-103552102D01*
X184129142Y-103552102D02*
X184051733Y-103629512D01*
X184051733Y-103629512D02*
X183974323Y-103668216D01*
X183974323Y-103668216D02*
X183819504Y-103668216D01*
X183819504Y-103668216D02*
X183742095Y-103629512D01*
X183742095Y-103629512D02*
X183664685Y-103552102D01*
X183664685Y-103552102D02*
X183625981Y-103397283D01*
X183625981Y-103397283D02*
X183625981Y-103126350D01*
X183625981Y-103126350D02*
X183664685Y-102971531D01*
X183664685Y-102971531D02*
X183742095Y-102894121D01*
X183742095Y-102894121D02*
X183819504Y-102855416D01*
X184903238Y-103668216D02*
X184516190Y-103668216D01*
X184516190Y-103668216D02*
X184516190Y-102855416D01*
X185174171Y-103242464D02*
X185445105Y-103242464D01*
X185561219Y-103668216D02*
X185174171Y-103668216D01*
X185174171Y-103668216D02*
X185174171Y-102855416D01*
X185174171Y-102855416D02*
X185561219Y-102855416D01*
X185909561Y-103668216D02*
X185909561Y-102855416D01*
X185909561Y-102855416D02*
X186103085Y-102855416D01*
X186103085Y-102855416D02*
X186219199Y-102894121D01*
X186219199Y-102894121D02*
X186296609Y-102971531D01*
X186296609Y-102971531D02*
X186335314Y-103048940D01*
X186335314Y-103048940D02*
X186374018Y-103203759D01*
X186374018Y-103203759D02*
X186374018Y-103319873D01*
X186374018Y-103319873D02*
X186335314Y-103474692D01*
X186335314Y-103474692D02*
X186296609Y-103552102D01*
X186296609Y-103552102D02*
X186219199Y-103629512D01*
X186219199Y-103629512D02*
X186103085Y-103668216D01*
X186103085Y-103668216D02*
X185909561Y-103668216D01*
X187741319Y-117572904D02*
X187741319Y-117001476D01*
X188741319Y-117287190D02*
X187741319Y-117287190D01*
X188741319Y-116096714D02*
X188265128Y-116430047D01*
X188741319Y-116668142D02*
X187741319Y-116668142D01*
X187741319Y-116668142D02*
X187741319Y-116287190D01*
X187741319Y-116287190D02*
X187788938Y-116191952D01*
X187788938Y-116191952D02*
X187836557Y-116144333D01*
X187836557Y-116144333D02*
X187931795Y-116096714D01*
X187931795Y-116096714D02*
X188074652Y-116096714D01*
X188074652Y-116096714D02*
X188169890Y-116144333D01*
X188169890Y-116144333D02*
X188217509Y-116191952D01*
X188217509Y-116191952D02*
X188265128Y-116287190D01*
X188265128Y-116287190D02*
X188265128Y-116668142D01*
X188741319Y-115096714D02*
X188265128Y-115430047D01*
X188741319Y-115668142D02*
X187741319Y-115668142D01*
X187741319Y-115668142D02*
X187741319Y-115287190D01*
X187741319Y-115287190D02*
X187788938Y-115191952D01*
X187788938Y-115191952D02*
X187836557Y-115144333D01*
X187836557Y-115144333D02*
X187931795Y-115096714D01*
X187931795Y-115096714D02*
X188074652Y-115096714D01*
X188074652Y-115096714D02*
X188169890Y-115144333D01*
X188169890Y-115144333D02*
X188217509Y-115191952D01*
X188217509Y-115191952D02*
X188265128Y-115287190D01*
X188265128Y-115287190D02*
X188265128Y-115668142D01*
X188693700Y-114715761D02*
X188741319Y-114572904D01*
X188741319Y-114572904D02*
X188741319Y-114334809D01*
X188741319Y-114334809D02*
X188693700Y-114239571D01*
X188693700Y-114239571D02*
X188646080Y-114191952D01*
X188646080Y-114191952D02*
X188550842Y-114144333D01*
X188550842Y-114144333D02*
X188455604Y-114144333D01*
X188455604Y-114144333D02*
X188360366Y-114191952D01*
X188360366Y-114191952D02*
X188312747Y-114239571D01*
X188312747Y-114239571D02*
X188265128Y-114334809D01*
X188265128Y-114334809D02*
X188217509Y-114525285D01*
X188217509Y-114525285D02*
X188169890Y-114620523D01*
X188169890Y-114620523D02*
X188122271Y-114668142D01*
X188122271Y-114668142D02*
X188027033Y-114715761D01*
X188027033Y-114715761D02*
X187931795Y-114715761D01*
X187931795Y-114715761D02*
X187836557Y-114668142D01*
X187836557Y-114668142D02*
X187788938Y-114620523D01*
X187788938Y-114620523D02*
X187741319Y-114525285D01*
X187741319Y-114525285D02*
X187741319Y-114287190D01*
X187741319Y-114287190D02*
X187788938Y-114144333D01*
X193354819Y-108238095D02*
X192878628Y-108571428D01*
X193354819Y-108809523D02*
X192354819Y-108809523D01*
X192354819Y-108809523D02*
X192354819Y-108428571D01*
X192354819Y-108428571D02*
X192402438Y-108333333D01*
X192402438Y-108333333D02*
X192450057Y-108285714D01*
X192450057Y-108285714D02*
X192545295Y-108238095D01*
X192545295Y-108238095D02*
X192688152Y-108238095D01*
X192688152Y-108238095D02*
X192783390Y-108285714D01*
X192783390Y-108285714D02*
X192831009Y-108333333D01*
X192831009Y-108333333D02*
X192878628Y-108428571D01*
X192878628Y-108428571D02*
X192878628Y-108809523D01*
X193307200Y-107428571D02*
X193354819Y-107523809D01*
X193354819Y-107523809D02*
X193354819Y-107714285D01*
X193354819Y-107714285D02*
X193307200Y-107809523D01*
X193307200Y-107809523D02*
X193211961Y-107857142D01*
X193211961Y-107857142D02*
X192831009Y-107857142D01*
X192831009Y-107857142D02*
X192735771Y-107809523D01*
X192735771Y-107809523D02*
X192688152Y-107714285D01*
X192688152Y-107714285D02*
X192688152Y-107523809D01*
X192688152Y-107523809D02*
X192735771Y-107428571D01*
X192735771Y-107428571D02*
X192831009Y-107380952D01*
X192831009Y-107380952D02*
X192926247Y-107380952D01*
X192926247Y-107380952D02*
X193021485Y-107857142D01*
X193307200Y-106999999D02*
X193354819Y-106904761D01*
X193354819Y-106904761D02*
X193354819Y-106714285D01*
X193354819Y-106714285D02*
X193307200Y-106619047D01*
X193307200Y-106619047D02*
X193211961Y-106571428D01*
X193211961Y-106571428D02*
X193164342Y-106571428D01*
X193164342Y-106571428D02*
X193069104Y-106619047D01*
X193069104Y-106619047D02*
X193021485Y-106714285D01*
X193021485Y-106714285D02*
X193021485Y-106857142D01*
X193021485Y-106857142D02*
X192973866Y-106952380D01*
X192973866Y-106952380D02*
X192878628Y-106999999D01*
X192878628Y-106999999D02*
X192831009Y-106999999D01*
X192831009Y-106999999D02*
X192735771Y-106952380D01*
X192735771Y-106952380D02*
X192688152Y-106857142D01*
X192688152Y-106857142D02*
X192688152Y-106714285D01*
X192688152Y-106714285D02*
X192735771Y-106619047D01*
X193307200Y-105761904D02*
X193354819Y-105857142D01*
X193354819Y-105857142D02*
X193354819Y-106047618D01*
X193354819Y-106047618D02*
X193307200Y-106142856D01*
X193307200Y-106142856D02*
X193211961Y-106190475D01*
X193211961Y-106190475D02*
X192831009Y-106190475D01*
X192831009Y-106190475D02*
X192735771Y-106142856D01*
X192735771Y-106142856D02*
X192688152Y-106047618D01*
X192688152Y-106047618D02*
X192688152Y-105857142D01*
X192688152Y-105857142D02*
X192735771Y-105761904D01*
X192735771Y-105761904D02*
X192831009Y-105714285D01*
X192831009Y-105714285D02*
X192926247Y-105714285D01*
X192926247Y-105714285D02*
X193021485Y-106190475D01*
X192688152Y-105428570D02*
X192688152Y-105047618D01*
X192354819Y-105285713D02*
X193211961Y-105285713D01*
X193211961Y-105285713D02*
X193307200Y-105238094D01*
X193307200Y-105238094D02*
X193354819Y-105142856D01*
X193354819Y-105142856D02*
X193354819Y-105047618D01*
X186814533Y-110748216D02*
X186543600Y-110361169D01*
X186350076Y-110748216D02*
X186350076Y-109935416D01*
X186350076Y-109935416D02*
X186659714Y-109935416D01*
X186659714Y-109935416D02*
X186737124Y-109974121D01*
X186737124Y-109974121D02*
X186775829Y-110012826D01*
X186775829Y-110012826D02*
X186814533Y-110090235D01*
X186814533Y-110090235D02*
X186814533Y-110206350D01*
X186814533Y-110206350D02*
X186775829Y-110283759D01*
X186775829Y-110283759D02*
X186737124Y-110322464D01*
X186737124Y-110322464D02*
X186659714Y-110361169D01*
X186659714Y-110361169D02*
X186350076Y-110361169D01*
X187124172Y-110012826D02*
X187162876Y-109974121D01*
X187162876Y-109974121D02*
X187240286Y-109935416D01*
X187240286Y-109935416D02*
X187433810Y-109935416D01*
X187433810Y-109935416D02*
X187511219Y-109974121D01*
X187511219Y-109974121D02*
X187549924Y-110012826D01*
X187549924Y-110012826D02*
X187588629Y-110090235D01*
X187588629Y-110090235D02*
X187588629Y-110167645D01*
X187588629Y-110167645D02*
X187549924Y-110283759D01*
X187549924Y-110283759D02*
X187085467Y-110748216D01*
X187085467Y-110748216D02*
X187588629Y-110748216D01*
X186814533Y-108448216D02*
X186543600Y-108061169D01*
X186350076Y-108448216D02*
X186350076Y-107635416D01*
X186350076Y-107635416D02*
X186659714Y-107635416D01*
X186659714Y-107635416D02*
X186737124Y-107674121D01*
X186737124Y-107674121D02*
X186775829Y-107712826D01*
X186775829Y-107712826D02*
X186814533Y-107790235D01*
X186814533Y-107790235D02*
X186814533Y-107906350D01*
X186814533Y-107906350D02*
X186775829Y-107983759D01*
X186775829Y-107983759D02*
X186737124Y-108022464D01*
X186737124Y-108022464D02*
X186659714Y-108061169D01*
X186659714Y-108061169D02*
X186350076Y-108061169D01*
X187588629Y-108448216D02*
X187124172Y-108448216D01*
X187356400Y-108448216D02*
X187356400Y-107635416D01*
X187356400Y-107635416D02*
X187278991Y-107751531D01*
X187278991Y-107751531D02*
X187201581Y-107828940D01*
X187201581Y-107828940D02*
X187124172Y-107867645D01*
X182300076Y-108468216D02*
X182300076Y-107655416D01*
X182300076Y-107655416D02*
X182609714Y-107655416D01*
X182609714Y-107655416D02*
X182687124Y-107694121D01*
X182687124Y-107694121D02*
X182725829Y-107732826D01*
X182725829Y-107732826D02*
X182764533Y-107810235D01*
X182764533Y-107810235D02*
X182764533Y-107926350D01*
X182764533Y-107926350D02*
X182725829Y-108003759D01*
X182725829Y-108003759D02*
X182687124Y-108042464D01*
X182687124Y-108042464D02*
X182609714Y-108081169D01*
X182609714Y-108081169D02*
X182300076Y-108081169D01*
X183538629Y-108468216D02*
X183074172Y-108468216D01*
X183306400Y-108468216D02*
X183306400Y-107655416D01*
X183306400Y-107655416D02*
X183228991Y-107771531D01*
X183228991Y-107771531D02*
X183151581Y-107848940D01*
X183151581Y-107848940D02*
X183074172Y-107887645D01*
X182200076Y-110668216D02*
X182200076Y-109855416D01*
X182200076Y-109855416D02*
X182509714Y-109855416D01*
X182509714Y-109855416D02*
X182587124Y-109894121D01*
X182587124Y-109894121D02*
X182625829Y-109932826D01*
X182625829Y-109932826D02*
X182664533Y-110010235D01*
X182664533Y-110010235D02*
X182664533Y-110126350D01*
X182664533Y-110126350D02*
X182625829Y-110203759D01*
X182625829Y-110203759D02*
X182587124Y-110242464D01*
X182587124Y-110242464D02*
X182509714Y-110281169D01*
X182509714Y-110281169D02*
X182200076Y-110281169D01*
X182974172Y-109932826D02*
X183012876Y-109894121D01*
X183012876Y-109894121D02*
X183090286Y-109855416D01*
X183090286Y-109855416D02*
X183283810Y-109855416D01*
X183283810Y-109855416D02*
X183361219Y-109894121D01*
X183361219Y-109894121D02*
X183399924Y-109932826D01*
X183399924Y-109932826D02*
X183438629Y-110010235D01*
X183438629Y-110010235D02*
X183438629Y-110087645D01*
X183438629Y-110087645D02*
X183399924Y-110203759D01*
X183399924Y-110203759D02*
X182935467Y-110668216D01*
X182935467Y-110668216D02*
X183438629Y-110668216D01*
X62750000Y-72425000D02*
X61250000Y-72425000D01*
X61250000Y-72425000D02*
X61250000Y-77825000D01*
X62500000Y-74625000D02*
X61500000Y-74625000D01*
X62000000Y-74725000D02*
X62500000Y-75625000D01*
X62500000Y-75625000D02*
X61500000Y-75625000D01*
X61500000Y-75625000D02*
X62000000Y-74725000D01*
X62750000Y-77825000D02*
X62750000Y-72425000D01*
X62750000Y-77825000D02*
X61250000Y-77825000D01*
X97750000Y-72425000D02*
X96250000Y-72425000D01*
X96250000Y-72425000D02*
X96250000Y-77825000D01*
X97500000Y-74625000D02*
X96500000Y-74625000D01*
X97000000Y-74725000D02*
X97500000Y-75625000D01*
X97500000Y-75625000D02*
X96500000Y-75625000D01*
X96500000Y-75625000D02*
X97000000Y-74725000D01*
X97750000Y-77825000D02*
X97750000Y-72425000D01*
X97750000Y-77825000D02*
X96250000Y-77825000D01*
X116750000Y-67675000D02*
X115250000Y-67675000D01*
X115250000Y-67675000D02*
X115250000Y-73075000D01*
X116500000Y-69875000D02*
X115500000Y-69875000D01*
X116000000Y-69975000D02*
X116500000Y-70875000D01*
X116500000Y-70875000D02*
X115500000Y-70875000D01*
X115500000Y-70875000D02*
X116000000Y-69975000D01*
X116750000Y-73075000D02*
X116750000Y-67675000D01*
X116750000Y-73075000D02*
X115250000Y-73075000D01*
X135750000Y-65300000D02*
X134250000Y-65300000D01*
X134250000Y-65300000D02*
X134250000Y-70700000D01*
X135500000Y-67500000D02*
X134500000Y-67500000D01*
X135000000Y-67600000D02*
X135500000Y-68500000D01*
X135500000Y-68500000D02*
X134500000Y-68500000D01*
X134500000Y-68500000D02*
X135000000Y-67600000D01*
X135750000Y-70700000D02*
X135750000Y-65300000D01*
X135750000Y-70700000D02*
X134250000Y-70700000D01*
X154750000Y-67675000D02*
X153250000Y-67675000D01*
X153250000Y-67675000D02*
X153250000Y-73075000D01*
X154500000Y-69875000D02*
X153500000Y-69875000D01*
X154000000Y-69975000D02*
X154500000Y-70875000D01*
X154500000Y-70875000D02*
X153500000Y-70875000D01*
X153500000Y-70875000D02*
X154000000Y-69975000D01*
X154750000Y-73075000D02*
X154750000Y-67675000D01*
X154750000Y-73075000D02*
X153250000Y-73075000D01*
X157750000Y-67675000D02*
X156250000Y-67675000D01*
X156250000Y-67675000D02*
X156250000Y-73075000D01*
X157500000Y-69875000D02*
X156500000Y-69875000D01*
X157000000Y-69975000D02*
X157500000Y-70875000D01*
X157500000Y-70875000D02*
X156500000Y-70875000D01*
X156500000Y-70875000D02*
X157000000Y-69975000D01*
X157750000Y-73075000D02*
X157750000Y-67675000D01*
X157750000Y-73075000D02*
X156250000Y-73075000D01*
X62750000Y-91425000D02*
X61250000Y-91425000D01*
X61250000Y-91425000D02*
X61250000Y-96825000D01*
X62500000Y-93625000D02*
X61500000Y-93625000D01*
X62000000Y-93725000D02*
X62500000Y-94625000D01*
X62500000Y-94625000D02*
X61500000Y-94625000D01*
X61500000Y-94625000D02*
X62000000Y-93725000D01*
X62750000Y-96825000D02*
X62750000Y-91425000D01*
X62750000Y-96825000D02*
X61250000Y-96825000D01*
X97750000Y-91425000D02*
X96250000Y-91425000D01*
X96250000Y-91425000D02*
X96250000Y-96825000D01*
X97500000Y-93625000D02*
X96500000Y-93625000D01*
X97000000Y-93725000D02*
X97500000Y-94625000D01*
X97500000Y-94625000D02*
X96500000Y-94625000D01*
X96500000Y-94625000D02*
X97000000Y-93725000D01*
X97750000Y-96825000D02*
X97750000Y-91425000D01*
X97750000Y-96825000D02*
X96250000Y-96825000D01*
X116750000Y-86675000D02*
X115250000Y-86675000D01*
X115250000Y-86675000D02*
X115250000Y-92075000D01*
X116500000Y-88875000D02*
X115500000Y-88875000D01*
X116000000Y-88975000D02*
X116500000Y-89875000D01*
X116500000Y-89875000D02*
X115500000Y-89875000D01*
X115500000Y-89875000D02*
X116000000Y-88975000D01*
X116750000Y-92075000D02*
X116750000Y-86675000D01*
X116750000Y-92075000D02*
X115250000Y-92075000D01*
X135750000Y-84300000D02*
X134250000Y-84300000D01*
X134250000Y-84300000D02*
X134250000Y-89700000D01*
X135500000Y-86500000D02*
X134500000Y-86500000D01*
X135000000Y-86600000D02*
X135500000Y-87500000D01*
X135500000Y-87500000D02*
X134500000Y-87500000D01*
X134500000Y-87500000D02*
X135000000Y-86600000D01*
X135750000Y-89700000D02*
X135750000Y-84300000D01*
X135750000Y-89700000D02*
X134250000Y-89700000D01*
X154750000Y-86675000D02*
X153250000Y-86675000D01*
X153250000Y-86675000D02*
X153250000Y-92075000D01*
X154500000Y-88875000D02*
X153500000Y-88875000D01*
X154000000Y-88975000D02*
X154500000Y-89875000D01*
X154500000Y-89875000D02*
X153500000Y-89875000D01*
X153500000Y-89875000D02*
X154000000Y-88975000D01*
X154750000Y-92075000D02*
X154750000Y-86675000D01*
X154750000Y-92075000D02*
X153250000Y-92075000D01*
X157750000Y-86675000D02*
X156250000Y-86675000D01*
X156250000Y-86675000D02*
X156250000Y-92075000D01*
X157500000Y-88875000D02*
X156500000Y-88875000D01*
X157000000Y-88975000D02*
X157500000Y-89875000D01*
X157500000Y-89875000D02*
X156500000Y-89875000D01*
X156500000Y-89875000D02*
X157000000Y-88975000D01*
X157750000Y-92075000D02*
X157750000Y-86675000D01*
X157750000Y-92075000D02*
X156250000Y-92075000D01*
X62750000Y-110425000D02*
X61250000Y-110425000D01*
X61250000Y-110425000D02*
X61250000Y-115825000D01*
X62500000Y-112625000D02*
X61500000Y-112625000D01*
X62000000Y-112725000D02*
X62500000Y-113625000D01*
X62500000Y-113625000D02*
X61500000Y-113625000D01*
X61500000Y-113625000D02*
X62000000Y-112725000D01*
X62750000Y-115825000D02*
X62750000Y-110425000D01*
X62750000Y-115825000D02*
X61250000Y-115825000D01*
X97750000Y-110425000D02*
X96250000Y-110425000D01*
X96250000Y-110425000D02*
X96250000Y-115825000D01*
X97500000Y-112625000D02*
X96500000Y-112625000D01*
X97000000Y-112725000D02*
X97500000Y-113625000D01*
X97500000Y-113625000D02*
X96500000Y-113625000D01*
X96500000Y-113625000D02*
X97000000Y-112725000D01*
X97750000Y-115825000D02*
X97750000Y-110425000D01*
X97750000Y-115825000D02*
X96250000Y-115825000D01*
X116750000Y-105675000D02*
X115250000Y-105675000D01*
X115250000Y-105675000D02*
X115250000Y-111075000D01*
X116500000Y-107875000D02*
X115500000Y-107875000D01*
X116000000Y-107975000D02*
X116500000Y-108875000D01*
X116500000Y-108875000D02*
X115500000Y-108875000D01*
X115500000Y-108875000D02*
X116000000Y-107975000D01*
X116750000Y-111075000D02*
X116750000Y-105675000D01*
X116750000Y-111075000D02*
X115250000Y-111075000D01*
X135750000Y-103300000D02*
X134250000Y-103300000D01*
X134250000Y-103300000D02*
X134250000Y-108700000D01*
X135500000Y-105500000D02*
X134500000Y-105500000D01*
X135000000Y-105600000D02*
X135500000Y-106500000D01*
X135500000Y-106500000D02*
X134500000Y-106500000D01*
X134500000Y-106500000D02*
X135000000Y-105600000D01*
X135750000Y-108700000D02*
X135750000Y-103300000D01*
X135750000Y-108700000D02*
X134250000Y-108700000D01*
X154750000Y-105675000D02*
X153250000Y-105675000D01*
X153250000Y-105675000D02*
X153250000Y-111075000D01*
X154500000Y-107875000D02*
X153500000Y-107875000D01*
X154000000Y-107975000D02*
X154500000Y-108875000D01*
X154500000Y-108875000D02*
X153500000Y-108875000D01*
X153500000Y-108875000D02*
X154000000Y-107975000D01*
X154750000Y-111075000D02*
X154750000Y-105675000D01*
X154750000Y-111075000D02*
X153250000Y-111075000D01*
X157750000Y-105675000D02*
X156250000Y-105675000D01*
X156250000Y-105675000D02*
X156250000Y-111075000D01*
X157500000Y-107875000D02*
X156500000Y-107875000D01*
X157000000Y-107975000D02*
X157500000Y-108875000D01*
X157500000Y-108875000D02*
X156500000Y-108875000D01*
X156500000Y-108875000D02*
X157000000Y-107975000D01*
X157750000Y-111075000D02*
X157750000Y-105675000D01*
X157750000Y-111075000D02*
X156250000Y-111075000D01*
X129250000Y-125300000D02*
X127750000Y-125300000D01*
X127750000Y-125300000D02*
X127750000Y-130700000D01*
X129000000Y-127500000D02*
X128000000Y-127500000D01*
X128500000Y-127600000D02*
X129000000Y-128500000D01*
X129000000Y-128500000D02*
X128000000Y-128500000D01*
X128000000Y-128500000D02*
X128500000Y-127600000D01*
X129250000Y-130700000D02*
X129250000Y-125300000D01*
X129250000Y-130700000D02*
X127750000Y-130700000D01*
X145250000Y-125050000D02*
X143750000Y-125050000D01*
X143750000Y-125050000D02*
X143750000Y-130450000D01*
X145000000Y-127250000D02*
X144000000Y-127250000D01*
X144500000Y-127350000D02*
X145000000Y-128250000D01*
X145000000Y-128250000D02*
X144000000Y-128250000D01*
X144000000Y-128250000D02*
X144500000Y-127350000D01*
X145250000Y-130450000D02*
X145250000Y-125050000D01*
X145250000Y-130450000D02*
X143750000Y-130450000D01*
X148250000Y-125050000D02*
X146750000Y-125050000D01*
X146750000Y-125050000D02*
X146750000Y-130450000D01*
X148000000Y-127250000D02*
X147000000Y-127250000D01*
X147500000Y-127350000D02*
X148000000Y-128250000D01*
X148000000Y-128250000D02*
X147000000Y-128250000D01*
X147000000Y-128250000D02*
X147500000Y-127350000D01*
X148250000Y-130450000D02*
X148250000Y-125050000D01*
X148250000Y-130450000D02*
X146750000Y-130450000D01*
D13*
X71380000Y-71775000D02*
X73430000Y-71775000D01*
X71380000Y-73225000D02*
X71380000Y-71775000D01*
X73430000Y-71775000D02*
X73430000Y-73225000D01*
X73430000Y-73225000D02*
X71380000Y-73225000D01*
X90380000Y-71775000D02*
X92430000Y-71775000D01*
X90380000Y-73225000D02*
X90380000Y-71775000D01*
X92430000Y-71775000D02*
X92430000Y-73225000D01*
X92430000Y-73225000D02*
X90380000Y-73225000D01*
X109380000Y-67025000D02*
X111430000Y-67025000D01*
X109380000Y-68475000D02*
X109380000Y-67025000D01*
X111430000Y-67025000D02*
X111430000Y-68475000D01*
X111430000Y-68475000D02*
X109380000Y-68475000D01*
X128380000Y-64650000D02*
X130430000Y-64650000D01*
X128380000Y-66100000D02*
X128380000Y-64650000D01*
X130430000Y-64650000D02*
X130430000Y-66100000D01*
X130430000Y-66100000D02*
X128380000Y-66100000D01*
X147380000Y-67025000D02*
X149430000Y-67025000D01*
X147380000Y-68475000D02*
X147380000Y-67025000D01*
X149430000Y-67025000D02*
X149430000Y-68475000D01*
X149430000Y-68475000D02*
X147380000Y-68475000D01*
X166380000Y-69400000D02*
X168430000Y-69400000D01*
X166380000Y-70850000D02*
X166380000Y-69400000D01*
X168430000Y-69400000D02*
X168430000Y-70850000D01*
X168430000Y-70850000D02*
X166380000Y-70850000D01*
X71380000Y-90775000D02*
X73430000Y-90775000D01*
X71380000Y-92225000D02*
X71380000Y-90775000D01*
X73430000Y-90775000D02*
X73430000Y-92225000D01*
X73430000Y-92225000D02*
X71380000Y-92225000D01*
X90380000Y-90775000D02*
X92430000Y-90775000D01*
X90380000Y-92225000D02*
X90380000Y-90775000D01*
X92430000Y-90775000D02*
X92430000Y-92225000D01*
X92430000Y-92225000D02*
X90380000Y-92225000D01*
X109380000Y-86025000D02*
X111430000Y-86025000D01*
X109380000Y-87475000D02*
X109380000Y-86025000D01*
X111430000Y-86025000D02*
X111430000Y-87475000D01*
X111430000Y-87475000D02*
X109380000Y-87475000D01*
X128380000Y-83650000D02*
X130430000Y-83650000D01*
X128380000Y-85100000D02*
X128380000Y-83650000D01*
X130430000Y-83650000D02*
X130430000Y-85100000D01*
X130430000Y-85100000D02*
X128380000Y-85100000D01*
X147380000Y-86025000D02*
X149430000Y-86025000D01*
X147380000Y-87475000D02*
X147380000Y-86025000D01*
X149430000Y-86025000D02*
X149430000Y-87475000D01*
X149430000Y-87475000D02*
X147380000Y-87475000D01*
X166380000Y-88400000D02*
X168430000Y-88400000D01*
X166380000Y-89850000D02*
X166380000Y-88400000D01*
X168430000Y-88400000D02*
X168430000Y-89850000D01*
X168430000Y-89850000D02*
X166380000Y-89850000D01*
X71380000Y-109775000D02*
X73430000Y-109775000D01*
X71380000Y-111225000D02*
X71380000Y-109775000D01*
X73430000Y-109775000D02*
X73430000Y-111225000D01*
X73430000Y-111225000D02*
X71380000Y-111225000D01*
X90380000Y-109775000D02*
X92430000Y-109775000D01*
X90380000Y-111225000D02*
X90380000Y-109775000D01*
X92430000Y-109775000D02*
X92430000Y-111225000D01*
X92430000Y-111225000D02*
X90380000Y-111225000D01*
X109380000Y-105025000D02*
X111430000Y-105025000D01*
X109380000Y-106475000D02*
X109380000Y-105025000D01*
X111430000Y-105025000D02*
X111430000Y-106475000D01*
X111430000Y-106475000D02*
X109380000Y-106475000D01*
X128380000Y-102650000D02*
X130430000Y-102650000D01*
X128380000Y-104100000D02*
X128380000Y-102650000D01*
X130430000Y-102650000D02*
X130430000Y-104100000D01*
X130430000Y-104100000D02*
X128380000Y-104100000D01*
X147380000Y-105025000D02*
X149430000Y-105025000D01*
X147380000Y-106475000D02*
X147380000Y-105025000D01*
X149430000Y-105025000D02*
X149430000Y-106475000D01*
X149430000Y-106475000D02*
X147380000Y-106475000D01*
X166380000Y-107400000D02*
X168430000Y-107400000D01*
X166380000Y-108850000D02*
X166380000Y-107400000D01*
X168430000Y-107400000D02*
X168430000Y-108850000D01*
X168430000Y-108850000D02*
X166380000Y-108850000D01*
X137880000Y-124650000D02*
X139930000Y-124650000D01*
X137880000Y-126100000D02*
X137880000Y-124650000D01*
X139930000Y-124650000D02*
X139930000Y-126100000D01*
X139930000Y-126100000D02*
X137880000Y-126100000D01*
X160294155Y-128002059D02*
X162274303Y-128532638D01*
X159918867Y-129402652D02*
X160294155Y-128002059D01*
X162274303Y-128532638D02*
X161899015Y-129933231D01*
X161899015Y-129933231D02*
X159918867Y-129402652D01*
X174180096Y-134870115D02*
X173155096Y-136645467D01*
X172924359Y-134145115D02*
X174180096Y-134870115D01*
X173155096Y-136645467D02*
X171899359Y-135920467D01*
X171899359Y-135920467D02*
X172924359Y-134145115D01*
D11*
X77300000Y-82150000D02*
X77300000Y-79500000D01*
X77150000Y-79075000D02*
X77150000Y-82625000D01*
X77050000Y-78925000D02*
X77050000Y-82675000D01*
X76950000Y-78825000D02*
X76950000Y-82775000D01*
X76850000Y-78725000D02*
X76850000Y-82925000D01*
X76700000Y-78625000D02*
X76700000Y-83025000D01*
X76550000Y-78575000D02*
X76550000Y-83075000D01*
X76400000Y-78525000D02*
X76400000Y-83075000D01*
X76300000Y-83150000D02*
X73725000Y-83150000D01*
X76300000Y-78500000D02*
X73700000Y-78500000D01*
X76250000Y-78525000D02*
X76250000Y-83125000D01*
X76100000Y-78525000D02*
X76100000Y-83125000D01*
X75950000Y-78525000D02*
X75950000Y-83125000D01*
X75800000Y-78525000D02*
X75800000Y-83125000D01*
X75650000Y-78525000D02*
X75650000Y-83125000D01*
X75500000Y-78525000D02*
X75500000Y-83125000D01*
X75350000Y-78525000D02*
X75350000Y-83125000D01*
X75200000Y-78525000D02*
X75200000Y-83125000D01*
X75050000Y-78525000D02*
X75050000Y-83125000D01*
X74900000Y-78525000D02*
X74900000Y-83125000D01*
X74750000Y-78525000D02*
X74750000Y-83125000D01*
X74600000Y-78525000D02*
X74600000Y-83125000D01*
X74450000Y-78525000D02*
X74450000Y-83125000D01*
X74300000Y-78525000D02*
X74300000Y-83125000D01*
X74150000Y-78525000D02*
X74150000Y-83125000D01*
X74000000Y-78525000D02*
X74000000Y-83125000D01*
X73850000Y-78525000D02*
X73850000Y-83075000D01*
X73700000Y-78525000D02*
X73700000Y-83125000D01*
X73550000Y-78525000D02*
X73550000Y-83125000D01*
X73400000Y-78575000D02*
X73400000Y-83125000D01*
X73250000Y-78675000D02*
X73250000Y-83225000D01*
X73100000Y-78775000D02*
X73100000Y-83275000D01*
X73000000Y-78925000D02*
X73000000Y-83325000D01*
X72900000Y-79175000D02*
X72900000Y-83375000D01*
X72800000Y-79325000D02*
X72800000Y-83475000D01*
X72700000Y-79525000D02*
X72700000Y-83675000D01*
X72600000Y-79675000D02*
X72600000Y-83825000D01*
X72500000Y-79875000D02*
X72500000Y-84325000D01*
X72350000Y-80025000D02*
X72350000Y-84475000D01*
X72200000Y-80175000D02*
X72200000Y-84575000D01*
X72050000Y-80275000D02*
X72050000Y-84675000D01*
X71900000Y-80375000D02*
X71900000Y-84825000D01*
X71750000Y-80475000D02*
X71750000Y-84925000D01*
X71600000Y-80525000D02*
X71600000Y-85075000D01*
X71450000Y-80625000D02*
X71450000Y-85175000D01*
X71300000Y-80675000D02*
X71300000Y-85275000D01*
X71275000Y-85350000D02*
X72550000Y-84325000D01*
X71275000Y-85350000D02*
X68725000Y-85350000D01*
X71150000Y-80675000D02*
X71150000Y-85325000D01*
X71000000Y-80675000D02*
X71000000Y-85325000D01*
X70850000Y-80725000D02*
X70850000Y-85275000D01*
X70700000Y-80725000D02*
X70700000Y-85325000D01*
X70700000Y-80700000D02*
X68725000Y-80700000D01*
X70550000Y-80725000D02*
X70550000Y-85325000D01*
X70400000Y-80725000D02*
X70400000Y-85325000D01*
X70250000Y-80725000D02*
X70250000Y-85325000D01*
X70100000Y-80725000D02*
X70100000Y-85325000D01*
X69950000Y-80725000D02*
X69950000Y-85325000D01*
X69800000Y-80725000D02*
X69800000Y-85325000D01*
X69650000Y-80725000D02*
X69650000Y-85325000D01*
X69500000Y-80725000D02*
X69500000Y-85325000D01*
X69350000Y-80725000D02*
X69350000Y-85325000D01*
X69200000Y-80725000D02*
X69200000Y-85325000D01*
X69050000Y-80725000D02*
X69050000Y-85325000D01*
X68900000Y-80725000D02*
X68900000Y-85325000D01*
X68750000Y-80725000D02*
X68750000Y-85325000D01*
X68600000Y-80875000D02*
X68600000Y-85225000D01*
X68450000Y-80975000D02*
X68450000Y-85075000D01*
X68300000Y-81125000D02*
X68300000Y-84925000D01*
X68150000Y-81275000D02*
X68150000Y-84775000D01*
X68000000Y-81475000D02*
X68000000Y-84625000D01*
X67850000Y-81575000D02*
X67850000Y-84475000D01*
X67700000Y-84325000D02*
X68725000Y-85350000D01*
X67700000Y-84325000D02*
X67700000Y-81725000D01*
X67700000Y-81725000D02*
X68725000Y-80700000D01*
X76300000Y-83150000D02*
G75*
G03*
X77300000Y-82150000I1J999999D01*
G01*
X77300000Y-79500000D02*
G75*
G03*
X76300000Y-78500000I-999999J1D01*
G01*
X73699005Y-78501210D02*
G75*
G03*
X72837802Y-79203096I38796J-926886D01*
G01*
X70700000Y-80700000D02*
G75*
G03*
X72837801Y-79203096I1J2274999D01*
G01*
X73725000Y-83150000D02*
G75*
G03*
X72550000Y-84325000I2J-1175002D01*
G01*
X96300000Y-82150000D02*
X96300000Y-79500000D01*
X96150000Y-79075000D02*
X96150000Y-82625000D01*
X96050000Y-78925000D02*
X96050000Y-82675000D01*
X95950000Y-78825000D02*
X95950000Y-82775000D01*
X95850000Y-78725000D02*
X95850000Y-82925000D01*
X95700000Y-78625000D02*
X95700000Y-83025000D01*
X95550000Y-78575000D02*
X95550000Y-83075000D01*
X95400000Y-78525000D02*
X95400000Y-83075000D01*
X95300000Y-83150000D02*
X92725000Y-83150000D01*
X95300000Y-78500000D02*
X92700000Y-78500000D01*
X95250000Y-78525000D02*
X95250000Y-83125000D01*
X95100000Y-78525000D02*
X95100000Y-83125000D01*
X94950000Y-78525000D02*
X94950000Y-83125000D01*
X94800000Y-78525000D02*
X94800000Y-83125000D01*
X94650000Y-78525000D02*
X94650000Y-83125000D01*
X94500000Y-78525000D02*
X94500000Y-83125000D01*
X94350000Y-78525000D02*
X94350000Y-83125000D01*
X94200000Y-78525000D02*
X94200000Y-83125000D01*
X94050000Y-78525000D02*
X94050000Y-83125000D01*
X93900000Y-78525000D02*
X93900000Y-83125000D01*
X93750000Y-78525000D02*
X93750000Y-83125000D01*
X93600000Y-78525000D02*
X93600000Y-83125000D01*
X93450000Y-78525000D02*
X93450000Y-83125000D01*
X93300000Y-78525000D02*
X93300000Y-83125000D01*
X93150000Y-78525000D02*
X93150000Y-83125000D01*
X93000000Y-78525000D02*
X93000000Y-83125000D01*
X92850000Y-78525000D02*
X92850000Y-83075000D01*
X92700000Y-78525000D02*
X92700000Y-83125000D01*
X92550000Y-78525000D02*
X92550000Y-83125000D01*
X92400000Y-78575000D02*
X92400000Y-83125000D01*
X92250000Y-78675000D02*
X92250000Y-83225000D01*
X92100000Y-78775000D02*
X92100000Y-83275000D01*
X92000000Y-78925000D02*
X92000000Y-83325000D01*
X91900000Y-79175000D02*
X91900000Y-83375000D01*
X91800000Y-79325000D02*
X91800000Y-83475000D01*
X91700000Y-79525000D02*
X91700000Y-83675000D01*
X91600000Y-79675000D02*
X91600000Y-83825000D01*
X91500000Y-79875000D02*
X91500000Y-84325000D01*
X91350000Y-80025000D02*
X91350000Y-84475000D01*
X91200000Y-80175000D02*
X91200000Y-84575000D01*
X91050000Y-80275000D02*
X91050000Y-84675000D01*
X90900000Y-80375000D02*
X90900000Y-84825000D01*
X90750000Y-80475000D02*
X90750000Y-84925000D01*
X90600000Y-80525000D02*
X90600000Y-85075000D01*
X90450000Y-80625000D02*
X90450000Y-85175000D01*
X90300000Y-80675000D02*
X90300000Y-85275000D01*
X90275000Y-85350000D02*
X91550000Y-84325000D01*
X90275000Y-85350000D02*
X87725000Y-85350000D01*
X90150000Y-80675000D02*
X90150000Y-85325000D01*
X90000000Y-80675000D02*
X90000000Y-85325000D01*
X89850000Y-80725000D02*
X89850000Y-85275000D01*
X89700000Y-80725000D02*
X89700000Y-85325000D01*
X89700000Y-80700000D02*
X87725000Y-80700000D01*
X89550000Y-80725000D02*
X89550000Y-85325000D01*
X89400000Y-80725000D02*
X89400000Y-85325000D01*
X89250000Y-80725000D02*
X89250000Y-85325000D01*
X89100000Y-80725000D02*
X89100000Y-85325000D01*
X88950000Y-80725000D02*
X88950000Y-85325000D01*
X88800000Y-80725000D02*
X88800000Y-85325000D01*
X88650000Y-80725000D02*
X88650000Y-85325000D01*
X88500000Y-80725000D02*
X88500000Y-85325000D01*
X88350000Y-80725000D02*
X88350000Y-85325000D01*
X88200000Y-80725000D02*
X88200000Y-85325000D01*
X88050000Y-80725000D02*
X88050000Y-85325000D01*
X87900000Y-80725000D02*
X87900000Y-85325000D01*
X87750000Y-80725000D02*
X87750000Y-85325000D01*
X87600000Y-80875000D02*
X87600000Y-85225000D01*
X87450000Y-80975000D02*
X87450000Y-85075000D01*
X87300000Y-81125000D02*
X87300000Y-84925000D01*
X87150000Y-81275000D02*
X87150000Y-84775000D01*
X87000000Y-81475000D02*
X87000000Y-84625000D01*
X86850000Y-81575000D02*
X86850000Y-84475000D01*
X86700000Y-84325000D02*
X87725000Y-85350000D01*
X86700000Y-84325000D02*
X86700000Y-81725000D01*
X86700000Y-81725000D02*
X87725000Y-80700000D01*
X95300000Y-83150000D02*
G75*
G03*
X96300000Y-82150000I1J999999D01*
G01*
X96300000Y-79500000D02*
G75*
G03*
X95300000Y-78500000I-999999J1D01*
G01*
X92699005Y-78501210D02*
G75*
G03*
X91837802Y-79203096I38796J-926886D01*
G01*
X89700000Y-80700000D02*
G75*
G03*
X91837801Y-79203096I1J2274999D01*
G01*
X92725000Y-83150000D02*
G75*
G03*
X91550000Y-84325000I2J-1175002D01*
G01*
X115300000Y-77400000D02*
X115300000Y-74750000D01*
X115150000Y-74325000D02*
X115150000Y-77875000D01*
X115050000Y-74175000D02*
X115050000Y-77925000D01*
X114950000Y-74075000D02*
X114950000Y-78025000D01*
X114850000Y-73975000D02*
X114850000Y-78175000D01*
X114700000Y-73875000D02*
X114700000Y-78275000D01*
X114550000Y-73825000D02*
X114550000Y-78325000D01*
X114400000Y-73775000D02*
X114400000Y-78325000D01*
X114300000Y-78400000D02*
X111725000Y-78400000D01*
X114300000Y-73750000D02*
X111700000Y-73750000D01*
X114250000Y-73775000D02*
X114250000Y-78375000D01*
X114100000Y-73775000D02*
X114100000Y-78375000D01*
X113950000Y-73775000D02*
X113950000Y-78375000D01*
X113800000Y-73775000D02*
X113800000Y-78375000D01*
X113650000Y-73775000D02*
X113650000Y-78375000D01*
X113500000Y-73775000D02*
X113500000Y-78375000D01*
X113350000Y-73775000D02*
X113350000Y-78375000D01*
X113200000Y-73775000D02*
X113200000Y-78375000D01*
X113050000Y-73775000D02*
X113050000Y-78375000D01*
X112900000Y-73775000D02*
X112900000Y-78375000D01*
X112750000Y-73775000D02*
X112750000Y-78375000D01*
X112600000Y-73775000D02*
X112600000Y-78375000D01*
X112450000Y-73775000D02*
X112450000Y-78375000D01*
X112300000Y-73775000D02*
X112300000Y-78375000D01*
X112150000Y-73775000D02*
X112150000Y-78375000D01*
X112000000Y-73775000D02*
X112000000Y-78375000D01*
X111850000Y-73775000D02*
X111850000Y-78325000D01*
X111700000Y-73775000D02*
X111700000Y-78375000D01*
X111550000Y-73775000D02*
X111550000Y-78375000D01*
X111400000Y-73825000D02*
X111400000Y-78375000D01*
X111250000Y-73925000D02*
X111250000Y-78475000D01*
X111100000Y-74025000D02*
X111100000Y-78525000D01*
X111000000Y-74175000D02*
X111000000Y-78575000D01*
X110900000Y-74425000D02*
X110900000Y-78625000D01*
X110800000Y-74575000D02*
X110800000Y-78725000D01*
X110700000Y-74775000D02*
X110700000Y-78925000D01*
X110600000Y-74925000D02*
X110600000Y-79075000D01*
X110500000Y-75125000D02*
X110500000Y-79575000D01*
X110350000Y-75275000D02*
X110350000Y-79725000D01*
X110200000Y-75425000D02*
X110200000Y-79825000D01*
X110050000Y-75525000D02*
X110050000Y-79925000D01*
X109900000Y-75625000D02*
X109900000Y-80075000D01*
X109750000Y-75725000D02*
X109750000Y-80175000D01*
X109600000Y-75775000D02*
X109600000Y-80325000D01*
X109450000Y-75875000D02*
X109450000Y-80425000D01*
X109300000Y-75925000D02*
X109300000Y-80525000D01*
X109275000Y-80600000D02*
X110550000Y-79575000D01*
X109275000Y-80600000D02*
X106725000Y-80600000D01*
X109150000Y-75925000D02*
X109150000Y-80575000D01*
X109000000Y-75925000D02*
X109000000Y-80575000D01*
X108850000Y-75975000D02*
X108850000Y-80525000D01*
X108700000Y-75975000D02*
X108700000Y-80575000D01*
X108700000Y-75950000D02*
X106725000Y-75950000D01*
X108550000Y-75975000D02*
X108550000Y-80575000D01*
X108400000Y-75975000D02*
X108400000Y-80575000D01*
X108250000Y-75975000D02*
X108250000Y-80575000D01*
X108100000Y-75975000D02*
X108100000Y-80575000D01*
X107950000Y-75975000D02*
X107950000Y-80575000D01*
X107800000Y-75975000D02*
X107800000Y-80575000D01*
X107650000Y-75975000D02*
X107650000Y-80575000D01*
X107500000Y-75975000D02*
X107500000Y-80575000D01*
X107350000Y-75975000D02*
X107350000Y-80575000D01*
X107200000Y-75975000D02*
X107200000Y-80575000D01*
X107050000Y-75975000D02*
X107050000Y-80575000D01*
X106900000Y-75975000D02*
X106900000Y-80575000D01*
X106750000Y-75975000D02*
X106750000Y-80575000D01*
X106600000Y-76125000D02*
X106600000Y-80475000D01*
X106450000Y-76225000D02*
X106450000Y-80325000D01*
X106300000Y-76375000D02*
X106300000Y-80175000D01*
X106150000Y-76525000D02*
X106150000Y-80025000D01*
X106000000Y-76725000D02*
X106000000Y-79875000D01*
X105850000Y-76825000D02*
X105850000Y-79725000D01*
X105700000Y-79575000D02*
X106725000Y-80600000D01*
X105700000Y-79575000D02*
X105700000Y-76975000D01*
X105700000Y-76975000D02*
X106725000Y-75950000D01*
X114300000Y-78400000D02*
G75*
G03*
X115300000Y-77400000I1J999999D01*
G01*
X115300000Y-74750000D02*
G75*
G03*
X114300000Y-73750000I-999999J1D01*
G01*
X111699005Y-73751210D02*
G75*
G03*
X110837802Y-74453096I38796J-926886D01*
G01*
X108700000Y-75950000D02*
G75*
G03*
X110837801Y-74453096I1J2274999D01*
G01*
X111725000Y-78400000D02*
G75*
G03*
X110550000Y-79575000I2J-1175002D01*
G01*
X134300000Y-75025000D02*
X134300000Y-72375000D01*
X134150000Y-71950000D02*
X134150000Y-75500000D01*
X134050000Y-71800000D02*
X134050000Y-75550000D01*
X133950000Y-71700000D02*
X133950000Y-75650000D01*
X133850000Y-71600000D02*
X133850000Y-75800000D01*
X133700000Y-71500000D02*
X133700000Y-75900000D01*
X133550000Y-71450000D02*
X133550000Y-75950000D01*
X133400000Y-71400000D02*
X133400000Y-75950000D01*
X133300000Y-76025000D02*
X130725000Y-76025000D01*
X133300000Y-71375000D02*
X130700000Y-71375000D01*
X133250000Y-71400000D02*
X133250000Y-76000000D01*
X133100000Y-71400000D02*
X133100000Y-76000000D01*
X132950000Y-71400000D02*
X132950000Y-76000000D01*
X132800000Y-71400000D02*
X132800000Y-76000000D01*
X132650000Y-71400000D02*
X132650000Y-76000000D01*
X132500000Y-71400000D02*
X132500000Y-76000000D01*
X132350000Y-71400000D02*
X132350000Y-76000000D01*
X132200000Y-71400000D02*
X132200000Y-76000000D01*
X132050000Y-71400000D02*
X132050000Y-76000000D01*
X131900000Y-71400000D02*
X131900000Y-76000000D01*
X131750000Y-71400000D02*
X131750000Y-76000000D01*
X131600000Y-71400000D02*
X131600000Y-76000000D01*
X131450000Y-71400000D02*
X131450000Y-76000000D01*
X131300000Y-71400000D02*
X131300000Y-76000000D01*
X131150000Y-71400000D02*
X131150000Y-76000000D01*
X131000000Y-71400000D02*
X131000000Y-76000000D01*
X130850000Y-71400000D02*
X130850000Y-75950000D01*
X130700000Y-71400000D02*
X130700000Y-76000000D01*
X130550000Y-71400000D02*
X130550000Y-76000000D01*
X130400000Y-71450000D02*
X130400000Y-76000000D01*
X130250000Y-71550000D02*
X130250000Y-76100000D01*
X130100000Y-71650000D02*
X130100000Y-76150000D01*
X130000000Y-71800000D02*
X130000000Y-76200000D01*
X129900000Y-72050000D02*
X129900000Y-76250000D01*
X129800000Y-72200000D02*
X129800000Y-76350000D01*
X129700000Y-72400000D02*
X129700000Y-76550000D01*
X129600000Y-72550000D02*
X129600000Y-76700000D01*
X129500000Y-72750000D02*
X129500000Y-77200000D01*
X129350000Y-72900000D02*
X129350000Y-77350000D01*
X129200000Y-73050000D02*
X129200000Y-77450000D01*
X129050000Y-73150000D02*
X129050000Y-77550000D01*
X128900000Y-73250000D02*
X128900000Y-77700000D01*
X128750000Y-73350000D02*
X128750000Y-77800000D01*
X128600000Y-73400000D02*
X128600000Y-77950000D01*
X128450000Y-73500000D02*
X128450000Y-78050000D01*
X128300000Y-73550000D02*
X128300000Y-78150000D01*
X128275000Y-78225000D02*
X129550000Y-77200000D01*
X128275000Y-78225000D02*
X125725000Y-78225000D01*
X128150000Y-73550000D02*
X128150000Y-78200000D01*
X128000000Y-73550000D02*
X128000000Y-78200000D01*
X127850000Y-73600000D02*
X127850000Y-78150000D01*
X127700000Y-73600000D02*
X127700000Y-78200000D01*
X127700000Y-73575000D02*
X125725000Y-73575000D01*
X127550000Y-73600000D02*
X127550000Y-78200000D01*
X127400000Y-73600000D02*
X127400000Y-78200000D01*
X127250000Y-73600000D02*
X127250000Y-78200000D01*
X127100000Y-73600000D02*
X127100000Y-78200000D01*
X126950000Y-73600000D02*
X126950000Y-78200000D01*
X126800000Y-73600000D02*
X126800000Y-78200000D01*
X126650000Y-73600000D02*
X126650000Y-78200000D01*
X126500000Y-73600000D02*
X126500000Y-78200000D01*
X126350000Y-73600000D02*
X126350000Y-78200000D01*
X126200000Y-73600000D02*
X126200000Y-78200000D01*
X126050000Y-73600000D02*
X126050000Y-78200000D01*
X125900000Y-73600000D02*
X125900000Y-78200000D01*
X125750000Y-73600000D02*
X125750000Y-78200000D01*
X125600000Y-73750000D02*
X125600000Y-78100000D01*
X125450000Y-73850000D02*
X125450000Y-77950000D01*
X125300000Y-74000000D02*
X125300000Y-77800000D01*
X125150000Y-74150000D02*
X125150000Y-77650000D01*
X125000000Y-74350000D02*
X125000000Y-77500000D01*
X124850000Y-74450000D02*
X124850000Y-77350000D01*
X124700000Y-77200000D02*
X125725000Y-78225000D01*
X124700000Y-77200000D02*
X124700000Y-74600000D01*
X124700000Y-74600000D02*
X125725000Y-73575000D01*
X133300000Y-76025000D02*
G75*
G03*
X134300000Y-75025000I1J999999D01*
G01*
X134300000Y-72375000D02*
G75*
G03*
X133300000Y-71375000I-999999J1D01*
G01*
X130699005Y-71376210D02*
G75*
G03*
X129837802Y-72078096I38796J-926886D01*
G01*
X127700000Y-73575000D02*
G75*
G03*
X129837801Y-72078096I1J2274999D01*
G01*
X130725000Y-76025000D02*
G75*
G03*
X129550000Y-77200000I2J-1175002D01*
G01*
X153300000Y-77400000D02*
X153300000Y-74750000D01*
X153150000Y-74325000D02*
X153150000Y-77875000D01*
X153050000Y-74175000D02*
X153050000Y-77925000D01*
X152950000Y-74075000D02*
X152950000Y-78025000D01*
X152850000Y-73975000D02*
X152850000Y-78175000D01*
X152700000Y-73875000D02*
X152700000Y-78275000D01*
X152550000Y-73825000D02*
X152550000Y-78325000D01*
X152400000Y-73775000D02*
X152400000Y-78325000D01*
X152300000Y-78400000D02*
X149725000Y-78400000D01*
X152300000Y-73750000D02*
X149700000Y-73750000D01*
X152250000Y-73775000D02*
X152250000Y-78375000D01*
X152100000Y-73775000D02*
X152100000Y-78375000D01*
X151950000Y-73775000D02*
X151950000Y-78375000D01*
X151800000Y-73775000D02*
X151800000Y-78375000D01*
X151650000Y-73775000D02*
X151650000Y-78375000D01*
X151500000Y-73775000D02*
X151500000Y-78375000D01*
X151350000Y-73775000D02*
X151350000Y-78375000D01*
X151200000Y-73775000D02*
X151200000Y-78375000D01*
X151050000Y-73775000D02*
X151050000Y-78375000D01*
X150900000Y-73775000D02*
X150900000Y-78375000D01*
X150750000Y-73775000D02*
X150750000Y-78375000D01*
X150600000Y-73775000D02*
X150600000Y-78375000D01*
X150450000Y-73775000D02*
X150450000Y-78375000D01*
X150300000Y-73775000D02*
X150300000Y-78375000D01*
X150150000Y-73775000D02*
X150150000Y-78375000D01*
X150000000Y-73775000D02*
X150000000Y-78375000D01*
X149850000Y-73775000D02*
X149850000Y-78325000D01*
X149700000Y-73775000D02*
X149700000Y-78375000D01*
X149550000Y-73775000D02*
X149550000Y-78375000D01*
X149400000Y-73825000D02*
X149400000Y-78375000D01*
X149250000Y-73925000D02*
X149250000Y-78475000D01*
X149100000Y-74025000D02*
X149100000Y-78525000D01*
X149000000Y-74175000D02*
X149000000Y-78575000D01*
X148900000Y-74425000D02*
X148900000Y-78625000D01*
X148800000Y-74575000D02*
X148800000Y-78725000D01*
X148700000Y-74775000D02*
X148700000Y-78925000D01*
X148600000Y-74925000D02*
X148600000Y-79075000D01*
X148500000Y-75125000D02*
X148500000Y-79575000D01*
X148350000Y-75275000D02*
X148350000Y-79725000D01*
X148200000Y-75425000D02*
X148200000Y-79825000D01*
X148050000Y-75525000D02*
X148050000Y-79925000D01*
X147900000Y-75625000D02*
X147900000Y-80075000D01*
X147750000Y-75725000D02*
X147750000Y-80175000D01*
X147600000Y-75775000D02*
X147600000Y-80325000D01*
X147450000Y-75875000D02*
X147450000Y-80425000D01*
X147300000Y-75925000D02*
X147300000Y-80525000D01*
X147275000Y-80600000D02*
X148550000Y-79575000D01*
X147275000Y-80600000D02*
X144725000Y-80600000D01*
X147150000Y-75925000D02*
X147150000Y-80575000D01*
X147000000Y-75925000D02*
X147000000Y-80575000D01*
X146850000Y-75975000D02*
X146850000Y-80525000D01*
X146700000Y-75975000D02*
X146700000Y-80575000D01*
X146700000Y-75950000D02*
X144725000Y-75950000D01*
X146550000Y-75975000D02*
X146550000Y-80575000D01*
X146400000Y-75975000D02*
X146400000Y-80575000D01*
X146250000Y-75975000D02*
X146250000Y-80575000D01*
X146100000Y-75975000D02*
X146100000Y-80575000D01*
X145950000Y-75975000D02*
X145950000Y-80575000D01*
X145800000Y-75975000D02*
X145800000Y-80575000D01*
X145650000Y-75975000D02*
X145650000Y-80575000D01*
X145500000Y-75975000D02*
X145500000Y-80575000D01*
X145350000Y-75975000D02*
X145350000Y-80575000D01*
X145200000Y-75975000D02*
X145200000Y-80575000D01*
X145050000Y-75975000D02*
X145050000Y-80575000D01*
X144900000Y-75975000D02*
X144900000Y-80575000D01*
X144750000Y-75975000D02*
X144750000Y-80575000D01*
X144600000Y-76125000D02*
X144600000Y-80475000D01*
X144450000Y-76225000D02*
X144450000Y-80325000D01*
X144300000Y-76375000D02*
X144300000Y-80175000D01*
X144150000Y-76525000D02*
X144150000Y-80025000D01*
X144000000Y-76725000D02*
X144000000Y-79875000D01*
X143850000Y-76825000D02*
X143850000Y-79725000D01*
X143700000Y-79575000D02*
X144725000Y-80600000D01*
X143700000Y-79575000D02*
X143700000Y-76975000D01*
X143700000Y-76975000D02*
X144725000Y-75950000D01*
X152300000Y-78400000D02*
G75*
G03*
X153300000Y-77400000I1J999999D01*
G01*
X153300000Y-74750000D02*
G75*
G03*
X152300000Y-73750000I-999999J1D01*
G01*
X149699005Y-73751210D02*
G75*
G03*
X148837802Y-74453096I38796J-926886D01*
G01*
X146700000Y-75950000D02*
G75*
G03*
X148837801Y-74453096I1J2274999D01*
G01*
X149725000Y-78400000D02*
G75*
G03*
X148550000Y-79575000I2J-1175002D01*
G01*
X172300000Y-79775000D02*
X172300000Y-77125000D01*
X172150000Y-76700000D02*
X172150000Y-80250000D01*
X172050000Y-76550000D02*
X172050000Y-80300000D01*
X171950000Y-76450000D02*
X171950000Y-80400000D01*
X171850000Y-76350000D02*
X171850000Y-80550000D01*
X171700000Y-76250000D02*
X171700000Y-80650000D01*
X171550000Y-76200000D02*
X171550000Y-80700000D01*
X171400000Y-76150000D02*
X171400000Y-80700000D01*
X171300000Y-80775000D02*
X168725000Y-80775000D01*
X171300000Y-76125000D02*
X168700000Y-76125000D01*
X171250000Y-76150000D02*
X171250000Y-80750000D01*
X171100000Y-76150000D02*
X171100000Y-80750000D01*
X170950000Y-76150000D02*
X170950000Y-80750000D01*
X170800000Y-76150000D02*
X170800000Y-80750000D01*
X170650000Y-76150000D02*
X170650000Y-80750000D01*
X170500000Y-76150000D02*
X170500000Y-80750000D01*
X170350000Y-76150000D02*
X170350000Y-80750000D01*
X170200000Y-76150000D02*
X170200000Y-80750000D01*
X170050000Y-76150000D02*
X170050000Y-80750000D01*
X169900000Y-76150000D02*
X169900000Y-80750000D01*
X169750000Y-76150000D02*
X169750000Y-80750000D01*
X169600000Y-76150000D02*
X169600000Y-80750000D01*
X169450000Y-76150000D02*
X169450000Y-80750000D01*
X169300000Y-76150000D02*
X169300000Y-80750000D01*
X169150000Y-76150000D02*
X169150000Y-80750000D01*
X169000000Y-76150000D02*
X169000000Y-80750000D01*
X168850000Y-76150000D02*
X168850000Y-80700000D01*
X168700000Y-76150000D02*
X168700000Y-80750000D01*
X168550000Y-76150000D02*
X168550000Y-80750000D01*
X168400000Y-76200000D02*
X168400000Y-80750000D01*
X168250000Y-76300000D02*
X168250000Y-80850000D01*
X168100000Y-76400000D02*
X168100000Y-80900000D01*
X168000000Y-76550000D02*
X168000000Y-80950000D01*
X167900000Y-76800000D02*
X167900000Y-81000000D01*
X167800000Y-76950000D02*
X167800000Y-81100000D01*
X167700000Y-77150000D02*
X167700000Y-81300000D01*
X167600000Y-77300000D02*
X167600000Y-81450000D01*
X167500000Y-77500000D02*
X167500000Y-81950000D01*
X167350000Y-77650000D02*
X167350000Y-82100000D01*
X167200000Y-77800000D02*
X167200000Y-82200000D01*
X167050000Y-77900000D02*
X167050000Y-82300000D01*
X166900000Y-78000000D02*
X166900000Y-82450000D01*
X166750000Y-78100000D02*
X166750000Y-82550000D01*
X166600000Y-78150000D02*
X166600000Y-82700000D01*
X166450000Y-78250000D02*
X166450000Y-82800000D01*
X166300000Y-78300000D02*
X166300000Y-82900000D01*
X166275000Y-82975000D02*
X167550000Y-81950000D01*
X166275000Y-82975000D02*
X163725000Y-82975000D01*
X166150000Y-78300000D02*
X166150000Y-82950000D01*
X166000000Y-78300000D02*
X166000000Y-82950000D01*
X165850000Y-78350000D02*
X165850000Y-82900000D01*
X165700000Y-78350000D02*
X165700000Y-82950000D01*
X165700000Y-78325000D02*
X163725000Y-78325000D01*
X165550000Y-78350000D02*
X165550000Y-82950000D01*
X165400000Y-78350000D02*
X165400000Y-82950000D01*
X165250000Y-78350000D02*
X165250000Y-82950000D01*
X165100000Y-78350000D02*
X165100000Y-82950000D01*
X164950000Y-78350000D02*
X164950000Y-82950000D01*
X164800000Y-78350000D02*
X164800000Y-82950000D01*
X164650000Y-78350000D02*
X164650000Y-82950000D01*
X164500000Y-78350000D02*
X164500000Y-82950000D01*
X164350000Y-78350000D02*
X164350000Y-82950000D01*
X164200000Y-78350000D02*
X164200000Y-82950000D01*
X164050000Y-78350000D02*
X164050000Y-82950000D01*
X163900000Y-78350000D02*
X163900000Y-82950000D01*
X163750000Y-78350000D02*
X163750000Y-82950000D01*
X163600000Y-78500000D02*
X163600000Y-82850000D01*
X163450000Y-78600000D02*
X163450000Y-82700000D01*
X163300000Y-78750000D02*
X163300000Y-82550000D01*
X163150000Y-78900000D02*
X163150000Y-82400000D01*
X163000000Y-79100000D02*
X163000000Y-82250000D01*
X162850000Y-79200000D02*
X162850000Y-82100000D01*
X162700000Y-81950000D02*
X163725000Y-82975000D01*
X162700000Y-81950000D02*
X162700000Y-79350000D01*
X162700000Y-79350000D02*
X163725000Y-78325000D01*
X171300000Y-80775000D02*
G75*
G03*
X172300000Y-79775000I1J999999D01*
G01*
X172300000Y-77125000D02*
G75*
G03*
X171300000Y-76125000I-999999J1D01*
G01*
X168699005Y-76126210D02*
G75*
G03*
X167837802Y-76828096I38796J-926886D01*
G01*
X165700000Y-78325000D02*
G75*
G03*
X167837801Y-76828096I1J2274999D01*
G01*
X168725000Y-80775000D02*
G75*
G03*
X167550000Y-81950000I2J-1175002D01*
G01*
X77300000Y-101150000D02*
X77300000Y-98500000D01*
X77150000Y-98075000D02*
X77150000Y-101625000D01*
X77050000Y-97925000D02*
X77050000Y-101675000D01*
X76950000Y-97825000D02*
X76950000Y-101775000D01*
X76850000Y-97725000D02*
X76850000Y-101925000D01*
X76700000Y-97625000D02*
X76700000Y-102025000D01*
X76550000Y-97575000D02*
X76550000Y-102075000D01*
X76400000Y-97525000D02*
X76400000Y-102075000D01*
X76300000Y-102150000D02*
X73725000Y-102150000D01*
X76300000Y-97500000D02*
X73700000Y-97500000D01*
X76250000Y-97525000D02*
X76250000Y-102125000D01*
X76100000Y-97525000D02*
X76100000Y-102125000D01*
X75950000Y-97525000D02*
X75950000Y-102125000D01*
X75800000Y-97525000D02*
X75800000Y-102125000D01*
X75650000Y-97525000D02*
X75650000Y-102125000D01*
X75500000Y-97525000D02*
X75500000Y-102125000D01*
X75350000Y-97525000D02*
X75350000Y-102125000D01*
X75200000Y-97525000D02*
X75200000Y-102125000D01*
X75050000Y-97525000D02*
X75050000Y-102125000D01*
X74900000Y-97525000D02*
X74900000Y-102125000D01*
X74750000Y-97525000D02*
X74750000Y-102125000D01*
X74600000Y-97525000D02*
X74600000Y-102125000D01*
X74450000Y-97525000D02*
X74450000Y-102125000D01*
X74300000Y-97525000D02*
X74300000Y-102125000D01*
X74150000Y-97525000D02*
X74150000Y-102125000D01*
X74000000Y-97525000D02*
X74000000Y-102125000D01*
X73850000Y-97525000D02*
X73850000Y-102075000D01*
X73700000Y-97525000D02*
X73700000Y-102125000D01*
X73550000Y-97525000D02*
X73550000Y-102125000D01*
X73400000Y-97575000D02*
X73400000Y-102125000D01*
X73250000Y-97675000D02*
X73250000Y-102225000D01*
X73100000Y-97775000D02*
X73100000Y-102275000D01*
X73000000Y-97925000D02*
X73000000Y-102325000D01*
X72900000Y-98175000D02*
X72900000Y-102375000D01*
X72800000Y-98325000D02*
X72800000Y-102475000D01*
X72700000Y-98525000D02*
X72700000Y-102675000D01*
X72600000Y-98675000D02*
X72600000Y-102825000D01*
X72500000Y-98875000D02*
X72500000Y-103325000D01*
X72350000Y-99025000D02*
X72350000Y-103475000D01*
X72200000Y-99175000D02*
X72200000Y-103575000D01*
X72050000Y-99275000D02*
X72050000Y-103675000D01*
X71900000Y-99375000D02*
X71900000Y-103825000D01*
X71750000Y-99475000D02*
X71750000Y-103925000D01*
X71600000Y-99525000D02*
X71600000Y-104075000D01*
X71450000Y-99625000D02*
X71450000Y-104175000D01*
X71300000Y-99675000D02*
X71300000Y-104275000D01*
X71275000Y-104350000D02*
X72550000Y-103325000D01*
X71275000Y-104350000D02*
X68725000Y-104350000D01*
X71150000Y-99675000D02*
X71150000Y-104325000D01*
X71000000Y-99675000D02*
X71000000Y-104325000D01*
X70850000Y-99725000D02*
X70850000Y-104275000D01*
X70700000Y-99725000D02*
X70700000Y-104325000D01*
X70700000Y-99700000D02*
X68725000Y-99700000D01*
X70550000Y-99725000D02*
X70550000Y-104325000D01*
X70400000Y-99725000D02*
X70400000Y-104325000D01*
X70250000Y-99725000D02*
X70250000Y-104325000D01*
X70100000Y-99725000D02*
X70100000Y-104325000D01*
X69950000Y-99725000D02*
X69950000Y-104325000D01*
X69800000Y-99725000D02*
X69800000Y-104325000D01*
X69650000Y-99725000D02*
X69650000Y-104325000D01*
X69500000Y-99725000D02*
X69500000Y-104325000D01*
X69350000Y-99725000D02*
X69350000Y-104325000D01*
X69200000Y-99725000D02*
X69200000Y-104325000D01*
X69050000Y-99725000D02*
X69050000Y-104325000D01*
X68900000Y-99725000D02*
X68900000Y-104325000D01*
X68750000Y-99725000D02*
X68750000Y-104325000D01*
X68600000Y-99875000D02*
X68600000Y-104225000D01*
X68450000Y-99975000D02*
X68450000Y-104075000D01*
X68300000Y-100125000D02*
X68300000Y-103925000D01*
X68150000Y-100275000D02*
X68150000Y-103775000D01*
X68000000Y-100475000D02*
X68000000Y-103625000D01*
X67850000Y-100575000D02*
X67850000Y-103475000D01*
X67700000Y-103325000D02*
X68725000Y-104350000D01*
X67700000Y-103325000D02*
X67700000Y-100725000D01*
X67700000Y-100725000D02*
X68725000Y-99700000D01*
X76300000Y-102150000D02*
G75*
G03*
X77300000Y-101150000I1J999999D01*
G01*
X77300000Y-98500000D02*
G75*
G03*
X76300000Y-97500000I-999999J1D01*
G01*
X73699005Y-97501210D02*
G75*
G03*
X72837802Y-98203096I38796J-926886D01*
G01*
X70700000Y-99700000D02*
G75*
G03*
X72837801Y-98203096I1J2274999D01*
G01*
X73725000Y-102150000D02*
G75*
G03*
X72550000Y-103325000I2J-1175002D01*
G01*
X96300000Y-101150000D02*
X96300000Y-98500000D01*
X96150000Y-98075000D02*
X96150000Y-101625000D01*
X96050000Y-97925000D02*
X96050000Y-101675000D01*
X95950000Y-97825000D02*
X95950000Y-101775000D01*
X95850000Y-97725000D02*
X95850000Y-101925000D01*
X95700000Y-97625000D02*
X95700000Y-102025000D01*
X95550000Y-97575000D02*
X95550000Y-102075000D01*
X95400000Y-97525000D02*
X95400000Y-102075000D01*
X95300000Y-102150000D02*
X92725000Y-102150000D01*
X95300000Y-97500000D02*
X92700000Y-97500000D01*
X95250000Y-97525000D02*
X95250000Y-102125000D01*
X95100000Y-97525000D02*
X95100000Y-102125000D01*
X94950000Y-97525000D02*
X94950000Y-102125000D01*
X94800000Y-97525000D02*
X94800000Y-102125000D01*
X94650000Y-97525000D02*
X94650000Y-102125000D01*
X94500000Y-97525000D02*
X94500000Y-102125000D01*
X94350000Y-97525000D02*
X94350000Y-102125000D01*
X94200000Y-97525000D02*
X94200000Y-102125000D01*
X94050000Y-97525000D02*
X94050000Y-102125000D01*
X93900000Y-97525000D02*
X93900000Y-102125000D01*
X93750000Y-97525000D02*
X93750000Y-102125000D01*
X93600000Y-97525000D02*
X93600000Y-102125000D01*
X93450000Y-97525000D02*
X93450000Y-102125000D01*
X93300000Y-97525000D02*
X93300000Y-102125000D01*
X93150000Y-97525000D02*
X93150000Y-102125000D01*
X93000000Y-97525000D02*
X93000000Y-102125000D01*
X92850000Y-97525000D02*
X92850000Y-102075000D01*
X92700000Y-97525000D02*
X92700000Y-102125000D01*
X92550000Y-97525000D02*
X92550000Y-102125000D01*
X92400000Y-97575000D02*
X92400000Y-102125000D01*
X92250000Y-97675000D02*
X92250000Y-102225000D01*
X92100000Y-97775000D02*
X92100000Y-102275000D01*
X92000000Y-97925000D02*
X92000000Y-102325000D01*
X91900000Y-98175000D02*
X91900000Y-102375000D01*
X91800000Y-98325000D02*
X91800000Y-102475000D01*
X91700000Y-98525000D02*
X91700000Y-102675000D01*
X91600000Y-98675000D02*
X91600000Y-102825000D01*
X91500000Y-98875000D02*
X91500000Y-103325000D01*
X91350000Y-99025000D02*
X91350000Y-103475000D01*
X91200000Y-99175000D02*
X91200000Y-103575000D01*
X91050000Y-99275000D02*
X91050000Y-103675000D01*
X90900000Y-99375000D02*
X90900000Y-103825000D01*
X90750000Y-99475000D02*
X90750000Y-103925000D01*
X90600000Y-99525000D02*
X90600000Y-104075000D01*
X90450000Y-99625000D02*
X90450000Y-104175000D01*
X90300000Y-99675000D02*
X90300000Y-104275000D01*
X90275000Y-104350000D02*
X91550000Y-103325000D01*
X90275000Y-104350000D02*
X87725000Y-104350000D01*
X90150000Y-99675000D02*
X90150000Y-104325000D01*
X90000000Y-99675000D02*
X90000000Y-104325000D01*
X89850000Y-99725000D02*
X89850000Y-104275000D01*
X89700000Y-99725000D02*
X89700000Y-104325000D01*
X89700000Y-99700000D02*
X87725000Y-99700000D01*
X89550000Y-99725000D02*
X89550000Y-104325000D01*
X89400000Y-99725000D02*
X89400000Y-104325000D01*
X89250000Y-99725000D02*
X89250000Y-104325000D01*
X89100000Y-99725000D02*
X89100000Y-104325000D01*
X88950000Y-99725000D02*
X88950000Y-104325000D01*
X88800000Y-99725000D02*
X88800000Y-104325000D01*
X88650000Y-99725000D02*
X88650000Y-104325000D01*
X88500000Y-99725000D02*
X88500000Y-104325000D01*
X88350000Y-99725000D02*
X88350000Y-104325000D01*
X88200000Y-99725000D02*
X88200000Y-104325000D01*
X88050000Y-99725000D02*
X88050000Y-104325000D01*
X87900000Y-99725000D02*
X87900000Y-104325000D01*
X87750000Y-99725000D02*
X87750000Y-104325000D01*
X87600000Y-99875000D02*
X87600000Y-104225000D01*
X87450000Y-99975000D02*
X87450000Y-104075000D01*
X87300000Y-100125000D02*
X87300000Y-103925000D01*
X87150000Y-100275000D02*
X87150000Y-103775000D01*
X87000000Y-100475000D02*
X87000000Y-103625000D01*
X86850000Y-100575000D02*
X86850000Y-103475000D01*
X86700000Y-103325000D02*
X87725000Y-104350000D01*
X86700000Y-103325000D02*
X86700000Y-100725000D01*
X86700000Y-100725000D02*
X87725000Y-99700000D01*
X95300000Y-102150000D02*
G75*
G03*
X96300000Y-101150000I1J999999D01*
G01*
X96300000Y-98500000D02*
G75*
G03*
X95300000Y-97500000I-999999J1D01*
G01*
X92699005Y-97501210D02*
G75*
G03*
X91837802Y-98203096I38796J-926886D01*
G01*
X89700000Y-99700000D02*
G75*
G03*
X91837801Y-98203096I1J2274999D01*
G01*
X92725000Y-102150000D02*
G75*
G03*
X91550000Y-103325000I2J-1175002D01*
G01*
X115300000Y-96400000D02*
X115300000Y-93750000D01*
X115150000Y-93325000D02*
X115150000Y-96875000D01*
X115050000Y-93175000D02*
X115050000Y-96925000D01*
X114950000Y-93075000D02*
X114950000Y-97025000D01*
X114850000Y-92975000D02*
X114850000Y-97175000D01*
X114700000Y-92875000D02*
X114700000Y-97275000D01*
X114550000Y-92825000D02*
X114550000Y-97325000D01*
X114400000Y-92775000D02*
X114400000Y-97325000D01*
X114300000Y-97400000D02*
X111725000Y-97400000D01*
X114300000Y-92750000D02*
X111700000Y-92750000D01*
X114250000Y-92775000D02*
X114250000Y-97375000D01*
X114100000Y-92775000D02*
X114100000Y-97375000D01*
X113950000Y-92775000D02*
X113950000Y-97375000D01*
X113800000Y-92775000D02*
X113800000Y-97375000D01*
X113650000Y-92775000D02*
X113650000Y-97375000D01*
X113500000Y-92775000D02*
X113500000Y-97375000D01*
X113350000Y-92775000D02*
X113350000Y-97375000D01*
X113200000Y-92775000D02*
X113200000Y-97375000D01*
X113050000Y-92775000D02*
X113050000Y-97375000D01*
X112900000Y-92775000D02*
X112900000Y-97375000D01*
X112750000Y-92775000D02*
X112750000Y-97375000D01*
X112600000Y-92775000D02*
X112600000Y-97375000D01*
X112450000Y-92775000D02*
X112450000Y-97375000D01*
X112300000Y-92775000D02*
X112300000Y-97375000D01*
X112150000Y-92775000D02*
X112150000Y-97375000D01*
X112000000Y-92775000D02*
X112000000Y-97375000D01*
X111850000Y-92775000D02*
X111850000Y-97325000D01*
X111700000Y-92775000D02*
X111700000Y-97375000D01*
X111550000Y-92775000D02*
X111550000Y-97375000D01*
X111400000Y-92825000D02*
X111400000Y-97375000D01*
X111250000Y-92925000D02*
X111250000Y-97475000D01*
X111100000Y-93025000D02*
X111100000Y-97525000D01*
X111000000Y-93175000D02*
X111000000Y-97575000D01*
X110900000Y-93425000D02*
X110900000Y-97625000D01*
X110800000Y-93575000D02*
X110800000Y-97725000D01*
X110700000Y-93775000D02*
X110700000Y-97925000D01*
X110600000Y-93925000D02*
X110600000Y-98075000D01*
X110500000Y-94125000D02*
X110500000Y-98575000D01*
X110350000Y-94275000D02*
X110350000Y-98725000D01*
X110200000Y-94425000D02*
X110200000Y-98825000D01*
X110050000Y-94525000D02*
X110050000Y-98925000D01*
X109900000Y-94625000D02*
X109900000Y-99075000D01*
X109750000Y-94725000D02*
X109750000Y-99175000D01*
X109600000Y-94775000D02*
X109600000Y-99325000D01*
X109450000Y-94875000D02*
X109450000Y-99425000D01*
X109300000Y-94925000D02*
X109300000Y-99525000D01*
X109275000Y-99600000D02*
X110550000Y-98575000D01*
X109275000Y-99600000D02*
X106725000Y-99600000D01*
X109150000Y-94925000D02*
X109150000Y-99575000D01*
X109000000Y-94925000D02*
X109000000Y-99575000D01*
X108850000Y-94975000D02*
X108850000Y-99525000D01*
X108700000Y-94975000D02*
X108700000Y-99575000D01*
X108700000Y-94950000D02*
X106725000Y-94950000D01*
X108550000Y-94975000D02*
X108550000Y-99575000D01*
X108400000Y-94975000D02*
X108400000Y-99575000D01*
X108250000Y-94975000D02*
X108250000Y-99575000D01*
X108100000Y-94975000D02*
X108100000Y-99575000D01*
X107950000Y-94975000D02*
X107950000Y-99575000D01*
X107800000Y-94975000D02*
X107800000Y-99575000D01*
X107650000Y-94975000D02*
X107650000Y-99575000D01*
X107500000Y-94975000D02*
X107500000Y-99575000D01*
X107350000Y-94975000D02*
X107350000Y-99575000D01*
X107200000Y-94975000D02*
X107200000Y-99575000D01*
X107050000Y-94975000D02*
X107050000Y-99575000D01*
X106900000Y-94975000D02*
X106900000Y-99575000D01*
X106750000Y-94975000D02*
X106750000Y-99575000D01*
X106600000Y-95125000D02*
X106600000Y-99475000D01*
X106450000Y-95225000D02*
X106450000Y-99325000D01*
X106300000Y-95375000D02*
X106300000Y-99175000D01*
X106150000Y-95525000D02*
X106150000Y-99025000D01*
X106000000Y-95725000D02*
X106000000Y-98875000D01*
X105850000Y-95825000D02*
X105850000Y-98725000D01*
X105700000Y-98575000D02*
X106725000Y-99600000D01*
X105700000Y-98575000D02*
X105700000Y-95975000D01*
X105700000Y-95975000D02*
X106725000Y-94950000D01*
X114300000Y-97400000D02*
G75*
G03*
X115300000Y-96400000I1J999999D01*
G01*
X115300000Y-93750000D02*
G75*
G03*
X114300000Y-92750000I-999999J1D01*
G01*
X111699005Y-92751210D02*
G75*
G03*
X110837802Y-93453096I38796J-926886D01*
G01*
X108700000Y-94950000D02*
G75*
G03*
X110837801Y-93453096I1J2274999D01*
G01*
X111725000Y-97400000D02*
G75*
G03*
X110550000Y-98575000I2J-1175002D01*
G01*
X134300000Y-94025000D02*
X134300000Y-91375000D01*
X134150000Y-90950000D02*
X134150000Y-94500000D01*
X134050000Y-90800000D02*
X134050000Y-94550000D01*
X133950000Y-90700000D02*
X133950000Y-94650000D01*
X133850000Y-90600000D02*
X133850000Y-94800000D01*
X133700000Y-90500000D02*
X133700000Y-94900000D01*
X133550000Y-90450000D02*
X133550000Y-94950000D01*
X133400000Y-90400000D02*
X133400000Y-94950000D01*
X133300000Y-95025000D02*
X130725000Y-95025000D01*
X133300000Y-90375000D02*
X130700000Y-90375000D01*
X133250000Y-90400000D02*
X133250000Y-95000000D01*
X133100000Y-90400000D02*
X133100000Y-95000000D01*
X132950000Y-90400000D02*
X132950000Y-95000000D01*
X132800000Y-90400000D02*
X132800000Y-95000000D01*
X132650000Y-90400000D02*
X132650000Y-95000000D01*
X132500000Y-90400000D02*
X132500000Y-95000000D01*
X132350000Y-90400000D02*
X132350000Y-95000000D01*
X132200000Y-90400000D02*
X132200000Y-95000000D01*
X132050000Y-90400000D02*
X132050000Y-95000000D01*
X131900000Y-90400000D02*
X131900000Y-95000000D01*
X131750000Y-90400000D02*
X131750000Y-95000000D01*
X131600000Y-90400000D02*
X131600000Y-95000000D01*
X131450000Y-90400000D02*
X131450000Y-95000000D01*
X131300000Y-90400000D02*
X131300000Y-95000000D01*
X131150000Y-90400000D02*
X131150000Y-95000000D01*
X131000000Y-90400000D02*
X131000000Y-95000000D01*
X130850000Y-90400000D02*
X130850000Y-94950000D01*
X130700000Y-90400000D02*
X130700000Y-95000000D01*
X130550000Y-90400000D02*
X130550000Y-95000000D01*
X130400000Y-90450000D02*
X130400000Y-95000000D01*
X130250000Y-90550000D02*
X130250000Y-95100000D01*
X130100000Y-90650000D02*
X130100000Y-95150000D01*
X130000000Y-90800000D02*
X130000000Y-95200000D01*
X129900000Y-91050000D02*
X129900000Y-95250000D01*
X129800000Y-91200000D02*
X129800000Y-95350000D01*
X129700000Y-91400000D02*
X129700000Y-95550000D01*
X129600000Y-91550000D02*
X129600000Y-95700000D01*
X129500000Y-91750000D02*
X129500000Y-96200000D01*
X129350000Y-91900000D02*
X129350000Y-96350000D01*
X129200000Y-92050000D02*
X129200000Y-96450000D01*
X129050000Y-92150000D02*
X129050000Y-96550000D01*
X128900000Y-92250000D02*
X128900000Y-96700000D01*
X128750000Y-92350000D02*
X128750000Y-96800000D01*
X128600000Y-92400000D02*
X128600000Y-96950000D01*
X128450000Y-92500000D02*
X128450000Y-97050000D01*
X128300000Y-92550000D02*
X128300000Y-97150000D01*
X128275000Y-97225000D02*
X129550000Y-96200000D01*
X128275000Y-97225000D02*
X125725000Y-97225000D01*
X128150000Y-92550000D02*
X128150000Y-97200000D01*
X128000000Y-92550000D02*
X128000000Y-97200000D01*
X127850000Y-92600000D02*
X127850000Y-97150000D01*
X127700000Y-92600000D02*
X127700000Y-97200000D01*
X127700000Y-92575000D02*
X125725000Y-92575000D01*
X127550000Y-92600000D02*
X127550000Y-97200000D01*
X127400000Y-92600000D02*
X127400000Y-97200000D01*
X127250000Y-92600000D02*
X127250000Y-97200000D01*
X127100000Y-92600000D02*
X127100000Y-97200000D01*
X126950000Y-92600000D02*
X126950000Y-97200000D01*
X126800000Y-92600000D02*
X126800000Y-97200000D01*
X126650000Y-92600000D02*
X126650000Y-97200000D01*
X126500000Y-92600000D02*
X126500000Y-97200000D01*
X126350000Y-92600000D02*
X126350000Y-97200000D01*
X126200000Y-92600000D02*
X126200000Y-97200000D01*
X126050000Y-92600000D02*
X126050000Y-97200000D01*
X125900000Y-92600000D02*
X125900000Y-97200000D01*
X125750000Y-92600000D02*
X125750000Y-97200000D01*
X125600000Y-92750000D02*
X125600000Y-97100000D01*
X125450000Y-92850000D02*
X125450000Y-96950000D01*
X125300000Y-93000000D02*
X125300000Y-96800000D01*
X125150000Y-93150000D02*
X125150000Y-96650000D01*
X125000000Y-93350000D02*
X125000000Y-96500000D01*
X124850000Y-93450000D02*
X124850000Y-96350000D01*
X124700000Y-96200000D02*
X125725000Y-97225000D01*
X124700000Y-96200000D02*
X124700000Y-93600000D01*
X124700000Y-93600000D02*
X125725000Y-92575000D01*
X133300000Y-95025000D02*
G75*
G03*
X134300000Y-94025000I1J999999D01*
G01*
X134300000Y-91375000D02*
G75*
G03*
X133300000Y-90375000I-999999J1D01*
G01*
X130699005Y-90376210D02*
G75*
G03*
X129837802Y-91078096I38796J-926886D01*
G01*
X127700000Y-92575000D02*
G75*
G03*
X129837801Y-91078096I1J2274999D01*
G01*
X130725000Y-95025000D02*
G75*
G03*
X129550000Y-96200000I2J-1175002D01*
G01*
X153300000Y-96400000D02*
X153300000Y-93750000D01*
X153150000Y-93325000D02*
X153150000Y-96875000D01*
X153050000Y-93175000D02*
X153050000Y-96925000D01*
X152950000Y-93075000D02*
X152950000Y-97025000D01*
X152850000Y-92975000D02*
X152850000Y-97175000D01*
X152700000Y-92875000D02*
X152700000Y-97275000D01*
X152550000Y-92825000D02*
X152550000Y-97325000D01*
X152400000Y-92775000D02*
X152400000Y-97325000D01*
X152300000Y-97400000D02*
X149725000Y-97400000D01*
X152300000Y-92750000D02*
X149700000Y-92750000D01*
X152250000Y-92775000D02*
X152250000Y-97375000D01*
X152100000Y-92775000D02*
X152100000Y-97375000D01*
X151950000Y-92775000D02*
X151950000Y-97375000D01*
X151800000Y-92775000D02*
X151800000Y-97375000D01*
X151650000Y-92775000D02*
X151650000Y-97375000D01*
X151500000Y-92775000D02*
X151500000Y-97375000D01*
X151350000Y-92775000D02*
X151350000Y-97375000D01*
X151200000Y-92775000D02*
X151200000Y-97375000D01*
X151050000Y-92775000D02*
X151050000Y-97375000D01*
X150900000Y-92775000D02*
X150900000Y-97375000D01*
X150750000Y-92775000D02*
X150750000Y-97375000D01*
X150600000Y-92775000D02*
X150600000Y-97375000D01*
X150450000Y-92775000D02*
X150450000Y-97375000D01*
X150300000Y-92775000D02*
X150300000Y-97375000D01*
X150150000Y-92775000D02*
X150150000Y-97375000D01*
X150000000Y-92775000D02*
X150000000Y-97375000D01*
X149850000Y-92775000D02*
X149850000Y-97325000D01*
X149700000Y-92775000D02*
X149700000Y-97375000D01*
X149550000Y-92775000D02*
X149550000Y-97375000D01*
X149400000Y-92825000D02*
X149400000Y-97375000D01*
X149250000Y-92925000D02*
X149250000Y-97475000D01*
X149100000Y-93025000D02*
X149100000Y-97525000D01*
X149000000Y-93175000D02*
X149000000Y-97575000D01*
X148900000Y-93425000D02*
X148900000Y-97625000D01*
X148800000Y-93575000D02*
X148800000Y-97725000D01*
X148700000Y-93775000D02*
X148700000Y-97925000D01*
X148600000Y-93925000D02*
X148600000Y-98075000D01*
X148500000Y-94125000D02*
X148500000Y-98575000D01*
X148350000Y-94275000D02*
X148350000Y-98725000D01*
X148200000Y-94425000D02*
X148200000Y-98825000D01*
X148050000Y-94525000D02*
X148050000Y-98925000D01*
X147900000Y-94625000D02*
X147900000Y-99075000D01*
X147750000Y-94725000D02*
X147750000Y-99175000D01*
X147600000Y-94775000D02*
X147600000Y-99325000D01*
X147450000Y-94875000D02*
X147450000Y-99425000D01*
X147300000Y-94925000D02*
X147300000Y-99525000D01*
X147275000Y-99600000D02*
X148550000Y-98575000D01*
X147275000Y-99600000D02*
X144725000Y-99600000D01*
X147150000Y-94925000D02*
X147150000Y-99575000D01*
X147000000Y-94925000D02*
X147000000Y-99575000D01*
X146850000Y-94975000D02*
X146850000Y-99525000D01*
X146700000Y-94975000D02*
X146700000Y-99575000D01*
X146700000Y-94950000D02*
X144725000Y-94950000D01*
X146550000Y-94975000D02*
X146550000Y-99575000D01*
X146400000Y-94975000D02*
X146400000Y-99575000D01*
X146250000Y-94975000D02*
X146250000Y-99575000D01*
X146100000Y-94975000D02*
X146100000Y-99575000D01*
X145950000Y-94975000D02*
X145950000Y-99575000D01*
X145800000Y-94975000D02*
X145800000Y-99575000D01*
X145650000Y-94975000D02*
X145650000Y-99575000D01*
X145500000Y-94975000D02*
X145500000Y-99575000D01*
X145350000Y-94975000D02*
X145350000Y-99575000D01*
X145200000Y-94975000D02*
X145200000Y-99575000D01*
X145050000Y-94975000D02*
X145050000Y-99575000D01*
X144900000Y-94975000D02*
X144900000Y-99575000D01*
X144750000Y-94975000D02*
X144750000Y-99575000D01*
X144600000Y-95125000D02*
X144600000Y-99475000D01*
X144450000Y-95225000D02*
X144450000Y-99325000D01*
X144300000Y-95375000D02*
X144300000Y-99175000D01*
X144150000Y-95525000D02*
X144150000Y-99025000D01*
X144000000Y-95725000D02*
X144000000Y-98875000D01*
X143850000Y-95825000D02*
X143850000Y-98725000D01*
X143700000Y-98575000D02*
X144725000Y-99600000D01*
X143700000Y-98575000D02*
X143700000Y-95975000D01*
X143700000Y-95975000D02*
X144725000Y-94950000D01*
X152300000Y-97400000D02*
G75*
G03*
X153300000Y-96400000I1J999999D01*
G01*
X153300000Y-93750000D02*
G75*
G03*
X152300000Y-92750000I-999999J1D01*
G01*
X149699005Y-92751210D02*
G75*
G03*
X148837802Y-93453096I38796J-926886D01*
G01*
X146700000Y-94950000D02*
G75*
G03*
X148837801Y-93453096I1J2274999D01*
G01*
X149725000Y-97400000D02*
G75*
G03*
X148550000Y-98575000I2J-1175002D01*
G01*
X172300000Y-98775000D02*
X172300000Y-96125000D01*
X172150000Y-95700000D02*
X172150000Y-99250000D01*
X172050000Y-95550000D02*
X172050000Y-99300000D01*
X171950000Y-95450000D02*
X171950000Y-99400000D01*
X171850000Y-95350000D02*
X171850000Y-99550000D01*
X171700000Y-95250000D02*
X171700000Y-99650000D01*
X171550000Y-95200000D02*
X171550000Y-99700000D01*
X171400000Y-95150000D02*
X171400000Y-99700000D01*
X171300000Y-99775000D02*
X168725000Y-99775000D01*
X171300000Y-95125000D02*
X168700000Y-95125000D01*
X171250000Y-95150000D02*
X171250000Y-99750000D01*
X171100000Y-95150000D02*
X171100000Y-99750000D01*
X170950000Y-95150000D02*
X170950000Y-99750000D01*
X170800000Y-95150000D02*
X170800000Y-99750000D01*
X170650000Y-95150000D02*
X170650000Y-99750000D01*
X170500000Y-95150000D02*
X170500000Y-99750000D01*
X170350000Y-95150000D02*
X170350000Y-99750000D01*
X170200000Y-95150000D02*
X170200000Y-99750000D01*
X170050000Y-95150000D02*
X170050000Y-99750000D01*
X169900000Y-95150000D02*
X169900000Y-99750000D01*
X169750000Y-95150000D02*
X169750000Y-99750000D01*
X169600000Y-95150000D02*
X169600000Y-99750000D01*
X169450000Y-95150000D02*
X169450000Y-99750000D01*
X169300000Y-95150000D02*
X169300000Y-99750000D01*
X169150000Y-95150000D02*
X169150000Y-99750000D01*
X169000000Y-95150000D02*
X169000000Y-99750000D01*
X168850000Y-95150000D02*
X168850000Y-99700000D01*
X168700000Y-95150000D02*
X168700000Y-99750000D01*
X168550000Y-95150000D02*
X168550000Y-99750000D01*
X168400000Y-95200000D02*
X168400000Y-99750000D01*
X168250000Y-95300000D02*
X168250000Y-99850000D01*
X168100000Y-95400000D02*
X168100000Y-99900000D01*
X168000000Y-95550000D02*
X168000000Y-99950000D01*
X167900000Y-95800000D02*
X167900000Y-100000000D01*
X167800000Y-95950000D02*
X167800000Y-100100000D01*
X167700000Y-96150000D02*
X167700000Y-100300000D01*
X167600000Y-96300000D02*
X167600000Y-100450000D01*
X167500000Y-96500000D02*
X167500000Y-100950000D01*
X167350000Y-96650000D02*
X167350000Y-101100000D01*
X167200000Y-96800000D02*
X167200000Y-101200000D01*
X167050000Y-96900000D02*
X167050000Y-101300000D01*
X166900000Y-97000000D02*
X166900000Y-101450000D01*
X166750000Y-97100000D02*
X166750000Y-101550000D01*
X166600000Y-97150000D02*
X166600000Y-101700000D01*
X166450000Y-97250000D02*
X166450000Y-101800000D01*
X166300000Y-97300000D02*
X166300000Y-101900000D01*
X166275000Y-101975000D02*
X167550000Y-100950000D01*
X166275000Y-101975000D02*
X163725000Y-101975000D01*
X166150000Y-97300000D02*
X166150000Y-101950000D01*
X166000000Y-97300000D02*
X166000000Y-101950000D01*
X165850000Y-97350000D02*
X165850000Y-101900000D01*
X165700000Y-97350000D02*
X165700000Y-101950000D01*
X165700000Y-97325000D02*
X163725000Y-97325000D01*
X165550000Y-97350000D02*
X165550000Y-101950000D01*
X165400000Y-97350000D02*
X165400000Y-101950000D01*
X165250000Y-97350000D02*
X165250000Y-101950000D01*
X165100000Y-97350000D02*
X165100000Y-101950000D01*
X164950000Y-97350000D02*
X164950000Y-101950000D01*
X164800000Y-97350000D02*
X164800000Y-101950000D01*
X164650000Y-97350000D02*
X164650000Y-101950000D01*
X164500000Y-97350000D02*
X164500000Y-101950000D01*
X164350000Y-97350000D02*
X164350000Y-101950000D01*
X164200000Y-97350000D02*
X164200000Y-101950000D01*
X164050000Y-97350000D02*
X164050000Y-101950000D01*
X163900000Y-97350000D02*
X163900000Y-101950000D01*
X163750000Y-97350000D02*
X163750000Y-101950000D01*
X163600000Y-97500000D02*
X163600000Y-101850000D01*
X163450000Y-97600000D02*
X163450000Y-101700000D01*
X163300000Y-97750000D02*
X163300000Y-101550000D01*
X163150000Y-97900000D02*
X163150000Y-101400000D01*
X163000000Y-98100000D02*
X163000000Y-101250000D01*
X162850000Y-98200000D02*
X162850000Y-101100000D01*
X162700000Y-100950000D02*
X163725000Y-101975000D01*
X162700000Y-100950000D02*
X162700000Y-98350000D01*
X162700000Y-98350000D02*
X163725000Y-97325000D01*
X171300000Y-99775000D02*
G75*
G03*
X172300000Y-98775000I1J999999D01*
G01*
X172300000Y-96125000D02*
G75*
G03*
X171300000Y-95125000I-999999J1D01*
G01*
X168699005Y-95126210D02*
G75*
G03*
X167837802Y-95828096I38796J-926886D01*
G01*
X165700000Y-97325000D02*
G75*
G03*
X167837801Y-95828096I1J2274999D01*
G01*
X168725000Y-99775000D02*
G75*
G03*
X167550000Y-100950000I2J-1175002D01*
G01*
X77300000Y-120150000D02*
X77300000Y-117500000D01*
X77150000Y-117075000D02*
X77150000Y-120625000D01*
X77050000Y-116925000D02*
X77050000Y-120675000D01*
X76950000Y-116825000D02*
X76950000Y-120775000D01*
X76850000Y-116725000D02*
X76850000Y-120925000D01*
X76700000Y-116625000D02*
X76700000Y-121025000D01*
X76550000Y-116575000D02*
X76550000Y-121075000D01*
X76400000Y-116525000D02*
X76400000Y-121075000D01*
X76300000Y-121150000D02*
X73725000Y-121150000D01*
X76300000Y-116500000D02*
X73700000Y-116500000D01*
X76250000Y-116525000D02*
X76250000Y-121125000D01*
X76100000Y-116525000D02*
X76100000Y-121125000D01*
X75950000Y-116525000D02*
X75950000Y-121125000D01*
X75800000Y-116525000D02*
X75800000Y-121125000D01*
X75650000Y-116525000D02*
X75650000Y-121125000D01*
X75500000Y-116525000D02*
X75500000Y-121125000D01*
X75350000Y-116525000D02*
X75350000Y-121125000D01*
X75200000Y-116525000D02*
X75200000Y-121125000D01*
X75050000Y-116525000D02*
X75050000Y-121125000D01*
X74900000Y-116525000D02*
X74900000Y-121125000D01*
X74750000Y-116525000D02*
X74750000Y-121125000D01*
X74600000Y-116525000D02*
X74600000Y-121125000D01*
X74450000Y-116525000D02*
X74450000Y-121125000D01*
X74300000Y-116525000D02*
X74300000Y-121125000D01*
X74150000Y-116525000D02*
X74150000Y-121125000D01*
X74000000Y-116525000D02*
X74000000Y-121125000D01*
X73850000Y-116525000D02*
X73850000Y-121075000D01*
X73700000Y-116525000D02*
X73700000Y-121125000D01*
X73550000Y-116525000D02*
X73550000Y-121125000D01*
X73400000Y-116575000D02*
X73400000Y-121125000D01*
X73250000Y-116675000D02*
X73250000Y-121225000D01*
X73100000Y-116775000D02*
X73100000Y-121275000D01*
X73000000Y-116925000D02*
X73000000Y-121325000D01*
X72900000Y-117175000D02*
X72900000Y-121375000D01*
X72800000Y-117325000D02*
X72800000Y-121475000D01*
X72700000Y-117525000D02*
X72700000Y-121675000D01*
X72600000Y-117675000D02*
X72600000Y-121825000D01*
X72500000Y-117875000D02*
X72500000Y-122325000D01*
X72350000Y-118025000D02*
X72350000Y-122475000D01*
X72200000Y-118175000D02*
X72200000Y-122575000D01*
X72050000Y-118275000D02*
X72050000Y-122675000D01*
X71900000Y-118375000D02*
X71900000Y-122825000D01*
X71750000Y-118475000D02*
X71750000Y-122925000D01*
X71600000Y-118525000D02*
X71600000Y-123075000D01*
X71450000Y-118625000D02*
X71450000Y-123175000D01*
X71300000Y-118675000D02*
X71300000Y-123275000D01*
X71275000Y-123350000D02*
X72550000Y-122325000D01*
X71275000Y-123350000D02*
X68725000Y-123350000D01*
X71150000Y-118675000D02*
X71150000Y-123325000D01*
X71000000Y-118675000D02*
X71000000Y-123325000D01*
X70850000Y-118725000D02*
X70850000Y-123275000D01*
X70700000Y-118725000D02*
X70700000Y-123325000D01*
X70700000Y-118700000D02*
X68725000Y-118700000D01*
X70550000Y-118725000D02*
X70550000Y-123325000D01*
X70400000Y-118725000D02*
X70400000Y-123325000D01*
X70250000Y-118725000D02*
X70250000Y-123325000D01*
X70100000Y-118725000D02*
X70100000Y-123325000D01*
X69950000Y-118725000D02*
X69950000Y-123325000D01*
X69800000Y-118725000D02*
X69800000Y-123325000D01*
X69650000Y-118725000D02*
X69650000Y-123325000D01*
X69500000Y-118725000D02*
X69500000Y-123325000D01*
X69350000Y-118725000D02*
X69350000Y-123325000D01*
X69200000Y-118725000D02*
X69200000Y-123325000D01*
X69050000Y-118725000D02*
X69050000Y-123325000D01*
X68900000Y-118725000D02*
X68900000Y-123325000D01*
X68750000Y-118725000D02*
X68750000Y-123325000D01*
X68600000Y-118875000D02*
X68600000Y-123225000D01*
X68450000Y-118975000D02*
X68450000Y-123075000D01*
X68300000Y-119125000D02*
X68300000Y-122925000D01*
X68150000Y-119275000D02*
X68150000Y-122775000D01*
X68000000Y-119475000D02*
X68000000Y-122625000D01*
X67850000Y-119575000D02*
X67850000Y-122475000D01*
X67700000Y-122325000D02*
X68725000Y-123350000D01*
X67700000Y-122325000D02*
X67700000Y-119725000D01*
X67700000Y-119725000D02*
X68725000Y-118700000D01*
X76300000Y-121150000D02*
G75*
G03*
X77300000Y-120150000I1J999999D01*
G01*
X77300000Y-117500000D02*
G75*
G03*
X76300000Y-116500000I-999999J1D01*
G01*
X73699005Y-116501210D02*
G75*
G03*
X72837802Y-117203096I38796J-926886D01*
G01*
X70700000Y-118700000D02*
G75*
G03*
X72837801Y-117203096I1J2274999D01*
G01*
X73725000Y-121150000D02*
G75*
G03*
X72550000Y-122325000I2J-1175002D01*
G01*
X96300000Y-120150000D02*
X96300000Y-117500000D01*
X96150000Y-117075000D02*
X96150000Y-120625000D01*
X96050000Y-116925000D02*
X96050000Y-120675000D01*
X95950000Y-116825000D02*
X95950000Y-120775000D01*
X95850000Y-116725000D02*
X95850000Y-120925000D01*
X95700000Y-116625000D02*
X95700000Y-121025000D01*
X95550000Y-116575000D02*
X95550000Y-121075000D01*
X95400000Y-116525000D02*
X95400000Y-121075000D01*
X95300000Y-121150000D02*
X92725000Y-121150000D01*
X95300000Y-116500000D02*
X92700000Y-116500000D01*
X95250000Y-116525000D02*
X95250000Y-121125000D01*
X95100000Y-116525000D02*
X95100000Y-121125000D01*
X94950000Y-116525000D02*
X94950000Y-121125000D01*
X94800000Y-116525000D02*
X94800000Y-121125000D01*
X94650000Y-116525000D02*
X94650000Y-121125000D01*
X94500000Y-116525000D02*
X94500000Y-121125000D01*
X94350000Y-116525000D02*
X94350000Y-121125000D01*
X94200000Y-116525000D02*
X94200000Y-121125000D01*
X94050000Y-116525000D02*
X94050000Y-121125000D01*
X93900000Y-116525000D02*
X93900000Y-121125000D01*
X93750000Y-116525000D02*
X93750000Y-121125000D01*
X93600000Y-116525000D02*
X93600000Y-121125000D01*
X93450000Y-116525000D02*
X93450000Y-121125000D01*
X93300000Y-116525000D02*
X93300000Y-121125000D01*
X93150000Y-116525000D02*
X93150000Y-121125000D01*
X93000000Y-116525000D02*
X93000000Y-121125000D01*
X92850000Y-116525000D02*
X92850000Y-121075000D01*
X92700000Y-116525000D02*
X92700000Y-121125000D01*
X92550000Y-116525000D02*
X92550000Y-121125000D01*
X92400000Y-116575000D02*
X92400000Y-121125000D01*
X92250000Y-116675000D02*
X92250000Y-121225000D01*
X92100000Y-116775000D02*
X92100000Y-121275000D01*
X92000000Y-116925000D02*
X92000000Y-121325000D01*
X91900000Y-117175000D02*
X91900000Y-121375000D01*
X91800000Y-117325000D02*
X91800000Y-121475000D01*
X91700000Y-117525000D02*
X91700000Y-121675000D01*
X91600000Y-117675000D02*
X91600000Y-121825000D01*
X91500000Y-117875000D02*
X91500000Y-122325000D01*
X91350000Y-118025000D02*
X91350000Y-122475000D01*
X91200000Y-118175000D02*
X91200000Y-122575000D01*
X91050000Y-118275000D02*
X91050000Y-122675000D01*
X90900000Y-118375000D02*
X90900000Y-122825000D01*
X90750000Y-118475000D02*
X90750000Y-122925000D01*
X90600000Y-118525000D02*
X90600000Y-123075000D01*
X90450000Y-118625000D02*
X90450000Y-123175000D01*
X90300000Y-118675000D02*
X90300000Y-123275000D01*
X90275000Y-123350000D02*
X91550000Y-122325000D01*
X90275000Y-123350000D02*
X87725000Y-123350000D01*
X90150000Y-118675000D02*
X90150000Y-123325000D01*
X90000000Y-118675000D02*
X90000000Y-123325000D01*
X89850000Y-118725000D02*
X89850000Y-123275000D01*
X89700000Y-118725000D02*
X89700000Y-123325000D01*
X89700000Y-118700000D02*
X87725000Y-118700000D01*
X89550000Y-118725000D02*
X89550000Y-123325000D01*
X89400000Y-118725000D02*
X89400000Y-123325000D01*
X89250000Y-118725000D02*
X89250000Y-123325000D01*
X89100000Y-118725000D02*
X89100000Y-123325000D01*
X88950000Y-118725000D02*
X88950000Y-123325000D01*
X88800000Y-118725000D02*
X88800000Y-123325000D01*
X88650000Y-118725000D02*
X88650000Y-123325000D01*
X88500000Y-118725000D02*
X88500000Y-123325000D01*
X88350000Y-118725000D02*
X88350000Y-123325000D01*
X88200000Y-118725000D02*
X88200000Y-123325000D01*
X88050000Y-118725000D02*
X88050000Y-123325000D01*
X87900000Y-118725000D02*
X87900000Y-123325000D01*
X87750000Y-118725000D02*
X87750000Y-123325000D01*
X87600000Y-118875000D02*
X87600000Y-123225000D01*
X87450000Y-118975000D02*
X87450000Y-123075000D01*
X87300000Y-119125000D02*
X87300000Y-122925000D01*
X87150000Y-119275000D02*
X87150000Y-122775000D01*
X87000000Y-119475000D02*
X87000000Y-122625000D01*
X86850000Y-119575000D02*
X86850000Y-122475000D01*
X86700000Y-122325000D02*
X87725000Y-123350000D01*
X86700000Y-122325000D02*
X86700000Y-119725000D01*
X86700000Y-119725000D02*
X87725000Y-118700000D01*
X95300000Y-121150000D02*
G75*
G03*
X96300000Y-120150000I1J999999D01*
G01*
X96300000Y-117500000D02*
G75*
G03*
X95300000Y-116500000I-999999J1D01*
G01*
X92699005Y-116501210D02*
G75*
G03*
X91837802Y-117203096I38796J-926886D01*
G01*
X89700000Y-118700000D02*
G75*
G03*
X91837801Y-117203096I1J2274999D01*
G01*
X92725000Y-121150000D02*
G75*
G03*
X91550000Y-122325000I2J-1175002D01*
G01*
X115300000Y-115400000D02*
X115300000Y-112750000D01*
X115150000Y-112325000D02*
X115150000Y-115875000D01*
X115050000Y-112175000D02*
X115050000Y-115925000D01*
X114950000Y-112075000D02*
X114950000Y-116025000D01*
X114850000Y-111975000D02*
X114850000Y-116175000D01*
X114700000Y-111875000D02*
X114700000Y-116275000D01*
X114550000Y-111825000D02*
X114550000Y-116325000D01*
X114400000Y-111775000D02*
X114400000Y-116325000D01*
X114300000Y-116400000D02*
X111725000Y-116400000D01*
X114300000Y-111750000D02*
X111700000Y-111750000D01*
X114250000Y-111775000D02*
X114250000Y-116375000D01*
X114100000Y-111775000D02*
X114100000Y-116375000D01*
X113950000Y-111775000D02*
X113950000Y-116375000D01*
X113800000Y-111775000D02*
X113800000Y-116375000D01*
X113650000Y-111775000D02*
X113650000Y-116375000D01*
X113500000Y-111775000D02*
X113500000Y-116375000D01*
X113350000Y-111775000D02*
X113350000Y-116375000D01*
X113200000Y-111775000D02*
X113200000Y-116375000D01*
X113050000Y-111775000D02*
X113050000Y-116375000D01*
X112900000Y-111775000D02*
X112900000Y-116375000D01*
X112750000Y-111775000D02*
X112750000Y-116375000D01*
X112600000Y-111775000D02*
X112600000Y-116375000D01*
X112450000Y-111775000D02*
X112450000Y-116375000D01*
X112300000Y-111775000D02*
X112300000Y-116375000D01*
X112150000Y-111775000D02*
X112150000Y-116375000D01*
X112000000Y-111775000D02*
X112000000Y-116375000D01*
X111850000Y-111775000D02*
X111850000Y-116325000D01*
X111700000Y-111775000D02*
X111700000Y-116375000D01*
X111550000Y-111775000D02*
X111550000Y-116375000D01*
X111400000Y-111825000D02*
X111400000Y-116375000D01*
X111250000Y-111925000D02*
X111250000Y-116475000D01*
X111100000Y-112025000D02*
X111100000Y-116525000D01*
X111000000Y-112175000D02*
X111000000Y-116575000D01*
X110900000Y-112425000D02*
X110900000Y-116625000D01*
X110800000Y-112575000D02*
X110800000Y-116725000D01*
X110700000Y-112775000D02*
X110700000Y-116925000D01*
X110600000Y-112925000D02*
X110600000Y-117075000D01*
X110500000Y-113125000D02*
X110500000Y-117575000D01*
X110350000Y-113275000D02*
X110350000Y-117725000D01*
X110200000Y-113425000D02*
X110200000Y-117825000D01*
X110050000Y-113525000D02*
X110050000Y-117925000D01*
X109900000Y-113625000D02*
X109900000Y-118075000D01*
X109750000Y-113725000D02*
X109750000Y-118175000D01*
X109600000Y-113775000D02*
X109600000Y-118325000D01*
X109450000Y-113875000D02*
X109450000Y-118425000D01*
X109300000Y-113925000D02*
X109300000Y-118525000D01*
X109275000Y-118600000D02*
X110550000Y-117575000D01*
X109275000Y-118600000D02*
X106725000Y-118600000D01*
X109150000Y-113925000D02*
X109150000Y-118575000D01*
X109000000Y-113925000D02*
X109000000Y-118575000D01*
X108850000Y-113975000D02*
X108850000Y-118525000D01*
X108700000Y-113975000D02*
X108700000Y-118575000D01*
X108700000Y-113950000D02*
X106725000Y-113950000D01*
X108550000Y-113975000D02*
X108550000Y-118575000D01*
X108400000Y-113975000D02*
X108400000Y-118575000D01*
X108250000Y-113975000D02*
X108250000Y-118575000D01*
X108100000Y-113975000D02*
X108100000Y-118575000D01*
X107950000Y-113975000D02*
X107950000Y-118575000D01*
X107800000Y-113975000D02*
X107800000Y-118575000D01*
X107650000Y-113975000D02*
X107650000Y-118575000D01*
X107500000Y-113975000D02*
X107500000Y-118575000D01*
X107350000Y-113975000D02*
X107350000Y-118575000D01*
X107200000Y-113975000D02*
X107200000Y-118575000D01*
X107050000Y-113975000D02*
X107050000Y-118575000D01*
X106900000Y-113975000D02*
X106900000Y-118575000D01*
X106750000Y-113975000D02*
X106750000Y-118575000D01*
X106600000Y-114125000D02*
X106600000Y-118475000D01*
X106450000Y-114225000D02*
X106450000Y-118325000D01*
X106300000Y-114375000D02*
X106300000Y-118175000D01*
X106150000Y-114525000D02*
X106150000Y-118025000D01*
X106000000Y-114725000D02*
X106000000Y-117875000D01*
X105850000Y-114825000D02*
X105850000Y-117725000D01*
X105700000Y-117575000D02*
X106725000Y-118600000D01*
X105700000Y-117575000D02*
X105700000Y-114975000D01*
X105700000Y-114975000D02*
X106725000Y-113950000D01*
X114300000Y-116400000D02*
G75*
G03*
X115300000Y-115400000I1J999999D01*
G01*
X115300000Y-112750000D02*
G75*
G03*
X114300000Y-111750000I-999999J1D01*
G01*
X111699005Y-111751210D02*
G75*
G03*
X110837802Y-112453096I38796J-926886D01*
G01*
X108700000Y-113950000D02*
G75*
G03*
X110837801Y-112453096I1J2274999D01*
G01*
X111725000Y-116400000D02*
G75*
G03*
X110550000Y-117575000I2J-1175002D01*
G01*
X134300000Y-113025000D02*
X134300000Y-110375000D01*
X134150000Y-109950000D02*
X134150000Y-113500000D01*
X134050000Y-109800000D02*
X134050000Y-113550000D01*
X133950000Y-109700000D02*
X133950000Y-113650000D01*
X133850000Y-109600000D02*
X133850000Y-113800000D01*
X133700000Y-109500000D02*
X133700000Y-113900000D01*
X133550000Y-109450000D02*
X133550000Y-113950000D01*
X133400000Y-109400000D02*
X133400000Y-113950000D01*
X133300000Y-114025000D02*
X130725000Y-114025000D01*
X133300000Y-109375000D02*
X130700000Y-109375000D01*
X133250000Y-109400000D02*
X133250000Y-114000000D01*
X133100000Y-109400000D02*
X133100000Y-114000000D01*
X132950000Y-109400000D02*
X132950000Y-114000000D01*
X132800000Y-109400000D02*
X132800000Y-114000000D01*
X132650000Y-109400000D02*
X132650000Y-114000000D01*
X132500000Y-109400000D02*
X132500000Y-114000000D01*
X132350000Y-109400000D02*
X132350000Y-114000000D01*
X132200000Y-109400000D02*
X132200000Y-114000000D01*
X132050000Y-109400000D02*
X132050000Y-114000000D01*
X131900000Y-109400000D02*
X131900000Y-114000000D01*
X131750000Y-109400000D02*
X131750000Y-114000000D01*
X131600000Y-109400000D02*
X131600000Y-114000000D01*
X131450000Y-109400000D02*
X131450000Y-114000000D01*
X131300000Y-109400000D02*
X131300000Y-114000000D01*
X131150000Y-109400000D02*
X131150000Y-114000000D01*
X131000000Y-109400000D02*
X131000000Y-114000000D01*
X130850000Y-109400000D02*
X130850000Y-113950000D01*
X130700000Y-109400000D02*
X130700000Y-114000000D01*
X130550000Y-109400000D02*
X130550000Y-114000000D01*
X130400000Y-109450000D02*
X130400000Y-114000000D01*
X130250000Y-109550000D02*
X130250000Y-114100000D01*
X130100000Y-109650000D02*
X130100000Y-114150000D01*
X130000000Y-109800000D02*
X130000000Y-114200000D01*
X129900000Y-110050000D02*
X129900000Y-114250000D01*
X129800000Y-110200000D02*
X129800000Y-114350000D01*
X129700000Y-110400000D02*
X129700000Y-114550000D01*
X129600000Y-110550000D02*
X129600000Y-114700000D01*
X129500000Y-110750000D02*
X129500000Y-115200000D01*
X129350000Y-110900000D02*
X129350000Y-115350000D01*
X129200000Y-111050000D02*
X129200000Y-115450000D01*
X129050000Y-111150000D02*
X129050000Y-115550000D01*
X128900000Y-111250000D02*
X128900000Y-115700000D01*
X128750000Y-111350000D02*
X128750000Y-115800000D01*
X128600000Y-111400000D02*
X128600000Y-115950000D01*
X128450000Y-111500000D02*
X128450000Y-116050000D01*
X128300000Y-111550000D02*
X128300000Y-116150000D01*
X128275000Y-116225000D02*
X129550000Y-115200000D01*
X128275000Y-116225000D02*
X125725000Y-116225000D01*
X128150000Y-111550000D02*
X128150000Y-116200000D01*
X128000000Y-111550000D02*
X128000000Y-116200000D01*
X127850000Y-111600000D02*
X127850000Y-116150000D01*
X127700000Y-111600000D02*
X127700000Y-116200000D01*
X127700000Y-111575000D02*
X125725000Y-111575000D01*
X127550000Y-111600000D02*
X127550000Y-116200000D01*
X127400000Y-111600000D02*
X127400000Y-116200000D01*
X127250000Y-111600000D02*
X127250000Y-116200000D01*
X127100000Y-111600000D02*
X127100000Y-116200000D01*
X126950000Y-111600000D02*
X126950000Y-116200000D01*
X126800000Y-111600000D02*
X126800000Y-116200000D01*
X126650000Y-111600000D02*
X126650000Y-116200000D01*
X126500000Y-111600000D02*
X126500000Y-116200000D01*
X126350000Y-111600000D02*
X126350000Y-116200000D01*
X126200000Y-111600000D02*
X126200000Y-116200000D01*
X126050000Y-111600000D02*
X126050000Y-116200000D01*
X125900000Y-111600000D02*
X125900000Y-116200000D01*
X125750000Y-111600000D02*
X125750000Y-116200000D01*
X125600000Y-111750000D02*
X125600000Y-116100000D01*
X125450000Y-111850000D02*
X125450000Y-115950000D01*
X125300000Y-112000000D02*
X125300000Y-115800000D01*
X125150000Y-112150000D02*
X125150000Y-115650000D01*
X125000000Y-112350000D02*
X125000000Y-115500000D01*
X124850000Y-112450000D02*
X124850000Y-115350000D01*
X124700000Y-115200000D02*
X125725000Y-116225000D01*
X124700000Y-115200000D02*
X124700000Y-112600000D01*
X124700000Y-112600000D02*
X125725000Y-111575000D01*
X133300000Y-114025000D02*
G75*
G03*
X134300000Y-113025000I1J999999D01*
G01*
X134300000Y-110375000D02*
G75*
G03*
X133300000Y-109375000I-999999J1D01*
G01*
X130699005Y-109376210D02*
G75*
G03*
X129837802Y-110078096I38796J-926886D01*
G01*
X127700000Y-111575000D02*
G75*
G03*
X129837801Y-110078096I1J2274999D01*
G01*
X130725000Y-114025000D02*
G75*
G03*
X129550000Y-115200000I2J-1175002D01*
G01*
X153300000Y-115400000D02*
X153300000Y-112750000D01*
X153150000Y-112325000D02*
X153150000Y-115875000D01*
X153050000Y-112175000D02*
X153050000Y-115925000D01*
X152950000Y-112075000D02*
X152950000Y-116025000D01*
X152850000Y-111975000D02*
X152850000Y-116175000D01*
X152700000Y-111875000D02*
X152700000Y-116275000D01*
X152550000Y-111825000D02*
X152550000Y-116325000D01*
X152400000Y-111775000D02*
X152400000Y-116325000D01*
X152300000Y-116400000D02*
X149725000Y-116400000D01*
X152300000Y-111750000D02*
X149700000Y-111750000D01*
X152250000Y-111775000D02*
X152250000Y-116375000D01*
X152100000Y-111775000D02*
X152100000Y-116375000D01*
X151950000Y-111775000D02*
X151950000Y-116375000D01*
X151800000Y-111775000D02*
X151800000Y-116375000D01*
X151650000Y-111775000D02*
X151650000Y-116375000D01*
X151500000Y-111775000D02*
X151500000Y-116375000D01*
X151350000Y-111775000D02*
X151350000Y-116375000D01*
X151200000Y-111775000D02*
X151200000Y-116375000D01*
X151050000Y-111775000D02*
X151050000Y-116375000D01*
X150900000Y-111775000D02*
X150900000Y-116375000D01*
X150750000Y-111775000D02*
X150750000Y-116375000D01*
X150600000Y-111775000D02*
X150600000Y-116375000D01*
X150450000Y-111775000D02*
X150450000Y-116375000D01*
X150300000Y-111775000D02*
X150300000Y-116375000D01*
X150150000Y-111775000D02*
X150150000Y-116375000D01*
X150000000Y-111775000D02*
X150000000Y-116375000D01*
X149850000Y-111775000D02*
X149850000Y-116325000D01*
X149700000Y-111775000D02*
X149700000Y-116375000D01*
X149550000Y-111775000D02*
X149550000Y-116375000D01*
X149400000Y-111825000D02*
X149400000Y-116375000D01*
X149250000Y-111925000D02*
X149250000Y-116475000D01*
X149100000Y-112025000D02*
X149100000Y-116525000D01*
X149000000Y-112175000D02*
X149000000Y-116575000D01*
X148900000Y-112425000D02*
X148900000Y-116625000D01*
X148800000Y-112575000D02*
X148800000Y-116725000D01*
X148700000Y-112775000D02*
X148700000Y-116925000D01*
X148600000Y-112925000D02*
X148600000Y-117075000D01*
X148500000Y-113125000D02*
X148500000Y-117575000D01*
X148350000Y-113275000D02*
X148350000Y-117725000D01*
X148200000Y-113425000D02*
X148200000Y-117825000D01*
X148050000Y-113525000D02*
X148050000Y-117925000D01*
X147900000Y-113625000D02*
X147900000Y-118075000D01*
X147750000Y-113725000D02*
X147750000Y-118175000D01*
X147600000Y-113775000D02*
X147600000Y-118325000D01*
X147450000Y-113875000D02*
X147450000Y-118425000D01*
X147300000Y-113925000D02*
X147300000Y-118525000D01*
X147275000Y-118600000D02*
X148550000Y-117575000D01*
X147275000Y-118600000D02*
X144725000Y-118600000D01*
X147150000Y-113925000D02*
X147150000Y-118575000D01*
X147000000Y-113925000D02*
X147000000Y-118575000D01*
X146850000Y-113975000D02*
X146850000Y-118525000D01*
X146700000Y-113975000D02*
X146700000Y-118575000D01*
X146700000Y-113950000D02*
X144725000Y-113950000D01*
X146550000Y-113975000D02*
X146550000Y-118575000D01*
X146400000Y-113975000D02*
X146400000Y-118575000D01*
X146250000Y-113975000D02*
X146250000Y-118575000D01*
X146100000Y-113975000D02*
X146100000Y-118575000D01*
X145950000Y-113975000D02*
X145950000Y-118575000D01*
X145800000Y-113975000D02*
X145800000Y-118575000D01*
X145650000Y-113975000D02*
X145650000Y-118575000D01*
X145500000Y-113975000D02*
X145500000Y-118575000D01*
X145350000Y-113975000D02*
X145350000Y-118575000D01*
X145200000Y-113975000D02*
X145200000Y-118575000D01*
X145050000Y-113975000D02*
X145050000Y-118575000D01*
X144900000Y-113975000D02*
X144900000Y-118575000D01*
X144750000Y-113975000D02*
X144750000Y-118575000D01*
X144600000Y-114125000D02*
X144600000Y-118475000D01*
X144450000Y-114225000D02*
X144450000Y-118325000D01*
X144300000Y-114375000D02*
X144300000Y-118175000D01*
X144150000Y-114525000D02*
X144150000Y-118025000D01*
X144000000Y-114725000D02*
X144000000Y-117875000D01*
X143850000Y-114825000D02*
X143850000Y-117725000D01*
X143700000Y-117575000D02*
X144725000Y-118600000D01*
X143700000Y-117575000D02*
X143700000Y-114975000D01*
X143700000Y-114975000D02*
X144725000Y-113950000D01*
X152300000Y-116400000D02*
G75*
G03*
X153300000Y-115400000I1J999999D01*
G01*
X153300000Y-112750000D02*
G75*
G03*
X152300000Y-111750000I-999999J1D01*
G01*
X149699005Y-111751210D02*
G75*
G03*
X148837802Y-112453096I38796J-926886D01*
G01*
X146700000Y-113950000D02*
G75*
G03*
X148837801Y-112453096I1J2274999D01*
G01*
X149725000Y-116400000D02*
G75*
G03*
X148550000Y-117575000I2J-1175002D01*
G01*
X172300000Y-117775000D02*
X172300000Y-115125000D01*
X172150000Y-114700000D02*
X172150000Y-118250000D01*
X172050000Y-114550000D02*
X172050000Y-118300000D01*
X171950000Y-114450000D02*
X171950000Y-118400000D01*
X171850000Y-114350000D02*
X171850000Y-118550000D01*
X171700000Y-114250000D02*
X171700000Y-118650000D01*
X171550000Y-114200000D02*
X171550000Y-118700000D01*
X171400000Y-114150000D02*
X171400000Y-118700000D01*
X171300000Y-118775000D02*
X168725000Y-118775000D01*
X171300000Y-114125000D02*
X168700000Y-114125000D01*
X171250000Y-114150000D02*
X171250000Y-118750000D01*
X171100000Y-114150000D02*
X171100000Y-118750000D01*
X170950000Y-114150000D02*
X170950000Y-118750000D01*
X170800000Y-114150000D02*
X170800000Y-118750000D01*
X170650000Y-114150000D02*
X170650000Y-118750000D01*
X170500000Y-114150000D02*
X170500000Y-118750000D01*
X170350000Y-114150000D02*
X170350000Y-118750000D01*
X170200000Y-114150000D02*
X170200000Y-118750000D01*
X170050000Y-114150000D02*
X170050000Y-118750000D01*
X169900000Y-114150000D02*
X169900000Y-118750000D01*
X169750000Y-114150000D02*
X169750000Y-118750000D01*
X169600000Y-114150000D02*
X169600000Y-118750000D01*
X169450000Y-114150000D02*
X169450000Y-118750000D01*
X169300000Y-114150000D02*
X169300000Y-118750000D01*
X169150000Y-114150000D02*
X169150000Y-118750000D01*
X169000000Y-114150000D02*
X169000000Y-118750000D01*
X168850000Y-114150000D02*
X168850000Y-118700000D01*
X168700000Y-114150000D02*
X168700000Y-118750000D01*
X168550000Y-114150000D02*
X168550000Y-118750000D01*
X168400000Y-114200000D02*
X168400000Y-118750000D01*
X168250000Y-114300000D02*
X168250000Y-118850000D01*
X168100000Y-114400000D02*
X168100000Y-118900000D01*
X168000000Y-114550000D02*
X168000000Y-118950000D01*
X167900000Y-114800000D02*
X167900000Y-119000000D01*
X167800000Y-114950000D02*
X167800000Y-119100000D01*
X167700000Y-115150000D02*
X167700000Y-119300000D01*
X167600000Y-115300000D02*
X167600000Y-119450000D01*
X167500000Y-115500000D02*
X167500000Y-119950000D01*
X167350000Y-115650000D02*
X167350000Y-120100000D01*
X167200000Y-115800000D02*
X167200000Y-120200000D01*
X167050000Y-115900000D02*
X167050000Y-120300000D01*
X166900000Y-116000000D02*
X166900000Y-120450000D01*
X166750000Y-116100000D02*
X166750000Y-120550000D01*
X166600000Y-116150000D02*
X166600000Y-120700000D01*
X166450000Y-116250000D02*
X166450000Y-120800000D01*
X166300000Y-116300000D02*
X166300000Y-120900000D01*
X166275000Y-120975000D02*
X167550000Y-119950000D01*
X166275000Y-120975000D02*
X163725000Y-120975000D01*
X166150000Y-116300000D02*
X166150000Y-120950000D01*
X166000000Y-116300000D02*
X166000000Y-120950000D01*
X165850000Y-116350000D02*
X165850000Y-120900000D01*
X165700000Y-116350000D02*
X165700000Y-120950000D01*
X165700000Y-116325000D02*
X163725000Y-116325000D01*
X165550000Y-116350000D02*
X165550000Y-120950000D01*
X165400000Y-116350000D02*
X165400000Y-120950000D01*
X165250000Y-116350000D02*
X165250000Y-120950000D01*
X165100000Y-116350000D02*
X165100000Y-120950000D01*
X164950000Y-116350000D02*
X164950000Y-120950000D01*
X164800000Y-116350000D02*
X164800000Y-120950000D01*
X164650000Y-116350000D02*
X164650000Y-120950000D01*
X164500000Y-116350000D02*
X164500000Y-120950000D01*
X164350000Y-116350000D02*
X164350000Y-120950000D01*
X164200000Y-116350000D02*
X164200000Y-120950000D01*
X164050000Y-116350000D02*
X164050000Y-120950000D01*
X163900000Y-116350000D02*
X163900000Y-120950000D01*
X163750000Y-116350000D02*
X163750000Y-120950000D01*
X163600000Y-116500000D02*
X163600000Y-120850000D01*
X163450000Y-116600000D02*
X163450000Y-120700000D01*
X163300000Y-116750000D02*
X163300000Y-120550000D01*
X163150000Y-116900000D02*
X163150000Y-120400000D01*
X163000000Y-117100000D02*
X163000000Y-120250000D01*
X162850000Y-117200000D02*
X162850000Y-120100000D01*
X162700000Y-119950000D02*
X163725000Y-120975000D01*
X162700000Y-119950000D02*
X162700000Y-117350000D01*
X162700000Y-117350000D02*
X163725000Y-116325000D01*
X171300000Y-118775000D02*
G75*
G03*
X172300000Y-117775000I1J999999D01*
G01*
X172300000Y-115125000D02*
G75*
G03*
X171300000Y-114125000I-999999J1D01*
G01*
X168699005Y-114126210D02*
G75*
G03*
X167837802Y-114828096I38796J-926886D01*
G01*
X165700000Y-116325000D02*
G75*
G03*
X167837801Y-114828096I1J2274999D01*
G01*
X168725000Y-118775000D02*
G75*
G03*
X167550000Y-119950000I2J-1175002D01*
G01*
X143800000Y-135025000D02*
X143800000Y-132375000D01*
X143650000Y-131950000D02*
X143650000Y-135500000D01*
X143550000Y-131800000D02*
X143550000Y-135550000D01*
X143450000Y-131700000D02*
X143450000Y-135650000D01*
X143350000Y-131600000D02*
X143350000Y-135800000D01*
X143200000Y-131500000D02*
X143200000Y-135900000D01*
X143050000Y-131450000D02*
X143050000Y-135950000D01*
X142900000Y-131400000D02*
X142900000Y-135950000D01*
X142800000Y-136025000D02*
X140225000Y-136025000D01*
X142800000Y-131375000D02*
X140200000Y-131375000D01*
X142750000Y-131400000D02*
X142750000Y-136000000D01*
X142600000Y-131400000D02*
X142600000Y-136000000D01*
X142450000Y-131400000D02*
X142450000Y-136000000D01*
X142300000Y-131400000D02*
X142300000Y-136000000D01*
X142150000Y-131400000D02*
X142150000Y-136000000D01*
X142000000Y-131400000D02*
X142000000Y-136000000D01*
X141850000Y-131400000D02*
X141850000Y-136000000D01*
X141700000Y-131400000D02*
X141700000Y-136000000D01*
X141550000Y-131400000D02*
X141550000Y-136000000D01*
X141400000Y-131400000D02*
X141400000Y-136000000D01*
X141250000Y-131400000D02*
X141250000Y-136000000D01*
X141100000Y-131400000D02*
X141100000Y-136000000D01*
X140950000Y-131400000D02*
X140950000Y-136000000D01*
X140800000Y-131400000D02*
X140800000Y-136000000D01*
X140650000Y-131400000D02*
X140650000Y-136000000D01*
X140500000Y-131400000D02*
X140500000Y-136000000D01*
X140350000Y-131400000D02*
X140350000Y-135950000D01*
X140200000Y-131400000D02*
X140200000Y-136000000D01*
X140050000Y-131400000D02*
X140050000Y-136000000D01*
X139900000Y-131450000D02*
X139900000Y-136000000D01*
X139750000Y-131550000D02*
X139750000Y-136100000D01*
X139600000Y-131650000D02*
X139600000Y-136150000D01*
X139500000Y-131800000D02*
X139500000Y-136200000D01*
X139400000Y-132050000D02*
X139400000Y-136250000D01*
X139300000Y-132200000D02*
X139300000Y-136350000D01*
X139200000Y-132400000D02*
X139200000Y-136550000D01*
X139100000Y-132550000D02*
X139100000Y-136700000D01*
X139000000Y-132750000D02*
X139000000Y-137200000D01*
X138850000Y-132900000D02*
X138850000Y-137350000D01*
X138700000Y-133050000D02*
X138700000Y-137450000D01*
X138550000Y-133150000D02*
X138550000Y-137550000D01*
X138400000Y-133250000D02*
X138400000Y-137700000D01*
X138250000Y-133350000D02*
X138250000Y-137800000D01*
X138100000Y-133400000D02*
X138100000Y-137950000D01*
X137950000Y-133500000D02*
X137950000Y-138050000D01*
X137800000Y-133550000D02*
X137800000Y-138150000D01*
X137775000Y-138225000D02*
X139050000Y-137200000D01*
X137775000Y-138225000D02*
X135225000Y-138225000D01*
X137650000Y-133550000D02*
X137650000Y-138200000D01*
X137500000Y-133550000D02*
X137500000Y-138200000D01*
X137350000Y-133600000D02*
X137350000Y-138150000D01*
X137200000Y-133600000D02*
X137200000Y-138200000D01*
X137200000Y-133575000D02*
X135225000Y-133575000D01*
X137050000Y-133600000D02*
X137050000Y-138200000D01*
X136900000Y-133600000D02*
X136900000Y-138200000D01*
X136750000Y-133600000D02*
X136750000Y-138200000D01*
X136600000Y-133600000D02*
X136600000Y-138200000D01*
X136450000Y-133600000D02*
X136450000Y-138200000D01*
X136300000Y-133600000D02*
X136300000Y-138200000D01*
X136150000Y-133600000D02*
X136150000Y-138200000D01*
X136000000Y-133600000D02*
X136000000Y-138200000D01*
X135850000Y-133600000D02*
X135850000Y-138200000D01*
X135700000Y-133600000D02*
X135700000Y-138200000D01*
X135550000Y-133600000D02*
X135550000Y-138200000D01*
X135400000Y-133600000D02*
X135400000Y-138200000D01*
X135250000Y-133600000D02*
X135250000Y-138200000D01*
X135100000Y-133750000D02*
X135100000Y-138100000D01*
X134950000Y-133850000D02*
X134950000Y-137950000D01*
X134800000Y-134000000D02*
X134800000Y-137800000D01*
X134650000Y-134150000D02*
X134650000Y-137650000D01*
X134500000Y-134350000D02*
X134500000Y-137500000D01*
X134350000Y-134450000D02*
X134350000Y-137350000D01*
X134200000Y-137200000D02*
X135225000Y-138225000D01*
X134200000Y-137200000D02*
X134200000Y-134600000D01*
X134200000Y-134600000D02*
X135225000Y-133575000D01*
X142800000Y-136025000D02*
G75*
G03*
X143800000Y-135025000I1J999999D01*
G01*
X143800000Y-132375000D02*
G75*
G03*
X142800000Y-131375000I-999999J1D01*
G01*
X140199005Y-131376210D02*
G75*
G03*
X139337802Y-132078096I38796J-926886D01*
G01*
X137200000Y-133575000D02*
G75*
G03*
X139337801Y-132078096I1J2274999D01*
G01*
X140225000Y-136025000D02*
G75*
G03*
X139050000Y-137200000I2J-1175002D01*
G01*
X163250693Y-139493156D02*
X163936563Y-136933453D01*
X163901673Y-136484112D02*
X162982865Y-139913148D01*
X163843903Y-136313341D02*
X162873331Y-139935563D01*
X163773192Y-136190866D02*
X162750857Y-140006273D01*
X163702481Y-136068392D02*
X162615441Y-140125280D01*
X163583474Y-135932976D02*
X162444671Y-140183050D01*
X163451527Y-135845857D02*
X162286841Y-140192523D01*
X163319579Y-135758738D02*
X162141952Y-140153701D01*
X162025948Y-140200263D02*
X159538689Y-139533804D01*
X163229457Y-135708708D02*
X160718049Y-135035778D01*
X163174690Y-135719915D02*
X161984122Y-140163174D01*
X163029801Y-135681092D02*
X161839233Y-140124351D01*
X162884912Y-135642269D02*
X161694344Y-140085528D01*
X162740023Y-135603447D02*
X161549456Y-140046705D01*
X162595134Y-135564624D02*
X161404567Y-140007883D01*
X162450245Y-135525801D02*
X161259678Y-139969060D01*
X162305357Y-135486978D02*
X161114789Y-139930237D01*
X162160468Y-135448155D02*
X160969900Y-139891414D01*
X162015579Y-135409332D02*
X160825011Y-139852591D01*
X161870690Y-135370509D02*
X160680122Y-139813768D01*
X161725801Y-135331687D02*
X160535233Y-139774945D01*
X161580912Y-135292864D02*
X160390345Y-139736123D01*
X161436023Y-135254041D02*
X160245456Y-139697300D01*
X161291134Y-135215218D02*
X160100567Y-139658477D01*
X161146246Y-135176395D02*
X159955678Y-139619654D01*
X161001357Y-135137572D02*
X159810789Y-139580831D01*
X160856468Y-135098749D02*
X159678841Y-139493712D01*
X160711579Y-135059927D02*
X159521011Y-139503185D01*
X160566690Y-135021104D02*
X159376122Y-139464363D01*
X160408860Y-135030577D02*
X159231234Y-139425540D01*
X160238089Y-135088347D02*
X159060463Y-139483309D01*
X160067319Y-135146117D02*
X158902633Y-139492783D01*
X159931903Y-135265124D02*
X158793099Y-139515197D01*
X159770606Y-135480723D02*
X158683566Y-139537612D01*
X159635190Y-135599730D02*
X158561091Y-139608322D01*
X159486834Y-135767033D02*
X158412735Y-139775626D01*
X159351419Y-135886040D02*
X158277320Y-139894633D01*
X159203062Y-136053344D02*
X158051317Y-140351714D01*
X159019350Y-136159410D02*
X157867606Y-140457780D01*
X158835639Y-136265476D02*
X157696835Y-140515549D01*
X158664868Y-136323245D02*
X157526064Y-140573319D01*
X158494097Y-136381015D02*
X157342352Y-140679385D01*
X158323326Y-136438785D02*
X157171582Y-140737155D01*
X158165497Y-136448258D02*
X156987870Y-140843221D01*
X157994726Y-136506028D02*
X156817099Y-140900991D01*
X157836896Y-136515501D02*
X156646328Y-140958760D01*
X156602769Y-141024734D02*
X158099614Y-140364655D01*
X156602769Y-141024734D02*
X154139658Y-140364746D01*
X157692007Y-136476679D02*
X156488499Y-140968234D01*
X157547118Y-136437856D02*
X156343610Y-140929411D01*
X157389288Y-136447329D02*
X156211662Y-140842292D01*
X157244400Y-136408506D02*
X156053832Y-140851765D01*
X157250870Y-136384358D02*
X155343166Y-135873191D01*
X157099511Y-136369683D02*
X155908943Y-140812942D01*
X156954622Y-136330861D02*
X155764054Y-140774119D01*
X156809733Y-136292038D02*
X155619165Y-140735297D01*
X156664844Y-136253215D02*
X155474276Y-140696474D01*
X156519955Y-136214392D02*
X155329388Y-140657651D01*
X156375066Y-136175569D02*
X155184499Y-140618828D01*
X156230177Y-136136746D02*
X155039610Y-140580005D01*
X156085289Y-136097923D02*
X154894721Y-140541182D01*
X155940400Y-136059101D02*
X154749832Y-140502359D01*
X155795511Y-136020278D02*
X154604943Y-140463537D01*
X155650622Y-135981455D02*
X154460054Y-140424714D01*
X155505733Y-135942632D02*
X154315165Y-140385891D01*
X155360844Y-135903809D02*
X154170277Y-140347068D01*
X155177132Y-136009875D02*
X154051270Y-140211653D01*
X155006362Y-136067645D02*
X153945204Y-140027941D01*
X154822650Y-136173711D02*
X153839138Y-139844229D01*
X154638938Y-136279777D02*
X153733072Y-139660517D01*
X154442286Y-136434139D02*
X153627006Y-139476806D01*
X154271515Y-136491909D02*
X153520939Y-139293094D01*
X153414873Y-139109382D02*
X154139658Y-140364746D01*
X153414873Y-139109382D02*
X154087803Y-136597975D01*
X154087803Y-136597975D02*
X155343166Y-135873191D01*
X162025948Y-140200262D02*
G75*
G03*
X163250692Y-139493156I258820J965924D01*
G01*
X163936563Y-136933453D02*
G75*
G03*
X163229457Y-135708709I-965927J258818D01*
G01*
X160716775Y-135036689D02*
G75*
G03*
X159703255Y-135491764I-202422J-905345D01*
G01*
X157250870Y-136384358D02*
G75*
G03*
X159703254Y-135491764I588814J2197480D01*
G01*
X159538689Y-139533805D02*
G75*
G03*
X158099615Y-140364655I-304111J-1134964D01*
G01*
X189764000Y-100107000D02*
X189764000Y-102393000D01*
X187986000Y-100107000D02*
X189764000Y-100107000D01*
X189764000Y-102393000D02*
X187986000Y-102393000D01*
X187986000Y-102393000D02*
X187986000Y-100107000D01*
X187264000Y-100107000D02*
X187264000Y-102393000D01*
X185486000Y-100107000D02*
X187264000Y-100107000D01*
X187264000Y-102393000D02*
X185486000Y-102393000D01*
X185486000Y-102393000D02*
X185486000Y-100107000D01*
X184764000Y-100107000D02*
X184764000Y-102393000D01*
X182986000Y-100107000D02*
X184764000Y-100107000D01*
X184764000Y-102393000D02*
X182986000Y-102393000D01*
X182986000Y-102393000D02*
X182986000Y-100107000D01*
X182264000Y-100107000D02*
X182264000Y-102393000D01*
X180486000Y-100107000D02*
X182264000Y-100107000D01*
X182264000Y-102393000D02*
X180486000Y-102393000D01*
X180486000Y-102393000D02*
X180486000Y-100107000D01*
X176916400Y-70502000D02*
X179456400Y-70502000D01*
X176916400Y-100982000D02*
X176916400Y-70502000D01*
X179456400Y-70502000D02*
X179456400Y-100982000D01*
X179456400Y-100982000D02*
X176916400Y-100982000D01*
X192136400Y-70502000D02*
X194676400Y-70502000D01*
X192136400Y-100982000D02*
X192136400Y-70502000D01*
X194676400Y-70502000D02*
X194676400Y-100982000D01*
X194676400Y-100982000D02*
X192136400Y-100982000D01*
X179957000Y-111911000D02*
X182243000Y-111911000D01*
X179957000Y-113689000D02*
X179957000Y-111911000D01*
X182243000Y-111911000D02*
X182243000Y-113689000D01*
X182243000Y-113689000D02*
X179957000Y-113689000D01*
X180030000Y-104030000D02*
X190190000Y-104030000D01*
X180030000Y-106570000D02*
X180030000Y-104030000D01*
X180030000Y-106570000D02*
X190190000Y-106570000D01*
X190190000Y-104030000D02*
X190190000Y-106570000D01*
X194700000Y-113700000D02*
X194700000Y-119700000D01*
X182700000Y-113700000D02*
X194700000Y-113700000D01*
X194700000Y-119700000D02*
X182700000Y-119700000D01*
X182700000Y-119700000D02*
X182700000Y-113700000D01*
X191150000Y-110000000D02*
X191400000Y-110000000D01*
X191150000Y-110000000D02*
X191150000Y-104000000D01*
X194650000Y-110000000D02*
X194400000Y-110000000D01*
X194650000Y-110000000D02*
X194650000Y-104000000D01*
X191150000Y-104000000D02*
X191400000Y-104000000D01*
X194650000Y-104000000D02*
X194400000Y-104000000D01*
D13*
X128000000Y-78560000D02*
X130420000Y-78560000D01*
X128000000Y-80010000D02*
X128000000Y-78560000D01*
X130450000Y-78560000D02*
X130450000Y-80010000D01*
X130450000Y-80010000D02*
X128000000Y-80010000D01*
X165950000Y-83280000D02*
X168370000Y-83280000D01*
X165950000Y-84730000D02*
X165950000Y-83280000D01*
X168400000Y-83280000D02*
X168400000Y-84730000D01*
X168400000Y-84730000D02*
X165950000Y-84730000D01*
X126010000Y-119770000D02*
X123590000Y-119770000D01*
X126010000Y-118320000D02*
X126010000Y-119770000D01*
X123560000Y-119770000D02*
X123560000Y-118320000D01*
X123560000Y-118320000D02*
X126010000Y-118320000D01*
X164030000Y-124520000D02*
X161610000Y-124520000D01*
X164030000Y-123070000D02*
X164030000Y-124520000D01*
X161580000Y-124520000D02*
X161580000Y-123070000D01*
X161580000Y-123070000D02*
X164030000Y-123070000D01*
D11*
X187751779Y-132690515D02*
X185456810Y-131365515D01*
X185013750Y-131282917D02*
X188088140Y-133057918D01*
X184833846Y-131294521D02*
X188081441Y-133169521D01*
X184697243Y-131331123D02*
X188118044Y-133306123D01*
X184560641Y-131367726D02*
X188197947Y-133467726D01*
X184399038Y-131447630D02*
X188209550Y-133647630D01*
X184280737Y-131552534D02*
X188177851Y-133802534D01*
X184162436Y-131657437D02*
X188102851Y-133932437D01*
X188117803Y-134056540D02*
X186830303Y-136286555D01*
X184090785Y-131731540D02*
X182790785Y-133983206D01*
X184087436Y-131787341D02*
X188071152Y-134087341D01*
X184012436Y-131917245D02*
X187996152Y-134217245D01*
X183937436Y-132047149D02*
X187921152Y-134347149D01*
X183862436Y-132177053D02*
X187846152Y-134477054D01*
X183787436Y-132306956D02*
X187771152Y-134606956D01*
X183712436Y-132436860D02*
X187696152Y-134736860D01*
X183637436Y-132566764D02*
X187621152Y-134866764D01*
X183562436Y-132696668D02*
X187546152Y-134996668D01*
X183487436Y-132826572D02*
X187471152Y-135126572D01*
X183412436Y-132956476D02*
X187396152Y-135256476D01*
X183337436Y-133086378D02*
X187321152Y-135386379D01*
X183262436Y-133216283D02*
X187246152Y-135516283D01*
X183187436Y-133346187D02*
X187171152Y-135646187D01*
X183112436Y-133476091D02*
X187096152Y-135776091D01*
X183037436Y-133605995D02*
X187021152Y-135905995D01*
X182962436Y-133735898D02*
X186946152Y-136035898D01*
X182887436Y-133865802D02*
X186827851Y-136140802D01*
X182812436Y-133995706D02*
X186796152Y-136295706D01*
X182737436Y-134125610D02*
X186721152Y-136425610D01*
X182705737Y-134280514D02*
X186646152Y-136555514D01*
X182717339Y-134460417D02*
X186657755Y-136735417D01*
X182728942Y-134640321D02*
X186626056Y-136890321D01*
X182808846Y-134801924D02*
X186619358Y-137001924D01*
X182975352Y-135013526D02*
X186612659Y-137113526D01*
X183055256Y-135175129D02*
X186649261Y-137250129D01*
X183178461Y-135361731D02*
X186772466Y-137436731D01*
X183258365Y-135523334D02*
X186852370Y-137598334D01*
X183381570Y-135709936D02*
X187235383Y-137934936D01*
X183436474Y-135914840D02*
X187290287Y-138139840D01*
X183491377Y-136119744D02*
X187301889Y-138319744D01*
X183502980Y-136299648D02*
X187313492Y-138499648D01*
X183514583Y-136479552D02*
X187368396Y-138704552D01*
X183526185Y-136659456D02*
X187379998Y-138884456D01*
X183494486Y-136814359D02*
X187434902Y-139089359D01*
X183506089Y-136994263D02*
X187446505Y-139269263D01*
X183474390Y-137149167D02*
X187458107Y-139449167D01*
X187510559Y-139508318D02*
X187260383Y-137891635D01*
X187510559Y-139508318D02*
X186235559Y-141716682D01*
X183399390Y-137279071D02*
X187426408Y-139604071D01*
X183324390Y-137408975D02*
X187351408Y-139733975D01*
X183292691Y-137563878D02*
X187233107Y-139838878D01*
X183217691Y-137693782D02*
X187201408Y-139993782D01*
X183196041Y-137681282D02*
X182208541Y-139391682D01*
X183142691Y-137823686D02*
X187126408Y-140123686D01*
X183067691Y-137953590D02*
X187051408Y-140253590D01*
X182992691Y-138083495D02*
X186976408Y-140383494D01*
X182917691Y-138213397D02*
X186901408Y-140513397D01*
X182842691Y-138343301D02*
X186826408Y-140643301D01*
X182767691Y-138473205D02*
X186751408Y-140773205D01*
X182692691Y-138603109D02*
X186676408Y-140903109D01*
X182617691Y-138733013D02*
X186601408Y-141033013D01*
X182542691Y-138862917D02*
X186526408Y-141162917D01*
X182467691Y-138992820D02*
X186451408Y-141292820D01*
X182392691Y-139122724D02*
X186376408Y-141422724D01*
X182317691Y-139252628D02*
X186301408Y-141552628D01*
X182242691Y-139382532D02*
X186226408Y-141682532D01*
X182297595Y-139587436D02*
X186064806Y-141762436D01*
X182309198Y-139767339D02*
X185859902Y-141817339D01*
X182364102Y-139972243D02*
X185654998Y-141872243D01*
X182419005Y-140177147D02*
X185450094Y-141927147D01*
X182517211Y-140407051D02*
X185245191Y-141982051D01*
X182528813Y-140586955D02*
X185040287Y-142036955D01*
X184835383Y-142091858D02*
X186235559Y-141716682D01*
X184835383Y-142091858D02*
X182583717Y-140791858D01*
X182583717Y-140791858D02*
X182208541Y-139391682D01*
X188117803Y-134056540D02*
G75*
G03*
X187751778Y-132690515I-866024J500000D01*
G01*
X185456810Y-131365515D02*
G75*
G03*
X184090785Y-131731540I-500000J-866024D01*
G01*
X182791334Y-133984672D02*
G75*
G03*
X182968584Y-135081440I822106J-429845D01*
G01*
X183196040Y-137681282D02*
G75*
G03*
X182968584Y-135081440I-1970209J1137500D01*
G01*
X186830304Y-136286556D02*
G75*
G03*
X187260383Y-137891634I1017582J-587499D01*
G01*
X188501140Y-111300760D02*
X188501140Y-109299240D01*
X188501140Y-109299240D02*
X185498860Y-109299240D01*
X185498860Y-111300760D02*
X188501140Y-111300760D01*
X185498860Y-109299240D02*
X185498860Y-111300760D01*
X188501140Y-109000760D02*
X188501140Y-106999240D01*
X188501140Y-106999240D02*
X185498860Y-106999240D01*
X185498860Y-109000760D02*
X188501140Y-109000760D01*
X185498860Y-106999240D02*
X185498860Y-109000760D01*
X180000000Y-107000000D02*
X180000000Y-109000000D01*
X180000000Y-109000000D02*
X182000000Y-109000000D01*
X182000000Y-107000000D02*
X180000000Y-107000000D01*
X182000000Y-109000000D02*
X182000000Y-107000000D01*
X180000000Y-109300000D02*
X180000000Y-111300000D01*
X180000000Y-111300000D02*
X182000000Y-111300000D01*
X182000000Y-109300000D02*
X180000000Y-109300000D01*
X182000000Y-111300000D02*
X182000000Y-109300000D01*
D13*
X89980000Y-85650000D02*
X92400000Y-85650000D01*
X89980000Y-87100000D02*
X89980000Y-85650000D01*
X92430000Y-85650000D02*
X92430000Y-87100000D01*
X92430000Y-87100000D02*
X89980000Y-87100000D01*
X88020000Y-107840000D02*
X85600000Y-107840000D01*
X88020000Y-106390000D02*
X88020000Y-107840000D01*
X85570000Y-107840000D02*
X85570000Y-106390000D01*
X85570000Y-106390000D02*
X88020000Y-106390000D01*
D14*
X176860000Y-73042000D03*
X193406400Y-71772000D03*
X176860000Y-75582000D03*
X193406400Y-74312000D03*
X176860000Y-78122000D03*
X193406400Y-76852000D03*
X176860000Y-80662000D03*
X193406400Y-79392000D03*
X176860000Y-83202000D03*
X193406400Y-81932000D03*
X176860000Y-85742000D03*
X193406400Y-84472000D03*
X176860000Y-88282000D03*
X193406400Y-87012000D03*
X176860000Y-90822000D03*
X193406400Y-89552000D03*
X176860000Y-93362000D03*
X193406400Y-92092000D03*
X176860000Y-95902000D03*
X193406400Y-94632000D03*
X176860000Y-98442000D03*
X193406400Y-97172000D03*
X176860000Y-100982000D03*
X193406400Y-99712000D03*
X178186400Y-99712000D03*
X192100000Y-100982000D03*
X178186400Y-97172000D03*
X192100000Y-98442000D03*
X178186400Y-94632000D03*
X192100000Y-95902000D03*
X178186400Y-92092000D03*
X192100000Y-93362000D03*
X178186400Y-89552000D03*
X192100000Y-90822000D03*
X178186400Y-87012000D03*
X192100000Y-88282000D03*
X178186400Y-84472000D03*
X192100000Y-85742000D03*
X178186400Y-81932000D03*
X192100000Y-83202000D03*
X178186400Y-79392000D03*
X192100000Y-80662000D03*
X178186400Y-76852000D03*
X192100000Y-78122000D03*
X178186400Y-74312000D03*
X192100000Y-75582000D03*
X178186400Y-71772000D03*
X192100000Y-73042000D03*
D15*
X181300000Y-105300000D03*
X183840000Y-105300000D03*
X186380000Y-105300000D03*
X188920000Y-105300000D03*
D16*
X193200000Y-114950000D03*
X186200000Y-114950000D03*
X193200000Y-116700000D03*
X186200000Y-116700000D03*
D17*
X182900000Y-114600000D03*
X182900000Y-117050000D03*
X191400000Y-112850000D03*
X191400000Y-118800000D03*
X188400000Y-112850000D03*
X188400000Y-118800000D03*
X184400000Y-112850000D03*
X184400000Y-118800000D03*
D18*
X192900000Y-103750000D03*
X192900000Y-110250000D03*
D15*
X189540000Y-110300000D03*
X184460000Y-110300000D03*
X189540000Y-108000000D03*
X184460000Y-108000000D03*
X181000000Y-108000000D03*
X181000000Y-110300000D03*
M02*
