%TF.GenerationSoftware,KiCad,Pcbnew,7.0.7*%
%TF.CreationDate,2023-09-12T18:25:19+01:00*%
%TF.ProjectId,bottom,626f7474-6f6d-42e6-9b69-6361645f7063,1.0*%
%TF.SameCoordinates,Original*%
%TF.FileFunction,Profile,NP*%
%FSLAX46Y46*%
G04 Gerber Fmt 4.6, Leading zero omitted, Abs format (unit mm)*
G04 Created by KiCad (PCBNEW 7.0.7) date 2023-09-12 18:25:19*
%MOMM*%
%LPD*%
G01*
G04 APERTURE LIST*
%TA.AperFunction,Profile*%
%ADD10C,0.150000*%
%TD*%
G04 APERTURE END LIST*
D10*
X155000000Y-63750000D02*
G75*
G03*
X154500000Y-63250000I-500000J0D01*
G01*
X135500000Y-61000000D02*
X118500000Y-61000000D01*
X165075002Y-143899995D02*
G75*
G03*
X164420560Y-143770341I-987602J-3268505D01*
G01*
X136000000Y-62750000D02*
G75*
G03*
X136500000Y-63250000I500000J0D01*
G01*
X194750000Y-68500000D02*
X194750000Y-127975000D01*
X136000000Y-62750000D02*
X136000000Y-61500000D01*
X174000000Y-66250000D02*
G75*
G03*
X173500000Y-65750000I-500000J0D01*
G01*
X116853553Y-124396447D02*
G75*
G03*
X116500000Y-124250000I-353553J-353553D01*
G01*
X154500000Y-63250000D02*
X136500000Y-63250000D01*
X117500000Y-63250000D02*
G75*
G03*
X118000000Y-62750000I0J500000D01*
G01*
X98500000Y-68000000D02*
X61474990Y-68000000D01*
X194750000Y-68500000D02*
G75*
G03*
X194250000Y-68000000I-500000J0D01*
G01*
X127396447Y-138853553D02*
G75*
G03*
X127750000Y-139000000I353553J353553D01*
G01*
X155000000Y-65250000D02*
G75*
G03*
X155500000Y-65750000I500000J0D01*
G01*
X61000000Y-123750000D02*
G75*
G03*
X61500000Y-124250000I500000J0D01*
G01*
X116500000Y-124250000D02*
X61500000Y-124250000D01*
X136000000Y-61500000D02*
G75*
G03*
X135500000Y-61000000I-500000J0D01*
G01*
X117500000Y-63250000D02*
X99500000Y-63250000D01*
X174000000Y-66250000D02*
X174000000Y-67500000D01*
X116850000Y-124400000D02*
X127400000Y-138850000D01*
X179369225Y-152160997D02*
G75*
G03*
X181297260Y-151781460I774975J1150097D01*
G01*
X61000000Y-68500000D02*
X61000000Y-123750000D01*
X181300000Y-151775000D02*
X194525000Y-128850000D01*
X118000000Y-61500000D02*
X118000000Y-62750000D01*
X99000000Y-63750000D02*
X99000000Y-67500000D01*
X173500000Y-65750000D02*
X155500000Y-65750000D01*
X194522758Y-128847699D02*
G75*
G03*
X194750000Y-127975000I-1474958J849999D01*
G01*
X98500000Y-68000000D02*
G75*
G03*
X99000000Y-67500000I0J500000D01*
G01*
X61500000Y-68000000D02*
G75*
G03*
X61000000Y-68500000I0J-500000D01*
G01*
X174000000Y-67500000D02*
G75*
G03*
X174500000Y-68000000I500000J0D01*
G01*
X118500000Y-61000000D02*
G75*
G03*
X118000000Y-61500000I0J-500000D01*
G01*
X155000000Y-65250000D02*
X155000000Y-63750000D01*
X194250000Y-68000000D02*
X174500000Y-68000000D01*
X165075000Y-143900000D02*
X179400000Y-152175000D01*
X99500000Y-63250000D02*
G75*
G03*
X99000000Y-63750000I0J-500000D01*
G01*
X127750000Y-139000000D02*
X164450000Y-143775000D01*
M02*
