M48
; DRILL file {KiCad 7.0.7} date Tue 12 Sep 2023 18:04:27 BST
; FORMAT={-:-/ absolute / inch / decimal}
; #@! TF.CreationDate,2023-09-12T18:04:27+01:00
; #@! TF.GenerationSoftware,Kicad,Pcbnew,7.0.7
; #@! TF.FileFunction,Plated,1,2,PTH
FMAT,2
INCH
; #@! TA.AperFunction,Plated,PTH,ViaDrill
T1C0.0157
; #@! TA.AperFunction,Plated,PTH,ViaDrill
T2C0.0197
; #@! TA.AperFunction,Plated,PTH,ViaDrill
T3C0.0866
%
G90
G05
T1
X3.0709Y-3.4154
X3.0709Y-4.1535
X3.0882Y-3.3736
X3.0882Y-3.4571
X3.0882Y-4.1118
X3.0882Y-4.1953
X3.1299Y-3.3563
X3.1299Y-3.4744
X3.1299Y-4.0945
X3.1299Y-4.2126
X3.1717Y-3.3736
X3.1717Y-3.4571
X3.1717Y-4.1118
X3.1717Y-4.1953
X3.189Y-3.4154
X3.189Y-4.1535
X4.7736Y-4.8327
X4.7909Y-4.7909
X4.7909Y-4.8744
X4.8327Y-4.7736
X4.8327Y-4.8917
X4.8744Y-4.7909
X4.8744Y-4.8744
X4.8917Y-4.8327
X6.063Y-3.2677
X6.0803Y-3.226
X6.0803Y-3.3094
X6.122Y-3.2087
X6.122Y-3.3268
X6.1638Y-3.226
X6.1638Y-3.3094
X6.1811Y-3.2677
X6.6043Y-5.1378
X6.6217Y-5.0961
X6.6217Y-5.1795
X6.6634Y-5.0787
X6.6634Y-5.1969
X6.7051Y-5.0961
X6.7051Y-5.1795
X6.7224Y-5.1378
T2
X2.4886Y-2.7707
X2.4886Y-3.5187
X2.4886Y-4.2667
X2.4906Y-2.7687
X2.4906Y-3.3041
X2.4906Y-3.5167
X2.4906Y-4.0522
X2.4906Y-4.2648
X2.4906Y-4.8002
X3.024Y-2.7707
X3.024Y-3.5187
X3.024Y-4.2667
X3.2366Y-2.7707
X3.2366Y-3.5187
X3.2366Y-4.2667
X3.2386Y-2.7687
X3.2386Y-3.3041
X3.2386Y-3.5167
X3.2386Y-4.0522
X3.2386Y-4.2648
X3.2386Y-4.8002
X3.772Y-2.7707
X3.772Y-3.5187
X3.772Y-4.2667
X3.9846Y-2.5837
X3.9846Y-3.3317
X3.9846Y-4.0797
X3.9866Y-2.5817
X3.9866Y-3.1171
X3.9866Y-3.3297
X3.9866Y-3.8652
X3.9866Y-4.0778
X3.9866Y-4.6132
X4.5201Y-2.5837
X4.5201Y-3.3317
X4.5201Y-4.0797
X4.7327Y-2.4902
X4.7327Y-3.2382
X4.7327Y-3.9862
X4.7346Y-2.4882
X4.7346Y-3.0236
X4.7346Y-3.2362
X4.7346Y-3.7717
X4.7346Y-3.9843
X4.7346Y-4.5197
X5.1075Y-4.8537
X5.1094Y-4.8518
X5.1094Y-5.3872
X5.2681Y-2.4902
X5.2681Y-3.2382
X5.2681Y-3.9862
X5.4807Y-2.5837
X5.4807Y-3.3317
X5.4807Y-4.0797
X5.4827Y-2.5817
X5.4827Y-3.1171
X5.4827Y-3.3297
X5.4827Y-3.8652
X5.4827Y-4.0778
X5.4827Y-4.6132
X5.6429Y-4.8537
X5.8745Y-5.4159
X6.0107Y-4.9002
X6.0131Y-4.8988
X6.0161Y-2.5837
X6.0161Y-3.3317
X6.0161Y-4.0797
X6.2287Y-2.6772
X6.2287Y-3.4252
X6.2287Y-4.1732
X6.2307Y-2.6752
X6.2307Y-3.2106
X6.2307Y-3.4232
X6.2307Y-3.9587
X6.2307Y-4.1713
X6.2307Y-4.7067
X6.5278Y-5.0387
X6.7128Y-5.4724
X6.7642Y-2.6772
X6.7642Y-3.4252
X6.7642Y-4.1732
X6.9778Y-5.0094
X6.9805Y-5.0087
X7.4415Y-5.2771
T3
X3.1299Y-3.4154
X3.1299Y-4.1535
X4.8327Y-4.8327
X6.122Y-3.2677
X6.6634Y-5.1378
T0
M30
